<?xml version="1.0" encoding="utf-8"?>
<!-- Generator: Adobe Illustrator 25.4.1, SVG Export Plug-In . SVG Version: 6.00 Build 0)  -->
<svg version="1.1" id="Layer_1" xmlns="http://www.w3.org/2000/svg" xmlns:xlink="http://www.w3.org/1999/xlink" x="0px" y="0px"
	 viewBox="0 0 200 200" style="enable-background:new 0 0 200 200;" xml:space="preserve">
<style type="text/css">
	.st0{fill:url(#SVGID_1_);}
	.st1{fill:#A796A8;}
	.st2{fill:#D3C2D2;}
	.st3{fill:#EFE8EF;}
	.st4{fill:#5A4D5B;}
	.st5{fill:#716172;}
	.st6{fill:#B0EEFF;}
	.st7{fill:#4A8BF0;}
	.st8{fill:#67C2FF;}
	.st9{fill:#FFFFFF;}
	.st10{fill:#4E886D;}
	.st11{fill:#B0CF43;}
	.st12{fill:#70A950;}
	.st13{fill:#EBE858;}
	.st14{fill:#E53557;}
	.st15{fill:#AF1E4B;}
	.st16{fill:#422F38;}
	.st17{fill:#F99027;}
	.st18{fill:#FFC840;}
	.st19{fill:#DF3359;}
	.st20{fill:#FFC5C5;}
	.st21{fill:#FA5262;}
	.st22{fill:#FF9BB2;}
	.st23{fill:#FF826F;}
	.st24{fill:#FFE783;}
	.st25{fill:#FFD45A;}
	.st26{fill:#F28033;}
	.st27{fill:#D56132;}
	.st28{fill:#FC9A2C;}
	.st29{fill:#E0692B;}
	.st30{fill:#FFDE6F;}
</style>
<linearGradient id="SVGID_1_" gradientUnits="userSpaceOnUse" x1="-399.4987" y1="600.3479" x2="-398.4987" y2="600.3479" gradientTransform="matrix(0 -799.998 -799.998 0 480377.1562 -319311.5312)">
	<stop  offset="0" style="stop-color:#D887C7"/>
	<stop  offset="0.2285" style="stop-color:#D887C7"/>
	<stop  offset="1" style="stop-color:#00E4E4"/>
</linearGradient>
<path class="st0" d="M0,200h200V0H0V200z"/>
<g>
	<g>
		<g>
			<ellipse class="st14" cx="100.5" cy="97.1" rx="65.8" ry="65.5"/>
		</g>
	</g>
	<g>
		<g>
			<path class="st15" d="M34.7,97.1c0,36.2,29.5,65.5,65.8,65.5c36.4,0,65.8-29.3,65.8-65.5H34.7z"/>
		</g>
	</g>
	<g>
		<g>
			<g>
				<g>
					<path class="st16" d="M44.9,135.8c-9.9,0-17.9-8-17.9-17.9V76.3c0-9.8,8-17.9,17.9-17.9h111.3c9.9,0,17.9,8,17.9,17.9V118
						c0,9.8-8,17.9-17.9,17.9H44.9z"/>
				</g>
			</g>
			<g>
				<g>
					<g>
						<path class="st17" d="M156.2,65.3c6.1,0,11.1,4.9,11.1,11V118c0,6.1-5,11-11.1,11H44.9c-6.1,0-11.1-4.9-11.1-11V76.3
							c0-6.1,5-11,11.1-11H156.2L156.2,65.3z M156.2,51.6H44.9c-13.7,0-24.8,11.1-24.8,24.7V118c0,13.6,11.1,24.7,24.8,24.7h111.3
							c13.7,0,24.8-11.1,24.8-24.7V76.3C181,62.7,169.9,51.6,156.2,51.6L156.2,51.6z"/>
					</g>
				</g>
			</g>
		</g>
		<g>
			<g>
				<path class="st9" d="M53.3,104.6h3l0-15.8h-2.9v-6.1l14.2,0c1.4,0,2.7,0.1,3.7,0.2c1.1,0.1,2.1,0.3,3.1,0.7
					c1,0.3,1.7,0.8,2.4,1.3c0.6,0.5,1.1,1.2,1.4,2.1c0.4,0.9,0.5,1.9,0.5,3c0,1.4-0.4,2.7-1.2,3.8c-0.8,1.1-1.8,1.9-3.1,2.4v0
					c1.7,0.5,3.1,1.4,4,2.6c1,1.2,1.4,2.9,1.4,4.8c0,1.3-0.3,2.4-0.8,3.4c-0.5,1-1.2,1.7-2.2,2.3c-0.9,0.6-2,1-3.2,1.2
					c-1.2,0.3-2.6,0.4-4.1,0.4H53.3V104.6z M65.6,94.2h0.7c0.6,0,1.1,0,1.5-0.1c0.4-0.1,0.8-0.2,1.2-0.4c0.4-0.2,0.7-0.5,0.9-0.9
					c0.2-0.4,0.3-0.9,0.3-1.6c0-0.8-0.2-1.4-0.7-1.8c-0.5-0.4-1-0.6-1.7-0.6h-2.2V94.2z M65.6,98.7v5.9c0.1,0,0.2,0,0.4,0
					c0.2,0,0.5,0,0.7,0c0.2,0,0.4,0,0.7,0c0.2,0,0.4,0,0.6-0.1c0.2,0,0.4-0.1,0.6-0.1c0.2,0,0.4-0.1,0.5-0.2
					c0.2-0.1,0.3-0.2,0.4-0.3c0.1-0.1,0.3-0.2,0.4-0.4c0.1-0.2,0.2-0.3,0.3-0.5c0.1-0.2,0.1-0.4,0.2-0.6c0-0.2,0.1-0.5,0.1-0.8
					c0-0.5-0.1-1-0.2-1.4c-0.2-0.4-0.3-0.7-0.6-0.9c-0.2-0.2-0.5-0.4-0.8-0.5c-0.3-0.1-0.6-0.2-0.9-0.2c-0.3,0-0.6,0-0.9,0
					C66.7,98.7,66.3,98.7,65.6,98.7z"/>
			</g>
			<g>
				<path class="st9" d="M110.4,103.1c0.1,0.4,0.2,0.6,0.2,0.8c0.1,0.2,0.2,0.4,0.3,0.5c0.1,0.1,0.3,0.2,0.5,0.2h1.5v6.2H98.5l0-6.2
					h2.1c0-1.9-0.4-2.8-1.2-2.8h-4.8c-0.2,0-0.3,0.1-0.4,0.2c-0.1,0.1-0.1,0.2-0.1,0.4c0,0.1,0,0.3,0,0.6c0,0.3,0.1,0.7,0.2,1.1
					c0.1,0.4,0.3,0.6,0.6,0.6h1.5v6.2H84.5v-6.2c0.5,0,1,0,1.4-0.1c0.9-0.2,1.6-0.8,1.9-1.6c0.1-0.3,0.3-1,0.7-2.2l3-11.8h-3.7v-6.1
					h17.3L110.4,103.1z M99.1,97.4l-2-8.8l-2,8.8H99.1z"/>
			</g>
			<g>
				<path class="st9" d="M132.6,110.9c-3.1,0-7.8,0-14.1,0v-6.3h2.7V88.8h-2.7v-6.1h17.7c1.4,0,2.7,0.1,3.8,0.4
					c1.1,0.3,2.1,0.7,2.9,1.3c0.8,0.6,1.5,1.4,1.9,2.4c0.4,1,0.6,2.2,0.6,3.7c0,1.7-0.5,3.1-1.6,4.1c-1.1,1.1-2.6,1.8-4.6,2.2
					c1.7,0.4,3,0.9,3.7,1.6c0.7,0.7,1.1,1.6,1.1,2.7v1.6c0,0.3,0,0.6,0.1,0.8c0.1,0.2,0.2,0.4,0.4,0.6c0.2,0.2,0.5,0.3,0.9,0.4
					c0.4,0.1,0.9,0.1,1.6,0.1v6.2h-4.6c-0.5,0-0.8,0-1.1,0c-0.3,0-0.6,0-1,0c-0.4,0-0.8-0.1-1.1-0.1c-0.3-0.1-0.6-0.1-1-0.2
					c-0.4-0.1-0.7-0.2-0.9-0.4c-0.2-0.1-0.5-0.3-0.7-0.6c-0.2-0.2-0.4-0.5-0.6-0.8c-0.1-0.3-0.3-0.6-0.3-1c-0.1-0.4-0.1-0.8-0.1-1.3
					V103c0-0.7,0-1.3-0.1-1.7c-0.1-0.5-0.2-0.9-0.4-1.3c-0.2-0.4-0.5-0.7-1-0.9c-0.4-0.2-1-0.3-1.7-0.3h-1.7v5.8h2.1V110.9z
					 M131.4,94.9c0.6,0,1.1,0,1.6-0.1c0.5-0.1,0.9-0.2,1.4-0.5c0.4-0.2,0.8-0.5,1-1c0.2-0.4,0.4-0.9,0.4-1.5c0-0.9-0.3-1.6-0.9-2.2
					c-0.6-0.5-1.4-0.8-2.4-0.8h-2.1v6.1H131.4z"/>
			</g>
		</g>
		<g>
			<g>
				<path class="st18" d="M33.8,83.5v-7.2c0-6.1,5-11,11.1-11h111.3c6.1,0,11.1,4.9,11.1,11v20.8l0,0c7.6,0,13.7-6.1,13.7-13.7v-7.2
					c0-13.6-11.1-24.7-24.8-24.7H44.9c-13.7,0-24.8,11.1-24.8,24.7v20.8l0,0C27.7,97.1,33.8,91,33.8,83.5z"/>
			</g>
		</g>
	</g>
</g>
</svg>
