<?xml version="1.0" encoding="utf-8"?>
<!-- Generator: Adobe Illustrator 25.4.1, SVG Export Plug-In . SVG Version: 6.00 Build 0)  -->
<svg version="1.1" id="Layer_1" xmlns="http://www.w3.org/2000/svg" xmlns:xlink="http://www.w3.org/1999/xlink" x="0px" y="0px"
	 viewBox="0 0 200 200" style="enable-background:new 0 0 200 200;" xml:space="preserve">
<style type="text/css">
	.st0{fill:url(#SVGID_1_);}
	.st1{fill:url(#SVGID_00000088854134946278957280000008891961525275126181_);}
	.st2{clip-path:url(#SVGID_00000142879503588533023620000007925364754322373514_);}
	.st3{fill:#8CF7F7;}
	.st4{fill:none;stroke:#303030;stroke-width:5.3333;stroke-linejoin:round;stroke-miterlimit:13.3333;}
	.st5{fill:url(#SVGID_00000012436676405957853180000001417943143754062764_);}
	.st6{clip-path:url(#SVGID_00000085212014867079267040000003458153844405780102_);}
	.st7{fill:#E3A6D6;}
	.st8{fill:url(#SVGID_00000060723033820741516680000013590501236333054876_);}
	.st9{clip-path:url(#SVGID_00000119812720756982631700000013054111606162616753_);}
	.st10{fill:url(#SVGID_00000122690514735629260680000002138885428486790835_);}
	.st11{clip-path:url(#SVGID_00000049913672765207133130000010520254499794025395_);}
	.st12{fill:url(#SVGID_00000029012377328537727840000008511933774726230961_);}
	.st13{clip-path:url(#SVGID_00000062894251866672472930000002901222302488356501_);}
	.st14{fill:none;stroke:#303030;stroke-width:5.3333;stroke-linecap:round;stroke-linejoin:round;stroke-miterlimit:13.3333;}
	.st15{fill:url(#SVGID_00000162351977179119168500000012996131304122230448_);}
	.st16{clip-path:url(#SVGID_00000153697733847662646240000003154425192134995093_);}
	.st17{fill:#00EFEF;}
	.st18{fill:url(#SVGID_00000003803548555967789580000015376783692923536563_);}
	.st19{clip-path:url(#SVGID_00000106121792822971229770000008794893926764702610_);}
	.st20{fill:#00E4E4;}
	.st21{fill:none;stroke:#303030;stroke-width:5.3333;stroke-miterlimit:13.3333;}
	.st22{opacity:0.2;clip-path:url(#SVGID_00000057837172376680484160000017580039454482223544_);}
	.st23{fill:#303030;}
	.st24{fill:url(#SVGID_00000023270793673573030600000005342652395426416306_);}
	.st25{fill:url(#SVGID_00000131368451891298939630000001081656590683961753_);}
	.st26{clip-path:url(#SVGID_00000156584034117667876170000005745938627340254879_);}
	.st27{fill:#CC67B9;}
	.st28{fill:url(#SVGID_00000135648523564067358280000008494537262618043789_);}
	.st29{clip-path:url(#SVGID_00000008829882586546872010000015624558269500867490_);}
	.st30{fill:url(#SVGID_00000174559659395875014000000014414658029693109141_);}
	.st31{clip-path:url(#SVGID_00000106848734681031065150000003691050414712912052_);}
	.st32{fill:#D887C7;}
	.st33{opacity:0.2;clip-path:url(#SVGID_00000070077795514099175420000016510034844331964827_);}
	.st34{fill:url(#SVGID_00000087414139611263199700000009414670869700088977_);}
	.st35{clip-path:url(#SVGID_00000127751635508511564920000013050180577520433597_);}
	.st36{fill:#00E4E4;stroke:#303030;stroke-width:5.3333;stroke-miterlimit:13.3333;}
	.st37{fill:url(#SVGID_00000176035523869333836360000011816348300681844150_);}
	.st38{clip-path:url(#SVGID_00000049207143091533734590000015685215033455092650_);}
	.st39{fill:#75F5F5;}
	.st40{fill:url(#SVGID_00000029025636948538721520000005755027974144307621_);}
	.st41{clip-path:url(#SVGID_00000019647669859597712000000002668973049154572937_);}
	.st42{fill:url(#SVGID_00000113326364996441503690000007414587718413916559_);}
	.st43{clip-path:url(#SVGID_00000179639170501136146070000012904539106503819672_);}
	.st44{fill:url(#SVGID_00000154417310409825417390000009990619111029083575_);}
	.st45{clip-path:url(#SVGID_00000157995590339540626400000008029156151600441513_);}
	.st46{opacity:0.2;clip-path:url(#SVGID_00000106110106894451073020000004166186095742382470_);}
	.st47{fill:url(#SVGID_00000113319648052874417620000015671439751578128050_);}
	.st48{fill:url(#SVGID_00000020360781879494099530000009337078297804420260_);}
	.st49{clip-path:url(#SVGID_00000143593887846004689450000017321465183940253075_);}
	.st50{fill:url(#SVGID_00000054231671498846172200000004396642666463229879_);}
	.st51{clip-path:url(#SVGID_00000093871268965678578050000012985454587413765041_);}
	.st52{fill:url(#SVGID_00000146491534413448004190000006574600403780376248_);}
	.st53{clip-path:url(#SVGID_00000118371342816226868500000001496895744124884127_);}
	.st54{fill:#00E4E4;stroke:#303030;stroke-width:5.3333;stroke-linejoin:round;stroke-miterlimit:13.3333;}
	.st55{fill:url(#SVGID_00000037657107584809415620000002129334616306107786_);}
	.st56{clip-path:url(#SVGID_00000124871837630168116740000014701573909936833680_);}
	.st57{fill:url(#SVGID_00000106858257943741209920000005986698743707265695_);}
	.st58{clip-path:url(#SVGID_00000031904144624776079350000002199593891042303365_);}
	.st59{fill:url(#SVGID_00000183948921566952871150000010462587381741275580_);}
	.st60{clip-path:url(#SVGID_00000067931311606123496490000012801678674997689271_);}
	.st61{opacity:0.2;clip-path:url(#SVGID_00000013164835364826891110000009643304513096514742_);}
	.st62{fill:url(#SVGID_00000145760355549736259410000009754566567522697097_);}
	.st63{fill:url(#SVGID_00000031182412164148797480000002748357032648575125_);}
	.st64{fill:url(#SVGID_00000008837891641463688440000011352822092988792704_);}
	.st65{clip-path:url(#SVGID_00000108309323024026559240000002638262787263493031_);}
	.st66{fill:url(#SVGID_00000085252860822925765650000004531662421935316128_);}
	.st67{fill:url(#SVGID_00000010991474362206589330000015929929262960289693_);}
	.st68{clip-path:url(#SVGID_00000132047295597340969760000002736802177990992266_);}
	.st69{fill:url(#SVGID_00000145030254923701883420000017716314800062267062_);}
	.st70{clip-path:url(#SVGID_00000150790312525251173550000013403772286525300099_);}
	.st71{fill:url(#SVGID_00000023975200075586291740000012548391091147334291_);}
	.st72{clip-path:url(#SVGID_00000155831292985194354720000015465318136264364199_);}
	.st73{opacity:0.2;clip-path:url(#SVGID_00000041998966630115573920000012919109034581295001_);}
	.st74{fill:url(#SVGID_00000097484593451711792920000007676549794978019502_);}
	.st75{fill:url(#SVGID_00000103980220855352775340000015966995430535211147_);}
	.st76{clip-path:url(#SVGID_00000036221301104688046930000003538941907726431643_);}
	.st77{fill:url(#SVGID_00000015325254295648538830000002710755922505440652_);}
	.st78{clip-path:url(#SVGID_00000086693077070623858770000017016522701883481262_);}
	.st79{fill:url(#SVGID_00000004512111773626954730000003630592702180453026_);}
	.st80{clip-path:url(#SVGID_00000132785457848570489720000016765643352226827692_);}
	.st81{fill:url(#SVGID_00000161628789018721795600000002427114227102645913_);}
	.st82{clip-path:url(#SVGID_00000128468944302059520730000000077425093448433580_);}
	.st83{fill:url(#SVGID_00000083084167788408329090000003835002807762509722_);}
	.st84{clip-path:url(#SVGID_00000054266515859069128670000004685554242972045203_);}
	.st85{fill:url(#SVGID_00000000188892267164167270000010195018287861681809_);}
	.st86{clip-path:url(#SVGID_00000159440468402812266790000015708386105611867318_);}
	.st87{fill:url(#SVGID_00000151501216207303786040000016141368809663984559_);}
	.st88{clip-path:url(#SVGID_00000078006246752635651930000013053556981008754622_);}
	.st89{opacity:0.2;clip-path:url(#SVGID_00000068653674325510001240000003756712685070089379_);}
	.st90{fill:url(#SVGID_00000152946277894273478380000010741485289542312122_);}
	.st91{fill:url(#SVGID_00000163753429806008351760000003757543613928418177_);}
	.st92{fill:url(#SVGID_00000005979951523847059340000001906327561641151925_);}
	.st93{fill:url(#SVGID_00000108277599637030680780000016608152145342637242_);}
	.st94{fill:url(#SVGID_00000135650736291479456740000000860602412935168674_);}
	.st95{clip-path:url(#SVGID_00000061455737395759509470000006549375924546442423_);}
	.st96{fill:url(#SVGID_00000092457313371027889610000010508233560409104306_);}
	.st97{clip-path:url(#SVGID_00000059997046110524271080000004387478305365486502_);}
	.st98{fill:url(#SVGID_00000158001206033112426200000011162381061623080871_);}
	.st99{clip-path:url(#SVGID_00000036954363591625520900000002045639833836026026_);}
	.st100{fill:url(#SVGID_00000176730338014440995870000014750951094416631224_);}
	.st101{clip-path:url(#SVGID_00000142875280193083316010000009273344631949666495_);}
	.st102{fill:none;stroke:#E3A6D6;stroke-width:5.3333;stroke-linecap:round;stroke-linejoin:round;stroke-miterlimit:13.3333;}
	.st103{fill:url(#SVGID_00000115489751588741363860000011183026392423904408_);}
	.st104{clip-path:url(#SVGID_00000129890725768540299940000002561328839844457898_);}
	.st105{fill:url(#SVGID_00000026137091693481255560000015162469472607823754_);}
	.st106{clip-path:url(#SVGID_00000170243580004577726760000011414886801615175082_);}
	.st107{fill:#FFFFFF;}
	.st108{opacity:0.2;clip-path:url(#SVGID_00000078030499399465568710000001587335726198373037_);}
	.st109{fill:url(#SVGID_00000147935306733330490210000011916411590415068843_);}
	.st110{fill:url(#SVGID_00000019660518259359520920000016419791846340715924_);}
	.st111{fill:url(#SVGID_00000080897251762607948720000010950610452174806419_);}
	.st112{fill:url(#SVGID_00000026150094743320230220000017247947949073523588_);}
	.st113{clip-path:url(#SVGID_00000013151541115830391390000013125278149543069108_);}
	.st114{fill:#CC67B9;stroke:#303030;stroke-width:5.3333;stroke-linejoin:round;stroke-miterlimit:13.3333;}
	.st115{fill:url(#SVGID_00000044151492285100640000000003694244146569025457_);}
	.st116{clip-path:url(#SVGID_00000016762058817075317090000013325520719714581436_);}
	.st117{fill:url(#SVGID_00000110438946381940810460000011914962733436150184_);}
	.st118{clip-path:url(#SVGID_00000171710788747755558800000008915257974567307650_);}
	.st119{fill:url(#SVGID_00000113340020685104332700000014538206684265439167_);}
	.st120{clip-path:url(#SVGID_00000130623576749514841990000014683188585219135881_);}
	.st121{fill:url(#SVGID_00000031187542398629816960000015513213563778828426_);}
	.st122{clip-path:url(#SVGID_00000051364455792889272260000004196306555921373062_);}
	.st123{fill:url(#SVGID_00000170976584456890294220000006881752406242939323_);}
	.st124{clip-path:url(#SVGID_00000176724199409590770650000010125379556529013396_);}
	.st125{fill:url(#SVGID_00000050623973271871429480000003999554185485346723_);}
	.st126{clip-path:url(#SVGID_00000127038224820091930640000004920701519764563103_);}
	.st127{fill:url(#SVGID_00000012470860921877908340000005422341724131476904_);}
	.st128{clip-path:url(#SVGID_00000048470069424361425190000017804785614261244578_);}
	.st129{fill:url(#SVGID_00000043431633912846430730000004920039581762534021_);}
	.st130{clip-path:url(#SVGID_00000028293695727905271380000004838031241747394449_);}
	.st131{fill:url(#SVGID_00000164480751192470821680000011336611563543927217_);}
	.st132{clip-path:url(#SVGID_00000003096594661155541860000017450002186745952408_);}
	.st133{fill:url(#SVGID_00000064333567194482549920000015106517704633922707_);}
	.st134{clip-path:url(#SVGID_00000171716857796472055920000016671434097383037347_);}
	.st135{fill:url(#SVGID_00000072973321699113747920000005950203465675654031_);}
	.st136{clip-path:url(#SVGID_00000020393986869788143770000003473850785676456832_);}
	.st137{opacity:0.2;clip-path:url(#SVGID_00000085965366014667534020000014643833659624805269_);}
	.st138{fill:url(#SVGID_00000023279915356332057590000010949962351565496460_);}
	.st139{fill:#A796A8;}
	.st140{fill:#D3C2D2;}
	.st141{fill:#EFE8EF;}
	.st142{fill:#5A4D5B;}
	.st143{fill:#716172;}
	.st144{fill:#B0EEFF;}
	.st145{fill:#4A8BF0;}
	.st146{fill:#67C2FF;}
	.st147{fill:#4E886D;}
	.st148{fill:#B0CF43;}
	.st149{fill:#70A950;}
	.st150{fill:#EBE858;}
	.st151{fill:#E53557;}
	.st152{fill:#AF1E4B;}
	.st153{fill:#422F38;}
	.st154{fill:#F99027;}
	.st155{fill:#FFC840;}
	.st156{fill:#DF3359;}
	.st157{fill:#FFC5C5;}
	.st158{fill:#FA5262;}
	.st159{fill:#FF9BB2;}
	.st160{fill:#FF826F;}
	.st161{fill:#FFE783;}
	.st162{fill:#FFD45A;}
	.st163{fill:#F28033;}
	.st164{fill:#D56132;}
	.st165{fill:#FC9A2C;}
	.st166{fill:#E0692B;}
	.st167{fill:#FFDE6F;}
</style>
<g>
	<g>
		<defs>
			<rect id="SVGID_00000179606027176924345650000009213579167112324251_" x="426.2" y="-271.4" width="200" height="200"/>
		</defs>
		<clipPath id="SVGID_00000108997809619018339340000011559783789533068212_">
			<use xlink:href="#SVGID_00000179606027176924345650000009213579167112324251_"  style="overflow:visible;"/>
		</clipPath>
		
			<g transform="matrix(1.33333 0 0 -1.33333 0 200)" style="clip-path:url(#SVGID_00000108997809619018339340000011559783789533068212_);">
			<g>
				<defs>
					<rect id="SVGID_00000116932859250032153220000002275202540331423633_" x="-70.7" y="38.5" width="1066.7" height="800"/>
				</defs>
				<clipPath id="SVGID_00000132050594591127793050000012322049149678878893_">
					<use xlink:href="#SVGID_00000116932859250032153220000002275202540331423633_"  style="overflow:visible;"/>
				</clipPath>
				<g style="opacity:0.2;clip-path:url(#SVGID_00000132050594591127793050000012322049149678878893_);">
					<path class="st23" d="M862.7,738.5h-800v-600h800V738.5z M857.7,143.5h-790v590h790V143.5z"/>
				</g>
			</g>
		</g>
	</g>
</g>
<g>
	<g>
		<defs>
			<rect id="SVGID_00000178195066705917269580000004425529125499212979_" x="212.9" y="-271.4" width="200" height="200"/>
		</defs>
		<clipPath id="SVGID_00000078747259403855939270000000133373764493702572_">
			<use xlink:href="#SVGID_00000178195066705917269580000004425529125499212979_"  style="overflow:visible;"/>
		</clipPath>
		
			<g transform="matrix(1.33333 0 0 -1.33333 0 200)" style="clip-path:url(#SVGID_00000078747259403855939270000000133373764493702572_);">
			<g>
				<defs>
					<rect id="SVGID_00000130638984572967184270000005790943845643243678_" x="-550.6" y="38.5" width="1066.7" height="800"/>
				</defs>
				<clipPath id="SVGID_00000177477101825664843760000017744964877556178095_">
					<use xlink:href="#SVGID_00000130638984572967184270000005790943845643243678_"  style="overflow:visible;"/>
				</clipPath>
				<g style="opacity:0.2;clip-path:url(#SVGID_00000177477101825664843760000017744964877556178095_);">
					<path class="st23" d="M382.7,738.5h-800v-600h800V738.5z M377.7,143.5h-790v590h790V143.5z"/>
				</g>
			</g>
		</g>
	</g>
</g>
<g>
	<g>
		<defs>
			<rect id="SVGID_00000132080197235642320370000009909708128545551271_" x="212.9" y="-484.7" width="200" height="200"/>
		</defs>
		<clipPath id="SVGID_00000031204796391782687830000016420298273312697512_">
			<use xlink:href="#SVGID_00000132080197235642320370000009909708128545551271_"  style="overflow:visible;"/>
		</clipPath>
		
			<g transform="matrix(1.33333 0 0 -1.33333 0 200)" style="clip-path:url(#SVGID_00000031204796391782687830000016420298273312697512_);">
			<g>
				<defs>
					<rect id="SVGID_00000116943906232567788380000004812915856187836821_" x="-230.7" y="38.5" width="1066.7" height="800"/>
				</defs>
				<clipPath id="SVGID_00000093886929861298020560000005704752028349431459_">
					<use xlink:href="#SVGID_00000116943906232567788380000004812915856187836821_"  style="overflow:visible;"/>
				</clipPath>
				<g style="opacity:0.2;clip-path:url(#SVGID_00000093886929861298020560000005704752028349431459_);">
					<path class="st23" d="M702.7,738.5h-800v-600h800V738.5z M697.7,143.5h-790v590h790V143.5z"/>
				</g>
			</g>
		</g>
	</g>
</g>
<g>
	<g>
		<defs>
			<rect id="SVGID_00000026128840348340641370000007346816347137179575_" x="426.2" y="-484.7" width="200" height="200"/>
		</defs>
		<clipPath id="SVGID_00000000911653179305538680000010444832747058617251_">
			<use xlink:href="#SVGID_00000026128840348340641370000007346816347137179575_"  style="overflow:visible;"/>
		</clipPath>
		
			<g transform="matrix(1.33333 0 0 -1.33333 0 200)" style="clip-path:url(#SVGID_00000000911653179305538680000010444832747058617251_);">
			<g>
				<defs>
					<rect id="SVGID_00000000200096850624441620000005468411821103672217_" x="-230.7" y="38.5" width="1066.7" height="800"/>
				</defs>
				<clipPath id="SVGID_00000105424669829529713510000005186598200553056924_">
					<use xlink:href="#SVGID_00000000200096850624441620000005468411821103672217_"  style="overflow:visible;"/>
				</clipPath>
				<g style="opacity:0.2;clip-path:url(#SVGID_00000105424669829529713510000005186598200553056924_);">
					<path class="st23" d="M702.7,738.5h-800v-600h800V738.5z M697.7,143.5h-790v590h790V143.5z"/>
				</g>
			</g>
		</g>
	</g>
</g>
<linearGradient id="SVGID_1_" gradientUnits="userSpaceOnUse" x1="702.9374" y1="86.7518" x2="703.9374" y2="86.7518" gradientTransform="matrix(0 -799.998 -799.998 0 69501.25 562848.5)">
	<stop  offset="0" style="stop-color:#D887C7"/>
	<stop  offset="0.229" style="stop-color:#D887C7"/>
	<stop  offset="1" style="stop-color:#00E4E4"/>
</linearGradient>
<path class="st0" d="M0,200h200V0H0V200z"/>
<g>
	<defs>
		<rect id="SVGID_00000132796982526429018190000003549741954156844206_" x="1.3" y="-271.4" width="200" height="200"/>
	</defs>
	<clipPath id="SVGID_00000128458659597296604650000013880541559120070023_">
		<use xlink:href="#SVGID_00000132796982526429018190000003549741954156844206_"  style="overflow:visible;"/>
	</clipPath>
	
		<g transform="matrix(1.33333 0 0 -1.33333 0 200)" style="clip-path:url(#SVGID_00000128458659597296604650000013880541559120070023_);">
		<g>
			<defs>
				<rect id="SVGID_00000037686103014712979380000008880498093071300741_" x="-709.4" y="-121.5" width="1066.7" height="800"/>
			</defs>
			<clipPath id="SVGID_00000049911856978844076180000011751565748540379573_">
				<use xlink:href="#SVGID_00000037686103014712979380000008880498093071300741_"  style="overflow:visible;"/>
			</clipPath>
			<g style="opacity:0.2;clip-path:url(#SVGID_00000049911856978844076180000011751565748540379573_);">
				<path class="st23" d="M224,578.5h-800v-600h800V578.5z M219-16.5h-790v590h790V-16.5z"/>
			</g>
		</g>
	</g>
</g>
<g>
	<g>
		<g>
			<path class="st147" d="M63.6,174.4c-2.3,0-4.4-1.6-4.9-4C50,130.6,73.5,106.4,92,91.7c2.2-1.7,5.3-1.4,7.1,0.8
				c1.7,2.2,1.4,5.3-0.8,7.1c-26.3,21-35.5,42.2-29.7,68.8c0.6,2.7-1.1,5.4-3.8,6C64.3,174.4,63.9,174.4,63.6,174.4z"/>
		</g>
	</g>
	<g>
		<g>
			<path class="st147" d="M137.5,129.9c-1.6-5.9-6.1-11.7-14-18.5c-4.9-4.2-9.6-7.5-9.8-7.6l-6.4-4.4c-0.6-0.4-1-1-1-1.7l0,0
				c-0.2-1.5,1.1-2.8,2.7-2.7l0,0c1.3,0.1,2.6,0.7,3.6,1.5l4.7,4c0.1,0.1,3,2.5,7,5.4c3.2,2.3,6.4,4.4,9.5,6.1
				c6.2,3.4,11.4,4.9,16.2,4.6c0,0,0,0,0.1,0c0.3,0,0.5,0,0.8-0.1h0h0c0,0,0.1,0,0.1,0c8.4-0.8,14.6-8.2,13.9-16.6v0v0
				c0-0.1,0-0.1,0-0.2c0-0.1,0-0.3,0-0.4c0-0.1,0-0.1,0-0.2c0-0.1,0-0.3-0.1-0.4c0,0,0-0.1,0-0.1c-1.1-6-5.5-10.6-11.2-12.1
				c0,0,0,0,0,0c0.2-0.1,0.3-0.2,0.5-0.2c0.1,0,0.1-0.1,0.2-0.1c0.1-0.1,0.2-0.1,0.3-0.2c0.1,0,0.1-0.1,0.2-0.1
				c0.1-0.1,0.2-0.1,0.3-0.2c0.1,0,0.1-0.1,0.2-0.1c0.1-0.1,0.2-0.1,0.3-0.2c0.1,0,0.1-0.1,0.2-0.1c0.1-0.1,0.2-0.1,0.3-0.2
				c0.1,0,0.1-0.1,0.2-0.2c0.1-0.1,0.2-0.1,0.2-0.2c0.1-0.1,0.1-0.1,0.2-0.2c0.1-0.1,0.2-0.1,0.2-0.2c0.1-0.1,0.1-0.1,0.2-0.2
				c0.1-0.1,0.2-0.1,0.2-0.2c0.1-0.1,0.1-0.1,0.2-0.2c0.1-0.1,0.1-0.1,0.2-0.2c0.1-0.1,0.1-0.1,0.2-0.2c0.1-0.1,0.1-0.1,0.2-0.2
				c0.1-0.1,0.1-0.1,0.2-0.2c0.1-0.1,0.1-0.2,0.2-0.2c0.1-0.1,0.1-0.1,0.2-0.2c0.1-0.1,0.1-0.2,0.2-0.2c0.1-0.1,0.1-0.1,0.2-0.2
				c0.1-0.1,0.1-0.2,0.2-0.2c0.1-0.1,0.1-0.1,0.2-0.2c0.1-0.1,0.1-0.2,0.2-0.3c0-0.1,0.1-0.1,0.1-0.2c0.1-0.1,0.1-0.2,0.2-0.3
				c0-0.1,0.1-0.1,0.1-0.2c0.1-0.1,0.1-0.2,0.2-0.3c0-0.1,0.1-0.1,0.1-0.2c0.1-0.1,0.1-0.3,0.2-0.4c0,0,0-0.1,0.1-0.1
				c0.1-0.2,0.2-0.3,0.3-0.5c0,0,0-0.1,0.1-0.1c0.1-0.1,0.1-0.2,0.2-0.4c0-0.1,0.1-0.1,0.1-0.2c0-0.1,0.1-0.2,0.1-0.3
				c0-0.1,0.1-0.1,0.1-0.2c0-0.1,0.1-0.2,0.1-0.3c0-0.1,0.1-0.2,0.1-0.2c0-0.1,0.1-0.2,0.1-0.3c0-0.1,0-0.2,0.1-0.2
				c0-0.1,0.1-0.2,0.1-0.3c0-0.1,0-0.2,0.1-0.2c0-0.1,0.1-0.2,0.1-0.3c0-0.1,0-0.2,0.1-0.3c0-0.1,0-0.2,0.1-0.3c0-0.1,0-0.2,0-0.3
				c0-0.1,0-0.2,0.1-0.3c0-0.1,0-0.2,0-0.3c0-0.1,0-0.2,0-0.3c0-0.1,0-0.2,0-0.3c0-0.1,0-0.2,0-0.3c0-0.1,0-0.2,0-0.3
				c0-0.1,0-0.2,0-0.3c0-0.1,0-0.2,0-0.3c0-0.1,0-0.2,0-0.3c0-0.1,0-0.2,0-0.3c0,0,0-0.1,0-0.1c0-0.1,0-0.1,0-0.2c0-0.2,0-0.4,0-0.5
				c0-0.1,0-0.1,0-0.2c0-0.1,0-0.1,0-0.2c0-0.1,0-0.2,0-0.3c0-0.1,0-0.2,0-0.3c0-0.2-0.1-0.4-0.1-0.6c0,0,0-0.1,0-0.1
				c-1-5.5-4.8-9.8-9.8-11.7c-0.2-0.1-0.3-0.1-0.5-0.2c-0.1,0-0.1,0-0.2-0.1c-1.4-0.5-2.9-0.7-4.4-0.7c0,0,0,0-0.1,0
				c-0.2,0-0.4,0-0.6,0c-0.1,0-0.2,0-0.2,0c-0.1,0-0.1,0-0.2,0c-0.1,0-0.2,0-0.3,0c-0.1,0-0.1,0-0.2,0c-0.1,0-0.1,0-0.2,0
				c-0.1,0-0.1,0-0.2,0c-5.7,0.6-11.5,3.7-18.4,9.8c-2.1,1.8-4.2,3.8-6.2,5.9c0,0-0.1,0.1-0.1,0.1c-3,3.1-5.1,5.6-5.2,5.7l-4.8,5.7
				c-0.7,0.8-1.8,1.3-2.9,1.2l0,0c-1.6-0.2-2.8-1.4-3-2.9l0-0.2c-0.1-1.1,0.3-2.2,1.2-2.9l5.6-4.7c0.2-0.2,4.6-3.8,9.1-8.5
				c7.3-7.5,11.2-13.7,12.3-19.7c1.7-8.9-4.3-17.5-13.4-18.5c-6.8-0.7-13,3-15.7,8.8c-1.6-6.2-7.1-10.9-13.9-11.3
				C81,25,73.5,32.5,73.6,41.6c0.1,6.1,2.8,12.8,8.7,21.5c3.6,5.3,7.3,9.7,7.5,9.9l4.1,4.9c0.8,1,1.4,2.2,1.5,3.5l0,0
				c0.2,1.5-1.1,2.8-2.7,2.7l0,0c-0.7-0.1-1.3-0.4-1.7-1l-4.6-6.5c-0.1-0.2-3.4-4.9-7.7-9.7c-6.9-7.9-12.7-12.3-18.6-14
				c-8.9-2.5-17.9,2.6-19.7,11.6c-1.3,6.7,1.9,13.1,7.4,16.3c-6.3,1.1-11.5,6.1-12.6,12.8c-1.4,9.1,5.3,16.9,14.5,17.6
				c6.1,0.5,13.1-1.7,22.3-6.8c5.6-3.1,10.4-6.4,10.6-6.5l5.6-3.9c1.1-0.8,2.4-1.1,3.7-1l0.3,0c2.6,0.3,4.7,2.3,4.9,4.9l0,0
				c0.1,1.3-0.2,2.6-1,3.7l-4,5.7c-0.1,0.2-3.4,4.9-6.6,10.5c-5.1,9.2-7.3,16.1-6.8,22.2c0.7,9,8.8,15.8,17.7,14.5
				c6.7-1,11.7-6.2,12.8-12.5c3.2,5.5,9.7,8.7,16.4,7.4C134.8,147.7,139.9,138.7,137.5,129.9z"/>
		</g>
	</g>
	<g>
		<g>
			<g>
				<path class="st148" d="M96.4,154.7c6.8-1,11.9-6.2,13-12.5l-5.1-29.1c-1.2-6.8-10.1-8.6-13.9-2.8c-7.1,10.8-13,22.3-11.3,31.9
					C80.6,150.4,88.1,155.9,96.4,154.7z"/>
			</g>
		</g>
		<g>
			<g>
				<path class="st149" d="M109.4,142.2c3,5.1,8.8,8.3,15,7.6c8.7-0.9,15-9,13.6-17.6c-1.6-9.7-11.4-18.8-21.7-26.5
					c-5.5-4.1-13.2,0.6-12,7.4L109.4,142.2L109.4,142.2z"/>
			</g>
		</g>
	</g>
	<g>
		<g>
			<g>
				<path class="st148" d="M89.8,25.6c6.9,0.4,12.4,5.1,14.1,11.4l-2.6,29.4c-0.6,6.8-9.3,9.4-13.6,4c-8-10.2-14.9-21.1-14-30.8
					C74.4,31.3,81.5,25.2,89.8,25.6z"/>
			</g>
		</g>
		<g>
			<g>
				<path class="st149" d="M103.9,37c2.5-5.4,8-9,14.3-8.9c8.7,0.2,15.7,7.7,15.1,16.4c-0.7,9.8-9.7,19.7-19.3,28.2
					c-5.1,4.6-13.2,0.5-12.6-6.3L103.9,37L103.9,37z"/>
			</g>
		</g>
	</g>
	<g>
		<g>
			<g>
				<path class="st149" d="M164.9,100.3c-0.4-6.9-5.2-12.4-11.4-14l-29.5,2.6c-6.9,0.6-9.5,9.3-4,13.5c10.2,8,21.2,14.8,31,14
					C159.2,115.7,165.3,108.6,164.9,100.3z"/>
			</g>
		</g>
		<g>
			<g>
				<path class="st148" d="M153.5,86.3c5.4-2.5,9-8,8.9-14.2c-0.2-8.7-7.7-15.6-16.5-15c-9.8,0.7-19.8,9.7-28.4,19.2
					c-4.6,5.1-0.5,13.2,6.3,12.6L153.5,86.3L153.5,86.3z"/>
			</g>
		</g>
	</g>
	<g>
		<g>
			<g>
				<path class="st149" d="M35.2,93.8c1-6.8,6.2-11.9,12.6-13L77,86c6.8,1.2,8.6,10.1,2.8,13.8C69,106.8,57.4,112.7,47.8,111
					C39.6,109.6,34.1,102.1,35.2,93.8z"/>
			</g>
		</g>
		<g>
			<g>
				<path class="st148" d="M47.8,80.8c-5.2-3-8.3-8.8-7.6-14.9c0.9-8.7,9.1-14.9,17.7-13.5C67.7,54,76.8,63.8,84.5,74
					c4.1,5.5-0.6,13.2-7.4,12L47.8,80.8L47.8,80.8z"/>
			</g>
		</g>
	</g>
	<g>
		<g>
			<g>
				<path class="st150" d="M88.8,52.2L88.8,52.2c-3.9,0-7.1-3.1-7.1-7v-3.6c0-3.9,3.1-7,7-7h0c3.9,0,7,3.1,7,7v3.6
					C95.8,49.1,92.7,52.2,88.8,52.2z"/>
			</g>
		</g>
	</g>
	<g>
		<g>
			<g>
				<path class="st150" d="M66.4,70.6L66.4,70.6c-1,3.7-4.8,6-8.6,5l-3.6-0.9c-3.8-1-6-4.8-5.1-8.6l0,0c1-3.7,4.8-6,8.6-5l3.6,0.9
					C65.1,63,67.3,66.9,66.4,70.6z"/>
			</g>
		</g>
	</g>
</g>
</svg>
