<?xml version="1.0" encoding="utf-8"?>
<!-- Generator: Adobe Illustrator 25.4.1, SVG Export Plug-In . SVG Version: 6.00 Build 0)  -->
<svg version="1.1" id="Layer_1" xmlns="http://www.w3.org/2000/svg" xmlns:xlink="http://www.w3.org/1999/xlink" x="0px" y="0px"
	 viewBox="0 0 200 200" style="enable-background:new 0 0 200 200;" xml:space="preserve">
<style type="text/css">
	.st0{fill:url(#SVGID_1_);}
	.st1{fill:url(#SVGID_00000078004817029329936760000007458693688832770441_);}
	.st2{clip-path:url(#SVGID_00000137843094764967866520000008826670258746186672_);}
	.st3{fill:#8CF7F7;}
	.st4{fill:none;stroke:#303030;stroke-width:5.3333;stroke-linejoin:round;stroke-miterlimit:13.3333;}
	.st5{fill:url(#SVGID_00000139976739404359086380000004976558745747244455_);}
	.st6{clip-path:url(#SVGID_00000096743839271607974280000005503718888379696045_);}
	.st7{fill:#E3A6D6;}
	.st8{fill:url(#SVGID_00000126293862806531099600000017866243826752515491_);}
	.st9{clip-path:url(#SVGID_00000018199253237720897360000011314372559817959853_);}
	.st10{fill:url(#SVGID_00000100364143437785668110000005030642749535513780_);}
	.st11{clip-path:url(#SVGID_00000120532620363501271020000004136887343391501473_);}
	.st12{fill:url(#SVGID_00000157308431451959520390000014977969766742112187_);}
	.st13{clip-path:url(#SVGID_00000111884862459064727430000014942482253207715474_);}
	.st14{fill:none;stroke:#303030;stroke-width:5.3333;stroke-linecap:round;stroke-linejoin:round;stroke-miterlimit:13.3333;}
	.st15{fill:url(#SVGID_00000057867847217098915370000011960589817042162592_);}
	.st16{clip-path:url(#SVGID_00000167378502800068208480000011727028758008403367_);}
	.st17{fill:#00EFEF;}
	.st18{fill:url(#SVGID_00000103985659677553372650000004738829450265075333_);}
	.st19{clip-path:url(#SVGID_00000039133490791902698110000004870120376132076201_);}
	.st20{fill:#00E4E4;}
	.st21{fill:none;stroke:#303030;stroke-width:5.3333;stroke-miterlimit:13.3333;}
	.st22{opacity:0.2;clip-path:url(#SVGID_00000131347225328167244230000012599783202402795401_);}
	.st23{fill:#303030;}
	.st24{fill:url(#SVGID_00000108271332384900945050000014331246008748804239_);}
	.st25{fill:url(#SVGID_00000142887712347417113240000000297359983995637893_);}
	.st26{clip-path:url(#SVGID_00000068672498276390742660000009687318857870662051_);}
	.st27{fill:#CC67B9;}
	.st28{fill:url(#SVGID_00000114075949334448852520000017355375076359621018_);}
	.st29{clip-path:url(#SVGID_00000039824407930103830990000008426167176646859143_);}
	.st30{fill:url(#SVGID_00000135662539834051888400000000668406647518003357_);}
	.st31{clip-path:url(#SVGID_00000127009199028541753990000001117820102147677585_);}
	.st32{fill:#D887C7;}
	.st33{opacity:0.2;clip-path:url(#SVGID_00000081639785410796728920000012199300187173398410_);}
	.st34{fill:url(#SVGID_00000003808323759533436070000003493092776113019572_);}
	.st35{clip-path:url(#SVGID_00000049908987246274322470000002085970729836486545_);}
	.st36{fill:#00E4E4;stroke:#303030;stroke-width:5.3333;stroke-miterlimit:13.3333;}
	.st37{fill:url(#SVGID_00000155139840228114631740000013858006010948833944_);}
	.st38{clip-path:url(#SVGID_00000077283212885755778830000002019396481827550107_);}
	.st39{fill:#75F5F5;}
	.st40{fill:url(#SVGID_00000155146268876422028620000011559825606008016555_);}
	.st41{clip-path:url(#SVGID_00000147913692809788393840000007934733030867713156_);}
	.st42{fill:url(#SVGID_00000007412279986512909240000008391015729913058959_);}
	.st43{clip-path:url(#SVGID_00000099628625185728800770000015523218662788162476_);}
	.st44{fill:url(#SVGID_00000147924297833079427130000004814619053669635214_);}
	.st45{clip-path:url(#SVGID_00000173138986577976416680000012683862115683678651_);}
	.st46{opacity:0.2;clip-path:url(#SVGID_00000122684052700330856790000005730091010593915827_);}
	.st47{fill:url(#SVGID_00000040548249093030426890000013641061301403656579_);}
	.st48{fill:url(#SVGID_00000149363968494817410260000000575743504268760202_);}
	.st49{clip-path:url(#SVGID_00000035512495776698425500000003644672311938349755_);}
	.st50{fill:url(#SVGID_00000030488636125267486610000005508656336734139553_);}
	.st51{clip-path:url(#SVGID_00000047759250455284038660000016443284147913858977_);}
	.st52{fill:url(#SVGID_00000080193013999949042820000015502541351313934263_);}
	.st53{clip-path:url(#SVGID_00000148657300283214859260000015996528602082244246_);}
	.st54{fill:#00E4E4;stroke:#303030;stroke-width:5.3333;stroke-linejoin:round;stroke-miterlimit:13.3333;}
	.st55{fill:url(#SVGID_00000098190575348502820870000009627875492527191208_);}
	.st56{clip-path:url(#SVGID_00000088122617745162132790000001122415378480734611_);}
	.st57{fill:url(#SVGID_00000120547454225631588080000013251830838337151106_);}
	.st58{clip-path:url(#SVGID_00000171711644887679444730000012461831761904836528_);}
	.st59{fill:url(#SVGID_00000105395687255878072340000012968286599673066397_);}
	.st60{clip-path:url(#SVGID_00000101792590346624571360000006022624532435790721_);}
	.st61{opacity:0.2;clip-path:url(#SVGID_00000029735227838972828640000006270950830935122872_);}
	.st62{fill:url(#SVGID_00000155113228631634544920000005572057487519710652_);}
	.st63{fill:url(#SVGID_00000011713888882145892800000015481869522668703155_);}
	.st64{fill:url(#SVGID_00000071535550113535579540000016909007103335723942_);}
	.st65{clip-path:url(#SVGID_00000016769981266157419650000004467516890925626286_);}
	.st66{fill:url(#SVGID_00000050628543627848450690000017573637199701363845_);}
	.st67{fill:url(#SVGID_00000062898614666571384900000018198215515683801506_);}
	.st68{clip-path:url(#SVGID_00000039123155737645911170000016055808631167740300_);}
	.st69{fill:url(#SVGID_00000124121343046763548350000010896000070184815794_);}
	.st70{clip-path:url(#SVGID_00000134212676967928908290000010892435461996063410_);}
	.st71{fill:url(#SVGID_00000085237255138005240640000001065107252042152118_);}
	.st72{clip-path:url(#SVGID_00000025436834333618757990000001554836628318945973_);}
	.st73{opacity:0.2;clip-path:url(#SVGID_00000033370759881374298260000006623173855758913921_);}
	.st74{fill:url(#SVGID_00000127736896657370978260000001624094887979712694_);}
	.st75{fill:url(#SVGID_00000168828698642891994210000002706701605965478045_);}
	.st76{clip-path:url(#SVGID_00000012432740001129336620000004305546695005294209_);}
	.st77{fill:url(#SVGID_00000005971828220888209910000006347890968673036673_);}
	.st78{clip-path:url(#SVGID_00000140009935217811228340000003622050401687837876_);}
	.st79{fill:url(#SVGID_00000044169185935747546970000010557181898112012442_);}
	.st80{clip-path:url(#SVGID_00000062189880384794799250000015146311630824878499_);}
	.st81{fill:url(#SVGID_00000157291494513903638490000009809215736829680786_);}
	.st82{clip-path:url(#SVGID_00000114043935927070028410000013675968705145485220_);}
	.st83{fill:url(#SVGID_00000155145261006276700470000009147299481050156188_);}
	.st84{clip-path:url(#SVGID_00000093882977310143797470000014245144123694333576_);}
	.st85{fill:url(#SVGID_00000131366023785527009540000003037393189249211820_);}
	.st86{clip-path:url(#SVGID_00000129181006446627251470000005961141833452094141_);}
	.st87{fill:url(#SVGID_00000134215629968521012090000015515818762879719815_);}
	.st88{clip-path:url(#SVGID_00000042011480752227178320000006450096863283466430_);}
	.st89{opacity:0.2;clip-path:url(#SVGID_00000168079239950278669930000011694109750858281388_);}
	.st90{fill:url(#SVGID_00000083082578169732707580000006219506476447038605_);}
	.st91{fill:url(#SVGID_00000170250812654499328390000010114040403163786898_);}
	.st92{fill:url(#SVGID_00000025407119128032593340000001959730281106472630_);}
	.st93{fill:url(#SVGID_00000042711173909588324430000009813064215502623901_);}
	.st94{fill:url(#SVGID_00000126321511164895476320000016924725204179123374_);}
	.st95{clip-path:url(#SVGID_00000088134820611277503640000009481112942923377052_);}
	.st96{fill:url(#SVGID_00000095334231941352648120000012647344628635239043_);}
	.st97{clip-path:url(#SVGID_00000157297155458650401440000009640695157940805764_);}
	.st98{fill:url(#SVGID_00000026156949121511037280000017012525134960639160_);}
	.st99{clip-path:url(#SVGID_00000100361456355311606030000015009056703290646444_);}
	.st100{fill:url(#SVGID_00000128481012682813609960000006163890662809251730_);}
	.st101{clip-path:url(#SVGID_00000079472021053106880650000008055296065300174014_);}
	.st102{fill:none;stroke:#E3A6D6;stroke-width:5.3333;stroke-linecap:round;stroke-linejoin:round;stroke-miterlimit:13.3333;}
	.st103{fill:url(#SVGID_00000009582760118170031570000000796598364704078012_);}
	.st104{clip-path:url(#SVGID_00000077319830016395640740000018001346258877215126_);}
	.st105{fill:url(#SVGID_00000080171301289389761850000007625834177810422178_);}
	.st106{clip-path:url(#SVGID_00000093155192637778600050000002393294012008344989_);}
	.st107{fill:#FFFFFF;}
	.st108{opacity:0.2;clip-path:url(#SVGID_00000136377250309601261480000009875245950175109295_);}
	.st109{fill:url(#SVGID_00000079458502356946604690000013126535363065211548_);}
	.st110{fill:url(#SVGID_00000130637704612686209950000013048174697415365510_);}
	.st111{fill:url(#SVGID_00000175316456180947615950000014183572431927250305_);}
	.st112{fill:url(#SVGID_00000003827626703425169070000017110808078118484884_);}
	.st113{clip-path:url(#SVGID_00000086661151113994999620000002786888045589598115_);}
	.st114{fill:#CC67B9;stroke:#303030;stroke-width:5.3333;stroke-linejoin:round;stroke-miterlimit:13.3333;}
	.st115{fill:url(#SVGID_00000083769416728718837160000013227578301652886956_);}
	.st116{clip-path:url(#SVGID_00000106137235861574145890000016191363744099703477_);}
	.st117{fill:url(#SVGID_00000016754863310955950900000014210973366129247916_);}
	.st118{clip-path:url(#SVGID_00000141441516640085351280000010708951858160028805_);}
	.st119{fill:url(#SVGID_00000080193126602941405910000006642702825479982497_);}
	.st120{clip-path:url(#SVGID_00000038400023870492715660000016415398627824720559_);}
	.st121{fill:url(#SVGID_00000001625769247237325170000009457826268830811806_);}
	.st122{clip-path:url(#SVGID_00000117660613830534100010000007275708397831671689_);}
	.st123{fill:url(#SVGID_00000004529866431117558920000002633546101289280958_);}
	.st124{clip-path:url(#SVGID_00000020391821015127261340000011886934449345935295_);}
	.st125{fill:url(#SVGID_00000169557660303152177680000018010497100753026970_);}
	.st126{clip-path:url(#SVGID_00000138567585758859783520000015050163652479036846_);}
	.st127{fill:url(#SVGID_00000069369927140385251620000000466583795870554018_);}
	.st128{clip-path:url(#SVGID_00000138564311782422818620000017376409773809676960_);}
	.st129{fill:url(#SVGID_00000013192701394837622790000017219606592836511881_);}
	.st130{clip-path:url(#SVGID_00000014613161315790608450000014170152558876242580_);}
	.st131{fill:url(#SVGID_00000168086032847833688880000004207633356257051793_);}
	.st132{clip-path:url(#SVGID_00000020395538903706601510000006611281658714354846_);}
	.st133{fill:url(#SVGID_00000046313604694864984930000005425618134814709950_);}
	.st134{clip-path:url(#SVGID_00000125566362835911505450000004084825642771635888_);}
	.st135{fill:url(#SVGID_00000172401209754035778140000016665093616934097030_);}
	.st136{clip-path:url(#SVGID_00000103984710955305428170000003019805729841675412_);}
	.st137{opacity:0.2;clip-path:url(#SVGID_00000055689979010525028680000018375836431761338043_);}
	.st138{fill:url(#SVGID_00000095297288279124977970000014626147150239297409_);}
	.st139{fill:#A796A8;}
	.st140{fill:#D3C2D2;}
	.st141{fill:#EFE8EF;}
	.st142{fill:#5A4D5B;}
	.st143{fill:#716172;}
	.st144{fill:#B0EEFF;}
	.st145{fill:#4A8BF0;}
	.st146{fill:#67C2FF;}
	.st147{fill:#4E886D;}
	.st148{fill:#B0CF43;}
	.st149{fill:#70A950;}
	.st150{fill:#EBE858;}
	.st151{fill:#E53557;}
	.st152{fill:#AF1E4B;}
	.st153{fill:#422F38;}
	.st154{fill:#F99027;}
	.st155{fill:#FFC840;}
	.st156{fill:#DF3359;}
	.st157{fill:#FFC5C5;}
	.st158{fill:#FA5262;}
	.st159{fill:#FF9BB2;}
	.st160{fill:#FF826F;}
	.st161{fill:#FFE783;}
	.st162{fill:#FFD45A;}
	.st163{fill:#F28033;}
	.st164{fill:#D56132;}
	.st165{fill:#FC9A2C;}
	.st166{fill:#E0692B;}
	.st167{fill:#FFDE6F;}
</style>
<linearGradient id="SVGID_1_" gradientUnits="userSpaceOnUse" x1="702.6597" y1="-134.854" x2="703.6597" y2="-134.854" gradientTransform="matrix(0 -799.998 -799.998 0 -107782.9141 562626.375)">
	<stop  offset="0" style="stop-color:#D887C7"/>
	<stop  offset="0.2285" style="stop-color:#D887C7"/>
	<stop  offset="1" style="stop-color:#00E4E4"/>
</linearGradient>
<path class="st0" d="M0,200h200V0H0V200z"/>
<g>
	<defs>
		<rect id="SVGID_00000162329690758521482550000017225858695429766038_" x="1.3" y="-493.5" width="200" height="200"/>
	</defs>
	<clipPath id="SVGID_00000160192215839506746240000013319321790625894291_">
		<use xlink:href="#SVGID_00000162329690758521482550000017225858695429766038_"  style="overflow:visible;"/>
	</clipPath>
	
		<g transform="matrix(1.33333 0 0 -1.33333 0 200)" style="clip-path:url(#SVGID_00000160192215839506746240000013319321790625894291_);">
		<g>
			<defs>
				<rect id="SVGID_00000155831494168767550460000002268434531933627314_" x="-709.4" y="45.1" width="1066.7" height="800"/>
			</defs>
			<clipPath id="SVGID_00000090272248274854850350000004840724151926773680_">
				<use xlink:href="#SVGID_00000155831494168767550460000002268434531933627314_"  style="overflow:visible;"/>
			</clipPath>
			<g style="opacity:0.2;clip-path:url(#SVGID_00000090272248274854850350000004840724151926773680_);">
				<path class="st23" d="M224,745.1h-800v-600h800V745.1z M219,150.1h-790v590h790V150.1z"/>
			</g>
		</g>
	</g>
</g>
<g>
	<g>
		<g>
			<path class="st154" d="M149.3,149.1L149.3,149.1c-27.3,27.1-71.4,27.1-98.7,0h0C23.4,122,23.4,78,50.7,50.9h0
				c27.3-27.1,71.4-27.1,98.7,0h0C176.6,78,176.6,122,149.3,149.1z"/>
		</g>
	</g>
	<g>
		<g>
			<path class="st161" d="M100,30.5c15.4,0,30.9,5.1,43.6,15.2c3.3,2.6,3.5,7.5,0.5,10.4l-88.2,87.8c-3,2.9-7.8,2.7-10.5-0.5
				c-10.2-12.6-15.2-28-15.2-43.4c0-17.8,6.8-35.6,20.4-49.1C64.3,37.3,82.1,30.5,100,30.5z"/>
		</g>
	</g>
	<g>
		<g>
			<path class="st155" d="M123.7,43.5l-80.5,80.2c-3.1,3-8.3,1.8-9.6-2.3c-2.2-6.9-3.4-14.1-3.4-21.4c0-17.8,6.8-35.6,20.4-49.1
				C64.3,37.3,82.1,30.5,100,30.5c7.2,0,14.5,1.1,21.4,3.3C125.6,35.2,126.8,40.4,123.7,43.5z"/>
		</g>
	</g>
	<g>
		<g>
			<path class="st154" d="M50.7,149.1L50.7,149.1c27.3,27.1,71.4,27.1,98.7,0l0,0c27.3-27.1,27.3-71.1,0-98.3h0L50.7,149.1z"/>
		</g>
	</g>
	<g>
		<g>
			<path class="st155" d="M169.8,100c0,17.8-6.8,35.6-20.4,49.1c-22.7,22.6-57.2,26.4-83.9,11.3c-3.6-2.1-4.3-7-1.4-9.9l86.6-86.2
				c2.9-2.9,7.9-2.3,9.9,1.3C166.7,76.2,169.8,88.1,169.8,100z"/>
		</g>
	</g>
	<g>
		<g>
			<g>
				<path class="st154" d="M80.1,158.1c-3,3-1.6,8.2,2.5,9.2c23.1,5.9,48.6-0.2,66.7-18.2l0,0c18.1-18,24.2-43.4,18.3-66.4
					c-1.1-4.1-6.2-5.6-9.3-2.5L80.1,158.1z"/>
			</g>
		</g>
	</g>
	<g>
		<g>
			<path class="st162" d="M64.8,64.9L64.8,64.9c19.5-19.4,51-19.4,70.5,0h0c19.5,19.4,19.5,50.8,0,70.1h0c-19.5,19.4-51,19.4-70.5,0
				l0,0C45.3,115.7,45.3,84.3,64.8,64.9z"/>
		</g>
	</g>
	<g>
		<g>
			<path class="st163" d="M142.2,96.2c4.5-4.5,5.7-11.2,3.1-17c-2.4-5.2-5.7-10-10-14.3h0c-19.5-19.4-51-19.4-70.5,0l0,0
				c-19.5,19.4-19.5,50.8,0,70.1l0,0c4.3,4.3,9.2,7.6,14.4,10c5.8,2.6,12.6,1.4,17.1-3L142.2,96.2z"/>
		</g>
	</g>
	<g>
		<g>
			<path class="st164" d="M64.8,64.9L64.8,64.9c-16.8,16.7-19.1,42.5-6.9,61.6c3.1,4.8,9.9,5.5,13.9,1.5l56.4-56.1
				c4.1-4,3.3-10.8-1.5-13.9C107.4,45.9,81.6,48.2,64.8,64.9z"/>
		</g>
	</g>
	<g>
		<g>
			<path class="st165" d="M100.2,139.4h-0.3c-21.7,0-39.4-17.6-39.4-39.4v0c0-21.7,17.6-39.4,39.4-39.4h0.3
				c21.7,0,39.4,17.6,39.4,39.4v0C139.5,121.7,121.9,139.4,100.2,139.4z"/>
		</g>
	</g>
	<g>
		<g>
			<g>
				<path class="st166" d="M121.4,107.5c-1.7-1.9-3.8-3.3-6.1-4.2c-2.4-0.9-5.3-1.7-8.9-2.4c-3.2-0.7-5.5-1.3-6.9-1.9
					c-1.4-0.6-2.2-1.6-2.2-2.8c0-1.3,0.6-2.3,1.8-3.1c1.2-0.8,3.1-1.2,5.8-1.2c3.5,0,7.1,0.8,10.8,2.5c1.2,0.6,2.7,0,3.2-1.3
					l1.8-4.4c0.8-1.9,0.5-4.1-0.8-5.7l-2.8-3.6l-5.5,2.5l0,0.2c-0.7-0.1-1.5-0.2-2.2-0.3c-0.6-0.1-1.1-0.6-1.1-1.3V77
					c0-1.6-0.6-3.2-1.6-4.5l-3.1-3.9l-5.2,5.3l2,1.3c-0.1,0.2-0.1,0.4-0.1,0.6v5c0,0.6-0.5,1.2-1.1,1.3c-4.7,0.7-10,2.4-12.6,4.9
					c-2.8,2.8-4.2,6-4.2,9.9c0,3.3,0.9,5.9,2.6,7.8c1.7,1.9,3.7,3.3,6.1,4.2c2.4,0.9,7,1.7,10.5,2.4c3.2,0.7,5.6,1.4,7,2
					c1.5,0.6,2.2,1.6,2.2,3c0,2.5-2.6,3.8-7.7,3.8c-2.7,0-5.4-0.4-8.2-1.3c-2.3-0.7-4.3-1.6-6.1-2.6c-0.7-0.4-1.5-0.1-1.8,0.6
					l-0.1,0.2l-7.2,1.1l2.5,5.1c0.7,1.5,1.9,2.7,3.4,3.4c1.5,0.7,3.2,1.4,5,2c1.8,0.5,3.6,0.9,5.5,1.2L99,134
					c0.8,1.2,2.1,1.9,3.5,1.9h3.6c1.2,0,2.2-1,2.2-2.2v-2.6c0-0.6,0.4-1.1,1-1.2c4.6-0.8,8.1-2.5,10.6-5c2.7-2.7,4-5.9,4-9.6
					C123.9,111.9,123.1,109.4,121.4,107.5z"/>
			</g>
		</g>
		<g>
			<g>
				<g>
					<path class="st161" d="M115.7,118.2c-2.5,2.5-6,4.2-10.6,5c-0.6,0.1-1,0.6-1,1.2v5.1c0,0.7-0.6,1.3-1.3,1.3h-5.5
						c-0.7,0-1.3-0.6-1.3-1.3v-4.7c0-0.7-0.5-1.2-1.2-1.3c-2.9-0.3-5.7-0.8-8.4-1.6c-2.5-0.8-4.7-1.7-6.5-2.8
						c-0.6-0.3-0.8-1-0.5-1.6l3.3-7.5c0.3-0.7,1.1-1,1.8-0.6c1.8,1,3.9,1.9,6.1,2.6c2.8,0.9,5.5,1.3,8.2,1.3c5.1,0,7.7-1.3,7.7-3.8
						c0-1.3-0.7-2.3-2.2-3c-1.5-0.6-3.8-1.3-7-2c-3.5-0.8-6.5-1.6-8.9-2.4c-2.4-0.9-4.4-2.3-6.1-4.2c-1.7-1.9-2.6-4.5-2.6-7.8
						c0-3.8,1.4-7.1,4.2-9.9c2.6-2.6,6.3-4.2,11-4.9c0.6-0.1,1.1-0.6,1.1-1.3v-5c0-0.7,0.6-1.3,1.3-1.3h5.5c0.7,0,1.3,0.6,1.3,1.3
						v4.8c0,0.7,0.5,1.2,1.1,1.3c2.2,0.2,4.2,0.7,6.2,1.2c1.9,0.5,3.7,1.2,5.3,2c0.6,0.3,0.9,1,0.6,1.6l-3.1,7.5
						c-0.3,0.7-1.1,1-1.7,0.7c-4.1-2-8-3-11.9-3c-2.7,0-4.6,0.4-5.8,1.2c-1.2,0.8-1.8,1.8-1.8,3.1c0,1.3,0.7,2.2,2.2,2.8
						c1.4,0.6,3.7,1.3,6.9,1.9c3.6,0.8,6.6,1.6,8.9,2.4c2.4,0.9,4.4,2.3,6.1,4.2c1.7,1.9,2.6,4.5,2.6,7.7
						C119.7,112.3,118.4,115.5,115.7,118.2z"/>
				</g>
			</g>
		</g>
	</g>
</g>
</svg>
