<?xml version="1.0" encoding="utf-8"?>
<!-- Generator: Adobe Illustrator 25.4.1, SVG Export Plug-In . SVG Version: 6.00 Build 0)  -->
<svg version="1.1" id="Layer_1" xmlns="http://www.w3.org/2000/svg" xmlns:xlink="http://www.w3.org/1999/xlink" x="0px" y="0px"
	 viewBox="0 0 200 200" style="enable-background:new 0 0 200 200;" xml:space="preserve">
<style type="text/css">
	.st0{fill:url(#SVGID_1_);}
	.st1{fill:url(#SVGID_00000078035232897428443800000013225061262938541485_);}
	.st2{clip-path:url(#SVGID_00000013152290082240018410000000636810986849397386_);}
	.st3{fill:#8CF7F7;}
	.st4{fill:none;stroke:#303030;stroke-width:5.3333;stroke-linejoin:round;stroke-miterlimit:13.3333;}
	.st5{fill:url(#SVGID_00000183209917966793696430000016232000246727527836_);}
	.st6{clip-path:url(#SVGID_00000050646469148278611510000008816139717105868722_);}
	.st7{fill:#E3A6D6;}
	.st8{fill:url(#SVGID_00000119106553104626473090000000134108993528352896_);}
	.st9{clip-path:url(#SVGID_00000085947401158633652140000009137802539855167406_);}
	.st10{fill:url(#SVGID_00000137838994997064812920000007622579877129175968_);}
	.st11{clip-path:url(#SVGID_00000135678813188016083680000012889517492759514796_);}
	.st12{fill:url(#SVGID_00000079461309085201600770000012930662523811895940_);}
	.st13{clip-path:url(#SVGID_00000155116923670535636850000008222967771464664509_);}
	.st14{fill:none;stroke:#303030;stroke-width:5.3333;stroke-linecap:round;stroke-linejoin:round;stroke-miterlimit:13.3333;}
	.st15{fill:url(#SVGID_00000157304055638684347090000011041672147057048489_);}
	.st16{clip-path:url(#SVGID_00000172413043005528057150000007431690405725089699_);}
	.st17{fill:#00EFEF;}
	.st18{fill:url(#SVGID_00000081617937001063608360000009250968653068395955_);}
	.st19{clip-path:url(#SVGID_00000137124750828322564120000009413166850257933725_);}
	.st20{fill:#00E4E4;}
	.st21{fill:none;stroke:#303030;stroke-width:5.3333;stroke-miterlimit:13.3333;}
	.st22{opacity:0.2;clip-path:url(#SVGID_00000021836555949967602600000009826297200449223352_);}
	.st23{fill:#303030;}
	.st24{fill:url(#SVGID_00000150816560669096987750000005995286038950317959_);}
	.st25{fill:url(#SVGID_00000070080214870988532130000007749031050611969453_);}
	.st26{clip-path:url(#SVGID_00000093175111566916975330000000028544809860203159_);}
	.st27{fill:#CC67B9;}
	.st28{fill:url(#SVGID_00000082360305612534331640000000076747696702005161_);}
	.st29{clip-path:url(#SVGID_00000162337765804647312680000000969920873614289310_);}
	.st30{fill:url(#SVGID_00000089567677508881034430000001504044472000694411_);}
	.st31{clip-path:url(#SVGID_00000012448518974957411740000008532775001763425711_);}
	.st32{fill:#D887C7;}
	.st33{opacity:0.2;clip-path:url(#SVGID_00000160188471699779686980000011104215592930388916_);}
	.st34{fill:url(#SVGID_00000119091646143485467100000011944865286472294290_);}
	.st35{clip-path:url(#SVGID_00000160174373524779684160000006840237741733537927_);}
	.st36{fill:#00E4E4;stroke:#303030;stroke-width:5.3333;stroke-miterlimit:13.3333;}
	.st37{fill:url(#SVGID_00000077308996240668801130000007363384951794291633_);}
	.st38{clip-path:url(#SVGID_00000148626594028082926650000006705446693561823911_);}
	.st39{fill:#75F5F5;}
	.st40{fill:url(#SVGID_00000085931637238839281880000004013563498905991085_);}
	.st41{clip-path:url(#SVGID_00000015355722446223614490000010579490497060233860_);}
	.st42{fill:url(#SVGID_00000057108955847074486970000008019813951900155013_);}
	.st43{clip-path:url(#SVGID_00000068661529321562236440000018350626840847200929_);}
	.st44{fill:url(#SVGID_00000134937215746118639040000014525597951991401111_);}
	.st45{clip-path:url(#SVGID_00000171721389903520895820000009501406086963632052_);}
	.st46{opacity:0.2;clip-path:url(#SVGID_00000008108615924084767660000012323871193980483765_);}
	.st47{fill:url(#SVGID_00000125593814958388455150000007857869658571041682_);}
	.st48{fill:url(#SVGID_00000137833253368986158260000011827706456664430996_);}
	.st49{clip-path:url(#SVGID_00000163773455299085755440000016949408116517256106_);}
	.st50{fill:url(#SVGID_00000113339694850801235810000001057156801849560235_);}
	.st51{clip-path:url(#SVGID_00000147917461173482185370000015399362999852217250_);}
	.st52{fill:url(#SVGID_00000142138043506826502060000015696128325157897872_);}
	.st53{clip-path:url(#SVGID_00000014602419969946445820000003703290223657638279_);}
	.st54{fill:#00E4E4;stroke:#303030;stroke-width:5.3333;stroke-linejoin:round;stroke-miterlimit:13.3333;}
	.st55{fill:url(#SVGID_00000078750684528283197830000004991128256453922745_);}
	.st56{clip-path:url(#SVGID_00000016039587374376169210000015846797311268237442_);}
	.st57{fill:url(#SVGID_00000115501186061732141480000015692183673491926691_);}
	.st58{clip-path:url(#SVGID_00000069364900067184404820000000058726411065005713_);}
	.st59{fill:url(#SVGID_00000067927408637851725580000007665813806220174995_);}
	.st60{clip-path:url(#SVGID_00000004515999319938153300000000378458486025596850_);}
	.st61{opacity:0.2;clip-path:url(#SVGID_00000161632273377866328090000005602838054129955473_);}
	.st62{fill:url(#SVGID_00000051367614466970608250000001620567823361871528_);}
	.st63{fill:url(#SVGID_00000093871777788246513290000017447009870366070440_);}
	.st64{fill:url(#SVGID_00000109746662297369560710000001598915872216588202_);}
	.st65{clip-path:url(#SVGID_00000126299507651982106750000000392011005115567256_);}
	.st66{fill:url(#SVGID_00000133488145232928811500000006265478362098795141_);}
	.st67{fill:url(#SVGID_00000049936691335546751460000017066569939808568237_);}
	.st68{clip-path:url(#SVGID_00000060005112287251764370000004460257384912365971_);}
	.st69{fill:url(#SVGID_00000163772387241546376420000009383596292881867959_);}
	.st70{clip-path:url(#SVGID_00000122721742948587474040000018427900988102469050_);}
	.st71{fill:url(#SVGID_00000159446949954483943700000016711781117059632020_);}
	.st72{clip-path:url(#SVGID_00000082366405960908013230000009951274793329417877_);}
	.st73{opacity:0.2;clip-path:url(#SVGID_00000085245652543331494370000012274190966486369680_);}
	.st74{fill:url(#SVGID_00000157986487478442263370000003700300551963333513_);}
	.st75{fill:url(#SVGID_00000048461652363289332480000003570232469539299213_);}
	.st76{clip-path:url(#SVGID_00000048495586471486655860000005104187656287350928_);}
	.st77{fill:url(#SVGID_00000082339261072710742720000015204978205053522099_);}
	.st78{clip-path:url(#SVGID_00000006698006841961484500000008341406819045181360_);}
	.st79{fill:url(#SVGID_00000181806345820186898210000012971296737074863257_);}
	.st80{clip-path:url(#SVGID_00000041254775156441936480000006751281517444553377_);}
	.st81{fill:url(#SVGID_00000094616547358289553200000010810393604708884114_);}
	.st82{clip-path:url(#SVGID_00000081643036060203622190000012838153497058245552_);}
	.st83{fill:url(#SVGID_00000169559215739961447510000000293269843932783799_);}
	.st84{clip-path:url(#SVGID_00000054260349332837619170000004591237784196228269_);}
	.st85{fill:url(#SVGID_00000013177082108372556360000006533719550407500460_);}
	.st86{clip-path:url(#SVGID_00000096030716118040734690000006370138172873531025_);}
	.st87{fill:url(#SVGID_00000178176485349139686910000017710407606763771017_);}
	.st88{clip-path:url(#SVGID_00000033348001652873625190000017102163562106489005_);}
	.st89{opacity:0.2;clip-path:url(#SVGID_00000147205708201092232940000000987492316159937697_);}
	.st90{fill:url(#SVGID_00000128456590627165918210000005304062132731685000_);}
	.st91{fill:url(#SVGID_00000175295371430572884800000016036636594993333644_);}
	.st92{fill:url(#SVGID_00000031195562120244545690000006737151883421940614_);}
	.st93{fill:url(#SVGID_00000122707566321096070920000014767674731147204995_);}
	.st94{fill:url(#SVGID_00000147217545276116571940000007766466622084281005_);}
	.st95{clip-path:url(#SVGID_00000101806874570393991600000008827017794342556570_);}
	.st96{fill:url(#SVGID_00000103976690468228972950000002199189828553766826_);}
	.st97{clip-path:url(#SVGID_00000166636088739110572970000011106949144941658760_);}
	.st98{fill:url(#SVGID_00000168096020731192608930000014399894283897083270_);}
	.st99{clip-path:url(#SVGID_00000018219418303875378420000013825809220679445671_);}
	.st100{fill:url(#SVGID_00000090271365981549755430000003269539064134927544_);}
	.st101{clip-path:url(#SVGID_00000097458139473538891580000009348599936051451297_);}
	.st102{fill:none;stroke:#E3A6D6;stroke-width:5.3333;stroke-linecap:round;stroke-linejoin:round;stroke-miterlimit:13.3333;}
	.st103{fill:url(#SVGID_00000011025376357668067340000015459250342061470649_);}
	.st104{clip-path:url(#SVGID_00000119116555430086349820000012213157739352465808_);}
	.st105{fill:url(#SVGID_00000180360833703985725510000012008570706433809592_);}
	.st106{clip-path:url(#SVGID_00000011712814910964734870000004698517850457164447_);}
	.st107{fill:#FFFFFF;}
	.st108{opacity:0.2;clip-path:url(#SVGID_00000018937229676685937600000004083270070650522548_);}
	.st109{fill:url(#SVGID_00000167385948989735521930000010227637228454133654_);}
	.st110{fill:url(#SVGID_00000014597030631834657660000002699762453721386892_);}
	.st111{fill:url(#SVGID_00000154409721976050022070000008797163645091699380_);}
	.st112{fill:url(#SVGID_00000024701775135619646560000003614000676653242521_);}
	.st113{clip-path:url(#SVGID_00000116211751882338503590000017207448418443460540_);}
	.st114{fill:#CC67B9;stroke:#303030;stroke-width:5.3333;stroke-linejoin:round;stroke-miterlimit:13.3333;}
	.st115{fill:url(#SVGID_00000072959389237563853820000005559820595743831693_);}
	.st116{clip-path:url(#SVGID_00000133509858279300800330000000030932039170892933_);}
	.st117{fill:url(#SVGID_00000102514219230356802290000007523427956229755776_);}
	.st118{clip-path:url(#SVGID_00000002347468591991406000000011754273875760621698_);}
	.st119{fill:url(#SVGID_00000150783699288942045250000010244634709155459241_);}
	.st120{clip-path:url(#SVGID_00000075144566094861965390000004301381751469032885_);}
	.st121{fill:url(#SVGID_00000109007821001532490130000003455841688706818434_);}
	.st122{clip-path:url(#SVGID_00000060749642948523115550000018291932630666906255_);}
	.st123{fill:url(#SVGID_00000161595114999587634000000011357542117724027801_);}
	.st124{clip-path:url(#SVGID_00000099664614921436096560000013610902345750569116_);}
	.st125{fill:url(#SVGID_00000059298361838284883490000010008650543977062552_);}
	.st126{clip-path:url(#SVGID_00000088092727614985657780000016447771376700839829_);}
	.st127{fill:url(#SVGID_00000176023940663762944490000003056766896877807525_);}
	.st128{clip-path:url(#SVGID_00000110457642318304341160000009849816023206272935_);}
	.st129{fill:url(#SVGID_00000121273165213438831060000016927183878289990053_);}
	.st130{clip-path:url(#SVGID_00000157295908994621448620000010148726999459719307_);}
	.st131{fill:url(#SVGID_00000112597486639258271420000011864801545950463905_);}
	.st132{clip-path:url(#SVGID_00000155138820246434989510000006329557660849487782_);}
	.st133{fill:url(#SVGID_00000017502798008489075890000014107764504547332255_);}
	.st134{clip-path:url(#SVGID_00000171717378991921611900000018034555495986869396_);}
	.st135{fill:url(#SVGID_00000050649207920896764500000001934070739441812408_);}
	.st136{clip-path:url(#SVGID_00000096769189303448933050000015821083743937053607_);}
	.st137{opacity:0.2;clip-path:url(#SVGID_00000090261383395104263470000015675749482118910902_);}
	.st138{fill:url(#SVGID_00000030477748304653135590000004612400062065141926_);}
	.st139{fill:#A796A8;}
	.st140{fill:#D3C2D2;}
	.st141{fill:#EFE8EF;}
	.st142{fill:#5A4D5B;}
	.st143{fill:#716172;}
	.st144{fill:#B0EEFF;}
	.st145{fill:#4A8BF0;}
	.st146{fill:#67C2FF;}
	.st147{fill:#4E886D;}
	.st148{fill:#B0CF43;}
	.st149{fill:#70A950;}
	.st150{fill:#EBE858;}
	.st151{fill:#E53557;}
	.st152{fill:#AF1E4B;}
	.st153{fill:#422F38;}
	.st154{fill:#F99027;}
	.st155{fill:#FFC840;}
	.st156{fill:#DF3359;}
	.st157{fill:#FFC5C5;}
	.st158{fill:#FA5262;}
	.st159{fill:#FF9BB2;}
	.st160{fill:#FF826F;}
	.st161{fill:#FFE783;}
	.st162{fill:#FFD45A;}
	.st163{fill:#F28033;}
	.st164{fill:#D56132;}
	.st165{fill:#FC9A2C;}
	.st166{fill:#E0692B;}
	.st167{fill:#FFDE6F;}
</style>
<g>
	<g>
		<defs>
			<rect id="SVGID_00000034799401707957125630000004042988500854559930_" x="856.4" y="-706.8" width="200" height="200"/>
		</defs>
		<clipPath id="SVGID_00000016782786664920633000000008706172407895373454_">
			<use xlink:href="#SVGID_00000034799401707957125630000004042988500854559930_"  style="overflow:visible;"/>
		</clipPath>
		
			<g transform="matrix(1.33333 0 0 -1.33333 0 200)" style="clip-path:url(#SVGID_00000016782786664920633000000008706172407895373454_);">
			<g>
				<defs>
					<rect id="SVGID_00000182497815093836617300000013367558114846355387_" x="-68.1" y="45.1" width="1066.7" height="800"/>
				</defs>
				<clipPath id="SVGID_00000163783227967184000000000009389174170869044411_">
					<use xlink:href="#SVGID_00000182497815093836617300000013367558114846355387_"  style="overflow:visible;"/>
				</clipPath>
				<g style="opacity:0.2;clip-path:url(#SVGID_00000163783227967184000000000009389174170869044411_);">
					<path class="st23" d="M865.3,745.1h-800v-600h800V745.1z M860.3,150.1h-790v590h790V150.1z"/>
				</g>
			</g>
		</g>
	</g>
</g>
<g>
	<g>
		<defs>
			<rect id="SVGID_00000008834848901034580640000012575421059861227397_" x="643" y="-706.8" width="200" height="200"/>
		</defs>
		<clipPath id="SVGID_00000065034935306278853780000017740683521457736068_">
			<use xlink:href="#SVGID_00000008834848901034580640000012575421059861227397_"  style="overflow:visible;"/>
		</clipPath>
		
			<g transform="matrix(1.33333 0 0 -1.33333 0 200)" style="clip-path:url(#SVGID_00000065034935306278853780000017740683521457736068_);">
			<g>
				<defs>
					<rect id="SVGID_00000065788041412047126820000003376473100845175704_" x="-68.1" y="45.1" width="1066.7" height="800"/>
				</defs>
				<clipPath id="SVGID_00000044886169365052563190000001521283020158889901_">
					<use xlink:href="#SVGID_00000065788041412047126820000003376473100845175704_"  style="overflow:visible;"/>
				</clipPath>
				<g style="opacity:0.2;clip-path:url(#SVGID_00000044886169365052563190000001521283020158889901_);">
					<path class="st23" d="M865.3,745.1h-800v-600h800V745.1z M860.3,150.1h-790v590h790V150.1z"/>
				</g>
			</g>
		</g>
	</g>
</g>
<linearGradient id="SVGID_1_" gradientUnits="userSpaceOnUse" x1="492.7997" y1="-135.383" x2="493.7997" y2="-135.383" gradientTransform="matrix(0 -799.998 -799.998 0 -108206.1094 394738.75)">
	<stop  offset="0" style="stop-color:#D887C7"/>
	<stop  offset="0.2285" style="stop-color:#D887C7"/>
	<stop  offset="1" style="stop-color:#00E4E4"/>
</linearGradient>
<path class="st0" d="M0,200h200V0H0V200z"/>
<g>
	<defs>
		<rect id="SVGID_00000016787841418382530310000009307713459809755806_" x="429.7" y="-706.8" width="200" height="200"/>
	</defs>
	<clipPath id="SVGID_00000134243560756723201400000009108415323577205655_">
		<use xlink:href="#SVGID_00000016787841418382530310000009307713459809755806_"  style="overflow:visible;"/>
	</clipPath>
	
		<g transform="matrix(1.33333 0 0 -1.33333 0 200)" style="clip-path:url(#SVGID_00000134243560756723201400000009108415323577205655_);">
		<g>
			<defs>
				<rect id="SVGID_00000124850796226300506600000001989068797170845108_" x="-68.1" y="45.1" width="1066.7" height="800"/>
			</defs>
			<clipPath id="SVGID_00000054968314839889004160000008310507023041145772_">
				<use xlink:href="#SVGID_00000124850796226300506600000001989068797170845108_"  style="overflow:visible;"/>
			</clipPath>
			<g style="opacity:0.2;clip-path:url(#SVGID_00000054968314839889004160000008310507023041145772_);">
				<path class="st23" d="M865.3,745.1h-800v-600h800V745.1z M860.3,150.1h-790v590h790V150.1z"/>
			</g>
		</g>
	</g>
</g>
<g>
	<defs>
		<rect id="SVGID_00000162329690758521482550000017225858695429766038_" x="-208.6" y="-493.5" width="200" height="200"/>
	</defs>
	<clipPath id="SVGID_00000032621676021799262470000010355994288639108505_">
		<use xlink:href="#SVGID_00000162329690758521482550000017225858695429766038_"  style="overflow:visible;"/>
	</clipPath>
	
		<g transform="matrix(1.33333 0 0 -1.33333 0 200)" style="clip-path:url(#SVGID_00000032621676021799262470000010355994288639108505_);">
		<g>
			<defs>
				<rect id="SVGID_00000155831494168767550460000002268434531933627314_" x="-866.8" y="45.1" width="1066.7" height="800"/>
			</defs>
			<clipPath id="SVGID_00000041256655433197106560000013303306522575103634_">
				<use xlink:href="#SVGID_00000155831494168767550460000002268434531933627314_"  style="overflow:visible;"/>
			</clipPath>
			<g style="opacity:0.2;clip-path:url(#SVGID_00000041256655433197106560000013303306522575103634_);">
				<path class="st23" d="M66.6,745.1h-800v-600h800V745.1z M61.6,150.1h-790v590h790V150.1z"/>
			</g>
		</g>
	</g>
</g>
<g>
	<g>
		<g>
			<g>
				<g>
					<path class="st139" d="M70.8,167.1l15.9-16.2l-17.6-41.5c-3.5-8.3-3.5-17.8,0-26c5.4-12.8,17-20.4,30.9-20.4
						c13.9,0,25.5,7.6,30.9,20.4c3.5,8.3,3.5,17.8,0,26l-17.6,41.5l15.9,16.2c4.7,4.9,12.9,3.3,15.6-2.9l17.6-41.6
						c7.1-16.7,7.1-35.8,0-52.5c-5.5-12.9-14.5-23.6-26.1-30.9c-10.8-6.7-23.3-10.3-36.3-10.3c-12.9,0-25.5,3.6-36.3,10.3
						c-11.6,7.3-20.6,17.9-26.1,30.9v0c-7.1,16.7-7.1,35.8,0,52.5l17.6,41.6C57.9,170.4,66.1,171.9,70.8,167.1z"/>
				</g>
			</g>
		</g>
	</g>
	<g>
		<g>
			<g>
				<g>
					<path class="st140" d="M162.4,122.6l-4.8,11.2c-1.6,3.8-5.9,5.6-9.7,4.2l-17.6-6.5c-4.1-1.5-6.1-6.1-4.4-10.1l5.1-12
						c3.5-8.3,3.5-17.8,0-26c-5.4-12.8-17-20.4-30.9-20.4c-13.9,0-25.5,7.6-30.9,20.4c-3.5,8.3-3.5,17.8,0,26l5.1,12
						c1.7,4-0.3,8.6-4.4,10.1L52.1,138c-3.9,1.4-8.1-0.4-9.7-4.2l-4.8-11.2c-3.5-8.3-5.3-17.3-5.3-26.2c0-9,1.8-17.9,5.3-26.2
						c5.5-12.9,14.5-23.6,26.1-30.9C74.5,32.5,87,28.9,100,28.9c12.9,0,25.5,3.6,36.3,10.3c11.6,7.3,20.6,17.9,26.1,30.9
						C169.5,86.8,169.5,105.9,162.4,122.6z"/>
				</g>
			</g>
		</g>
	</g>
	<g>
		<g>
			<g>
				<g>
					<path class="st141" d="M142.9,173l-31.4-11.7c-2.5-0.9-3.8-3.7-2.9-6.3l6.6-17.6c0.9-2.5,3.8-3.8,6.3-2.9l31.4,11.7
						c2.5,0.9,3.8,3.7,2.9,6.3l-6.6,17.6C148.3,172.7,145.4,174,142.9,173z"/>
				</g>
			</g>
		</g>
		<g>
			<g>
				<g>
					<path class="st139" d="M143.5,173.2l-32.6-12.1c-2.2-0.8-3.3-3.3-2.5-5.5l4.5-12.1c0.8-2.2,3.3-3.3,5.5-2.5l32.6,12.1
						c2.2,0.8,3.3,3.3,2.5,5.5l-4.5,12.1C148.2,172.9,145.7,174.1,143.5,173.2z"/>
				</g>
			</g>
		</g>
		<g>
			<g>
				<path class="st140" d="M118.4,141c-2.2-0.8-4.7,0.3-5.5,2.5l-2.2,6c-0.9,2.4,0.3,5.1,2.8,6l17.3,6.4c8.3,3.1,17.4-0.6,21.4-8.2
					c-0.3-0.3-0.7-0.5-1.1-0.6L118.4,141z"/>
			</g>
		</g>
	</g>
	<g>
		<g>
			<g>
				<g>
					<path class="st141" d="M57.1,173l31.4-11.7c2.5-0.9,3.8-3.7,2.9-6.3l-6.6-17.6c-0.9-2.5-3.8-3.8-6.3-2.9l-31.4,11.7
						c-2.5,0.9-3.8,3.7-2.9,6.3l6.6,17.6C51.7,172.7,54.6,174,57.1,173z"/>
				</g>
			</g>
		</g>
		<g>
			<g>
				<g>
					<path class="st139" d="M56.5,173.2l32.6-12.1c2.2-0.8,3.3-3.3,2.5-5.5l-4.5-12.1c-0.8-2.2-3.3-3.3-5.5-2.5L49,153.1
						c-2.2,0.8-3.3,3.3-2.5,5.5l4.5,12.1C51.8,172.9,54.3,174.1,56.5,173.2z"/>
				</g>
			</g>
		</g>
		<g>
			<g>
				<path class="st140" d="M81.6,141c2.2-0.8,4.7,0.3,5.5,2.5l2.2,6c0.9,2.4-0.3,5.1-2.8,6L69.2,162c-8.3,3.1-17.4-0.6-21.4-8.2
					c0.3-0.3,0.7-0.5,1.1-0.6L81.6,141z"/>
			</g>
		</g>
	</g>
	<g>
		<g>
			<g>
				<g>
					<path class="st139" d="M144,130.7c-1.1,0-2.2-0.2-3.2-0.7c-4.2-1.8-6.2-6.6-4.4-10.9l2.7-6.3c4.4-10.4,4.4-22.4,0-32.8
						c-3-7.1-7.5-13-13.4-17.4c-3.7-2.8-4.4-7.9-1.6-11.6c2.8-3.7,8-4.4,11.7-1.6c8.3,6.2,14.6,14.3,18.8,24.2
						c6.2,14.5,6.2,31.2,0,45.7l-2.7,6.3C150.3,128.8,147.2,130.7,144,130.7z"/>
				</g>
			</g>
		</g>
		<g>
			<g>
				<g>
					<path class="st142" d="M144.8,120.5c-2.4-1-3.6-3.8-2.6-6.3l0,0c1-2.4,3.9-3.6,6.3-2.5l0,0c2.4,1,3.6,3.8,2.6,6.3l0,0
						c-0.8,1.8-2.6,2.9-4.4,2.9l0,0C146,120.9,145.4,120.7,144.8,120.5z M145.9,96.4c0-2.6,2.1-4.8,4.8-4.8l0,0
						c2.7,0,4.8,2.1,4.8,4.8l0,0c0,2.6-2.1,4.8-4.8,4.8l0,0c0,0,0,0,0,0l0,0C148,101.1,145.9,99,145.9,96.4z M142.2,78.5
						c-1-2.4,0.1-5.2,2.5-6.3l0,0c2.4-1,5.3,0.1,6.3,2.5l0,0c1,2.4-0.1,5.2-2.5,6.3l0,0c-0.6,0.3-1.3,0.4-1.9,0.4l0,0
						C144.7,81.4,142.9,80.3,142.2,78.5z M131.9,63.4L131.9,63.4L131.9,63.4c-1.9-1.8-1.9-4.9-0.1-6.8l0,0c1.9-1.9,4.9-1.9,6.8-0.1
						l0,0c1.9,1.8,2,4.9,0.1,6.8l0,0c-0.9,1-2.2,1.5-3.4,1.5l0,0C134,64.8,132.8,64.3,131.9,63.4z"/>
				</g>
			</g>
		</g>
	</g>
	<g>
		<g>
			<g>
				<g>
					<path class="st139" d="M56,130.7c-3.2,0-6.3-1.9-7.7-5.1l-2.7-6.3c-6.2-14.5-6.2-31.2,0-45.7c4.2-9.9,10.5-18,18.8-24.2
						c3.7-2.8,8.9-2,11.7,1.6c2.8,3.7,2,8.9-1.6,11.6C68.5,67.1,64,72.9,61,80c-4.4,10.4-4.4,22.4,0,32.8l2.7,6.3
						c1.8,4.2-0.2,9.1-4.4,10.9C58.2,130.5,57.1,130.7,56,130.7z"/>
				</g>
			</g>
		</g>
		<g>
			<g>
				<g>
					<path class="st142" d="M48.9,117.9c-1-2.4,0.1-5.2,2.6-6.3l0,0c2.4-1,5.3,0.1,6.3,2.5l0,0c1,2.4-0.1,5.2-2.6,6.3l0,0
						c-0.6,0.3-1.2,0.4-1.9,0.4l0,0C51.5,120.9,49.7,119.8,48.9,117.9z M49.3,101.1c-2.7,0-4.8-2.2-4.8-4.8l0,0
						c0-2.6,2.2-4.8,4.8-4.8l0,0c2.7,0,4.8,2.2,4.8,4.8l0,0C54.1,99,52,101.1,49.3,101.1L49.3,101.1
						C49.3,101.1,49.3,101.1,49.3,101.1z M51.5,81c-2.4-1-3.6-3.8-2.5-6.3l0,0l0,0l0,0c1-2.4,3.9-3.6,6.3-2.5l0,0
						c2.4,1,3.6,3.8,2.5,6.3h0c-0.8,1.8-2.6,2.9-4.4,2.9l0,0C52.8,81.4,52.1,81.3,51.5,81z M61.3,63.3c-1.9-1.9-1.8-4.9,0.1-6.8l0,0
						l0,0l0,0c1.9-1.8,5-1.8,6.8,0.1l0,0c1.8,1.9,1.8,4.9-0.1,6.8l0,0c-0.9,0.9-2.1,1.4-3.3,1.4l0,0C63.5,64.8,62.3,64.3,61.3,63.3z
						"/>
				</g>
			</g>
		</g>
	</g>
	<g>
		<g>
			<g>
				<g>
					<path class="st139" d="M100,26.5c-7.5,0-15,1.2-22,3.5c-1.7,0.5-2.6,2.4-2.1,4.1l9.3,31.2c0.5,1.7,2.2,2.7,3.8,2.2
						c3.5-1.1,7.2-1.7,11-1.7c3.9,0,7.6,0.6,11,1.7c1.6,0.5,3.3-0.5,3.8-2.2l9.3-31.2c0.5-1.7-0.4-3.6-2.1-4.1
						C115,27.7,107.5,26.5,100,26.5z"/>
				</g>
			</g>
		</g>
		<g>
			<g>
				<g>
					<path class="st141" d="M99.6,26.5c-7.4,0-14.7,1.2-21.6,3.4c-1.7,0.5-2.6,2.4-2.1,4.1l9.3,31.2c0.5,1.7,2.2,2.7,3.8,2.2
						c3.3-1,6.9-1.6,10.6-1.6V26.5z"/>
				</g>
			</g>
		</g>
		<g>
			<g>
				<g>
					<path class="st140" d="M100,26.5c-5.1,0-10.2,0.5-15.1,1.4c-1.9,0.4-3.1,2.3-2.5,4.2l9.9,31.6c0.5,1.5,1.9,2.4,3.5,2.3
						c1.4-0.1,2.8-0.2,4.2-0.2c1.4,0,2.8,0.1,4.2,0.2c1.6,0.2,3-0.8,3.5-2.3l9.9-31.6c0.6-1.9-0.6-3.8-2.5-4.2
						C110.2,27,105.1,26.5,100,26.5z"/>
				</g>
			</g>
		</g>
	</g>
	<g>
		<g>
			<g>
				<path class="st143" d="M105.8,44.1c0,3.2-2.6,5.8-5.8,5.8c-3.2,0-5.8-2.6-5.8-5.8c0-3.2,2.6-5.8,5.8-5.8
					C103.2,38.3,105.8,40.9,105.8,44.1z"/>
			</g>
		</g>
	</g>
</g>
</svg>
