<?xml version="1.0" encoding="utf-8"?>
<!-- Generator: Adobe Illustrator 25.4.1, SVG Export Plug-In . SVG Version: 6.00 Build 0)  -->
<svg version="1.1" id="Layer_1" xmlns="http://www.w3.org/2000/svg" xmlns:xlink="http://www.w3.org/1999/xlink" x="0px" y="0px"
	 viewBox="0 0 200 200" style="enable-background:new 0 0 200 200;" xml:space="preserve">
<style type="text/css">
	.st0{fill:url(#SVGID_1_);}
	.st1{fill:url(#SVGID_00000178912266343911181070000004233554709205563814_);}
	.st2{clip-path:url(#SVGID_00000060727529930639583050000012661321468515179429_);}
	.st3{fill:#8CF7F7;}
	.st4{fill:none;stroke:#303030;stroke-width:5.3333;stroke-linejoin:round;stroke-miterlimit:13.3333;}
	.st5{fill:url(#SVGID_00000131363736831140153180000007542310136131346337_);}
	.st6{clip-path:url(#SVGID_00000178900478031408182650000004478698540499296651_);}
	.st7{fill:#E3A6D6;}
	.st8{fill:url(#SVGID_00000183228412458811962080000008240087154775483056_);}
	.st9{clip-path:url(#SVGID_00000034060051624286196250000011573898031542307499_);}
	.st10{fill:url(#SVGID_00000101095272988836676860000001049995998961287844_);}
	.st11{clip-path:url(#SVGID_00000016781846587150757410000017558689527672877965_);}
	.st12{fill:url(#SVGID_00000150070843856683657320000010520745007229297025_);}
	.st13{clip-path:url(#SVGID_00000101795148539284627320000011104824147980031677_);}
	.st14{fill:none;stroke:#303030;stroke-width:5.3333;stroke-linecap:round;stroke-linejoin:round;stroke-miterlimit:13.3333;}
	.st15{fill:url(#SVGID_00000176758275526446818500000016572206287477406369_);}
	.st16{clip-path:url(#SVGID_00000042703579615951727840000002026808790463777449_);}
	.st17{fill:#00EFEF;}
	.st18{fill:url(#SVGID_00000044176149201846877460000012571890468264159380_);}
	.st19{clip-path:url(#SVGID_00000158728509797553502160000014587542514762488205_);}
	.st20{fill:#00E4E4;}
	.st21{fill:none;stroke:#303030;stroke-width:5.3333;stroke-miterlimit:13.3333;}
	.st22{opacity:0.2;clip-path:url(#SVGID_00000055686867409662616490000009739972522122843784_);}
	.st23{fill:#303030;}
	.st24{fill:url(#SVGID_00000076585926773911205790000016097266862936653698_);}
	.st25{fill:url(#SVGID_00000173843205684096322650000001624187152978266009_);}
	.st26{clip-path:url(#SVGID_00000169538827155487182680000014775166819556015249_);}
	.st27{fill:#CC67B9;}
	.st28{fill:url(#SVGID_00000101790945143396774890000011673411891467312572_);}
	.st29{clip-path:url(#SVGID_00000091735483911921204530000004025978195921483415_);}
	.st30{fill:url(#SVGID_00000078039247955565758700000003157501606592313519_);}
	.st31{clip-path:url(#SVGID_00000042729367400827458030000016379509766407664037_);}
	.st32{fill:#D887C7;}
	.st33{opacity:0.2;clip-path:url(#SVGID_00000023271240331776173290000010404923214296996253_);}
	.st34{fill:url(#SVGID_00000076568603689139887740000017200703166685001627_);}
	.st35{clip-path:url(#SVGID_00000157286917703639145810000011659476397296847295_);}
	.st36{fill:#00E4E4;stroke:#303030;stroke-width:5.3333;stroke-miterlimit:13.3333;}
	.st37{fill:url(#SVGID_00000067915580646103937730000009278009409269074325_);}
	.st38{clip-path:url(#SVGID_00000052088214100735157700000017577950665476637840_);}
	.st39{fill:#75F5F5;}
	.st40{fill:url(#SVGID_00000025441479086996819920000016950876830274892431_);}
	.st41{clip-path:url(#SVGID_00000025438503062192198360000005195779172179088530_);}
	.st42{fill:url(#SVGID_00000165197298139116105960000015101695211619382923_);}
	.st43{clip-path:url(#SVGID_00000127764899757746753310000000764022832332988076_);}
	.st44{fill:url(#SVGID_00000168076269986944316360000001852078999389658046_);}
	.st45{clip-path:url(#SVGID_00000036964221518242167120000000469713369600455839_);}
	.st46{opacity:0.2;clip-path:url(#SVGID_00000005969428507621793030000010089293263932090752_);}
	.st47{fill:url(#SVGID_00000127045498138278465110000000848986355472955020_);}
	.st48{fill:url(#SVGID_00000033343481169517609040000007456581751271456935_);}
	.st49{clip-path:url(#SVGID_00000080904515812348261000000013134472645607137159_);}
	.st50{fill:url(#SVGID_00000091721724639065555790000010107975260275794321_);}
	.st51{clip-path:url(#SVGID_00000091709306680839378150000017123089227220949647_);}
	.st52{fill:url(#SVGID_00000069396264142883213880000010014608602762220206_);}
	.st53{clip-path:url(#SVGID_00000099663525297864159720000005013001461588888473_);}
	.st54{fill:#00E4E4;stroke:#303030;stroke-width:5.3333;stroke-linejoin:round;stroke-miterlimit:13.3333;}
	.st55{fill:url(#SVGID_00000006684456985763110560000000304503694086461322_);}
	.st56{clip-path:url(#SVGID_00000049904486732769709430000006735718548952398723_);}
	.st57{fill:url(#SVGID_00000010311615278536302270000016056041547108786351_);}
	.st58{clip-path:url(#SVGID_00000060031400538942845070000000913126851619154359_);}
	.st59{fill:url(#SVGID_00000054953456233609453380000016072933527875048073_);}
	.st60{clip-path:url(#SVGID_00000123430144896830356860000006775069291049106566_);}
	.st61{opacity:0.2;clip-path:url(#SVGID_00000139274869312836058820000014129729012350098591_);}
	.st62{fill:url(#SVGID_00000120560010190765107680000009864249925145248896_);}
	.st63{fill:url(#SVGID_00000136391787650189655360000006181313111673078412_);}
	.st64{fill:url(#SVGID_00000041292852966705930380000016387811785961726367_);}
	.st65{clip-path:url(#SVGID_00000011023769100539369200000007155463551428899462_);}
	.st66{fill:url(#SVGID_00000114066289830340408290000015423350526956058042_);}
	.st67{fill:url(#SVGID_00000154409163092798013290000010252163407214338704_);}
	.st68{clip-path:url(#SVGID_00000034088615720552386440000005494336034811944076_);}
	.st69{fill:url(#SVGID_00000147182141391939073440000002116522166898683798_);}
	.st70{clip-path:url(#SVGID_00000005268836803918173250000009020501397616993966_);}
	.st71{fill:url(#SVGID_00000073693085119460843340000011437308413511409074_);}
	.st72{clip-path:url(#SVGID_00000123423240905650070300000016461895699138730122_);}
	.st73{opacity:0.2;clip-path:url(#SVGID_00000142134221360082273230000018153592755847256252_);}
	.st74{fill:url(#SVGID_00000114755426271877387360000004645728973892692915_);}
	.st75{fill:url(#SVGID_00000057149623952263865230000010685685349837113530_);}
	.st76{clip-path:url(#SVGID_00000146470208991139576280000001201607905953987971_);}
	.st77{fill:url(#SVGID_00000002362670922481391850000013746087733342415514_);}
	.st78{clip-path:url(#SVGID_00000001647663019367901400000006001160821807844011_);}
	.st79{fill:url(#SVGID_00000142872806563361410710000012896264898613606037_);}
	.st80{clip-path:url(#SVGID_00000137812378794701527070000001534877782674523031_);}
	.st81{fill:url(#SVGID_00000121240905789719548210000007503601473953317806_);}
	.st82{clip-path:url(#SVGID_00000055696343658885698690000015284419371570798224_);}
	.st83{fill:url(#SVGID_00000129170671556441105090000000298769063360702885_);}
	.st84{clip-path:url(#SVGID_00000136370567953950227370000016876091381191122103_);}
	.st85{fill:url(#SVGID_00000071551635990969386720000002887215791979804578_);}
	.st86{clip-path:url(#SVGID_00000015314027016204428080000000271028034055164075_);}
	.st87{fill:url(#SVGID_00000127034158608242647190000008955655298574755482_);}
	.st88{clip-path:url(#SVGID_00000030450361922339223530000006590748049260870834_);}
	.st89{opacity:0.2;clip-path:url(#SVGID_00000134949959179651646540000005579838048604481189_);}
	.st90{fill:url(#SVGID_00000113311916850361139360000007262061356403444115_);}
	.st91{fill:url(#SVGID_00000013900943330601439150000005578889614986376334_);}
	.st92{fill:url(#SVGID_00000065038536848387235720000004780371253892681381_);}
	.st93{fill:url(#SVGID_00000042726991911915894240000001300471492949429167_);}
	.st94{fill:url(#SVGID_00000103953840422573758880000003057303069873540021_);}
	.st95{clip-path:url(#SVGID_00000165232244379447815250000003294167690095285177_);}
	.st96{fill:url(#SVGID_00000114053421991238976850000008643710467082454925_);}
	.st97{clip-path:url(#SVGID_00000050653592995390255840000000155579803325683078_);}
	.st98{fill:url(#SVGID_00000101090746330763900190000000639955960672295348_);}
	.st99{clip-path:url(#SVGID_00000002376684057412147890000003423039747460227774_);}
	.st100{fill:url(#SVGID_00000068670802368472146190000016021678072216969629_);}
	.st101{clip-path:url(#SVGID_00000005969378037596392830000010563383514698885782_);}
	.st102{fill:none;stroke:#E3A6D6;stroke-width:5.3333;stroke-linecap:round;stroke-linejoin:round;stroke-miterlimit:13.3333;}
	.st103{fill:url(#SVGID_00000087390767724261262690000008823603417767903136_);}
	.st104{clip-path:url(#SVGID_00000180324668036370946550000010611819344637845909_);}
	.st105{fill:url(#SVGID_00000142870469873309487500000001335127539637068946_);}
	.st106{clip-path:url(#SVGID_00000072977288323109897710000004270609526824879766_);}
	.st107{fill:#FFFFFF;}
	.st108{opacity:0.2;clip-path:url(#SVGID_00000078737160265802783510000003678174768451954877_);}
	.st109{fill:url(#SVGID_00000037659609284185052950000010802435266003889292_);}
	.st110{fill:url(#SVGID_00000127737245458526640830000007748639677603423932_);}
	.st111{fill:url(#SVGID_00000101087843973592641630000002803375270692174982_);}
	.st112{fill:url(#SVGID_00000118398565536977311920000009335850167074506153_);}
	.st113{clip-path:url(#SVGID_00000117662113558846151060000014910060380086277273_);}
	.st114{fill:#CC67B9;stroke:#303030;stroke-width:5.3333;stroke-linejoin:round;stroke-miterlimit:13.3333;}
	.st115{fill:url(#SVGID_00000049223062632432181300000005625319277283333539_);}
	.st116{clip-path:url(#SVGID_00000070096089617419817100000016400704276488634805_);}
	.st117{fill:url(#SVGID_00000042719845378787039180000012675960491575705473_);}
	.st118{clip-path:url(#SVGID_00000092417306196576557490000002945270203878127271_);}
	.st119{fill:url(#SVGID_00000145053441484817254030000015661939480267740840_);}
	.st120{clip-path:url(#SVGID_00000062168895581323313560000003740324523279010192_);}
	.st121{fill:url(#SVGID_00000074416469665244691520000014895916166056922525_);}
	.st122{clip-path:url(#SVGID_00000057135272124012389280000006380113917374834620_);}
	.st123{fill:url(#SVGID_00000059274261947703006200000015403635530092941743_);}
	.st124{clip-path:url(#SVGID_00000021120433705487858450000013347847949227397264_);}
	.st125{fill:url(#SVGID_00000136383437883498828030000003803055595032722082_);}
	.st126{clip-path:url(#SVGID_00000029764605146768182850000001510646977008837297_);}
	.st127{fill:url(#SVGID_00000016756682116651085570000004437457151923259062_);}
	.st128{clip-path:url(#SVGID_00000033344921089702698060000017419010759892493452_);}
	.st129{fill:url(#SVGID_00000115496177872724722950000001677441962807898757_);}
	.st130{clip-path:url(#SVGID_00000039829552780125084140000003201569394732861318_);}
	.st131{fill:url(#SVGID_00000072974842610474681090000004311670590341705142_);}
	.st132{clip-path:url(#SVGID_00000029043493497465303140000005125951131603420333_);}
	.st133{fill:url(#SVGID_00000031906596215793956870000008377320704133695361_);}
	.st134{clip-path:url(#SVGID_00000178186348414450724220000008396726167144448692_);}
	.st135{fill:url(#SVGID_00000065038218277191817750000003596016945242478271_);}
	.st136{clip-path:url(#SVGID_00000183952203185033794720000013114490028122142601_);}
	.st137{opacity:0.2;clip-path:url(#SVGID_00000058549814802705116050000017391012224280383396_);}
	.st138{fill:url(#SVGID_00000036930035712885378500000011916884559687309747_);}
	.st139{fill:#A796A8;}
	.st140{fill:#D3C2D2;}
	.st141{fill:#EFE8EF;}
	.st142{fill:#5A4D5B;}
	.st143{fill:#716172;}
	.st144{fill:#B0EEFF;}
	.st145{fill:#4A8BF0;}
	.st146{fill:#67C2FF;}
	.st147{fill:#4E886D;}
	.st148{fill:#B0CF43;}
	.st149{fill:#70A950;}
	.st150{fill:#EBE858;}
	.st151{fill:url(#SVGID_00000150801457731994811640000008107316811099570613_);}
	.st152{fill:#E53557;}
	.st153{fill:#AF1E4B;}
	.st154{fill:#422F38;}
	.st155{fill:#F99027;}
	.st156{fill:#FFC840;}
	.st157{fill:#DF3359;}
	.st158{fill:#FFC5C5;}
	.st159{fill:#FA5262;}
	.st160{fill:#FF9BB2;}
	.st161{fill:#FF826F;}
	.st162{fill:#FFE783;}
	.st163{fill:#FFD45A;}
	.st164{fill:#F28033;}
	.st165{fill:#D56132;}
	.st166{fill:#FC9A2C;}
	.st167{fill:#E0692B;}
	.st168{fill:#FFDE6F;}
	.st169{opacity:0.59;}
</style>
<g>
	<g>
		<defs>
			<rect id="SVGID_00000173846122975046876510000015520441463007811500_" x="640" y="-706.8" width="200" height="200"/>
		</defs>
		<clipPath id="SVGID_00000120524981213201993870000017071888964396741262_">
			<use xlink:href="#SVGID_00000173846122975046876510000015520441463007811500_"  style="overflow:visible;"/>
		</clipPath>
		
			<g transform="matrix(1.33333 0 0 -1.33333 0 200)" style="clip-path:url(#SVGID_00000120524981213201993870000017071888964396741262_);">
			<g>
				<defs>
					<rect id="SVGID_00000023966878568924842050000014068215425500678308_" x="-230.3" y="45.1" width="1066.7" height="800"/>
				</defs>
				<clipPath id="SVGID_00000052096040400578673570000017117488070746118049_">
					<use xlink:href="#SVGID_00000023966878568924842050000014068215425500678308_"  style="overflow:visible;"/>
				</clipPath>
				<g style="opacity:0.2;clip-path:url(#SVGID_00000052096040400578673570000017117488070746118049_);">
					<path class="st23" d="M703,745.1H-97v-600h800V745.1z M698,150.1H-92v590h790V150.1z"/>
				</g>
			</g>
		</g>
	</g>
</g>
<g>
	<g>
		<defs>
			<rect id="SVGID_00000058579095448632020560000010763924413820889750_" x="426.7" y="-706.8" width="200" height="200"/>
		</defs>
		<clipPath id="SVGID_00000114790378785957836170000004030866252251163057_">
			<use xlink:href="#SVGID_00000058579095448632020560000010763924413820889750_"  style="overflow:visible;"/>
		</clipPath>
		
			<g transform="matrix(1.33333 0 0 -1.33333 0 200)" style="clip-path:url(#SVGID_00000114790378785957836170000004030866252251163057_);">
			<g>
				<defs>
					<rect id="SVGID_00000092454199715875006030000011282620144638621610_" x="-230.3" y="45.1" width="1066.7" height="800"/>
				</defs>
				<clipPath id="SVGID_00000103224925077525658090000002555225903334963336_">
					<use xlink:href="#SVGID_00000092454199715875006030000011282620144638621610_"  style="overflow:visible;"/>
				</clipPath>
				<g style="opacity:0.2;clip-path:url(#SVGID_00000103224925077525658090000002555225903334963336_);">
					<path class="st23" d="M703,745.1H-97v-600h800V745.1z M698,150.1H-92v590h790V150.1z"/>
				</g>
			</g>
		</g>
	</g>
</g>
<linearGradient id="SVGID_1_" gradientUnits="userSpaceOnUse" x1="276.4287" y1="-135.3868" x2="277.4287" y2="-135.3868" gradientTransform="matrix(0 -799.998 -799.998 0 -108209.1484 221855.7344)">
	<stop  offset="0" style="stop-color:#D887C7"/>
	<stop  offset="0.2285" style="stop-color:#D887C7"/>
	<stop  offset="1" style="stop-color:#00E4E4"/>
</linearGradient>
<path class="st0" d="M0,200h200V0H0V200z"/>
<g>
	<defs>
		<rect id="SVGID_00000139988174648227379540000015372381530190142880_" x="213.3" y="-706.8" width="200" height="200"/>
	</defs>
	<clipPath id="SVGID_00000094590557412133228740000017261002252912781752_">
		<use xlink:href="#SVGID_00000139988174648227379540000015372381530190142880_"  style="overflow:visible;"/>
	</clipPath>
	
		<g transform="matrix(1.33333 0 0 -1.33333 0 200)" style="clip-path:url(#SVGID_00000094590557412133228740000017261002252912781752_);">
		<g>
			<defs>
				<rect id="SVGID_00000000215295713252029120000010448879948005955468_" x="-230.3" y="45.1" width="1066.7" height="800"/>
			</defs>
			<clipPath id="SVGID_00000032610830843174853560000011882945079381403056_">
				<use xlink:href="#SVGID_00000000215295713252029120000010448879948005955468_"  style="overflow:visible;"/>
			</clipPath>
			<g style="opacity:0.2;clip-path:url(#SVGID_00000032610830843174853560000011882945079381403056_);">
				<path class="st23" d="M703,745.1H-97v-600h800V745.1z M698,150.1H-92v590h790V150.1z"/>
			</g>
		</g>
	</g>
</g>
<g>
	<g>
		<g>
			<path class="st166" d="M108.3,33.6l13.8,33.2c1.3,3.1,4.2,5.3,7.6,5.5l36,2.8c8,0.6,11.2,10.6,5.1,15.7l-27.5,23.3
				c-2.6,2.2-3.7,5.6-2.9,8.9l8.5,35c1.9,7.8-6.6,13.9-13.4,9.7l-30.8-18.8c-2.9-1.8-6.5-1.8-9.4,0l-30.8,18.8
				c-6.8,4.2-15.3-2-13.4-9.7l8.5-35c0.8-3.3-0.3-6.7-2.9-8.9L29.2,90.8c-6.1-5.2-2.9-15.1,5.1-15.7l36-2.8c3.4-0.3,6.3-2.4,7.6-5.5
				l13.8-33.2C94.7,26.2,105.3,26.2,108.3,33.6z"/>
		</g>
	</g>
	<g>
		<g>
			<path class="st167" d="M148.9,158c1.9,7.8-6.6,13.9-13.4,9.7l-30.8-18.8c-2.9-1.8-6.5-1.8-9.4,0l-16.2,9.9
				c-4.7,2.9-10.6-1.2-9.5-6.6l1.5-7.5l21.5-15.6l26.1-1.2l3.9-20.5l24.2-17.5l7.8,0.3c5.7,0.3,8.2,7.4,3.8,11.1l-15.1,12.8
				c-2.6,2.2-3.7,5.6-2.9,8.9L148.9,158z"/>
		</g>
	</g>
	<g>
		<g>
			<g>
				<path class="st165" d="M100,79.3c5,9.5,14,16,24.6,17.8c-7.5,7.6-10.9,18.2-9.4,28.8c-4.7-2.3-9.9-3.5-15.2-3.5
					c-5.3,0-10.5,1.2-15.2,3.5c1.6-10.6-1.9-21.1-9.4-28.8C86,95.3,95,88.8,100,79.3L100,79.3z M100,56l-7,17
					c-3.7,8.8-11.9,14.8-21.4,15.5l-18.4,1.4l14,11.9c7.3,6.2,10.4,15.8,8.2,25.1l-4.3,17.8l15.7-9.6c4-2.4,8.6-3.7,13.2-3.7
					c4.7,0,9.3,1.3,13.2,3.7l15.7,9.6l-4.3-17.8c-2.3-9.3,0.9-18.9,8.2-25.1l14-11.9l-18.4-1.4c-9.6-0.7-17.8-6.7-21.4-15.5L100,56
					L100,56z"/>
			</g>
		</g>
	</g>
	<g>
		<g>
			<path class="st156" d="M67.2,101.8l-14-11.9l18.4-1.4C81.1,87.8,89.3,81.8,93,73l7-17l7,17c0,0,0,0.1,0.1,0.1
				c2.7,6.4,11.5,7.3,15.6,1.7l2.8-3.9c-1.5-1-2.7-2.4-3.4-4.1l-13.8-33.2c-1.5-3.7-4.9-5.5-8.3-5.5c-3.4,0-6.8,1.8-8.3,5.5
				L77.9,66.8c-1.3,3.1-4.2,5.3-7.6,5.5l-36,2.8c-8,0.6-11.2,10.6-5.1,15.7l27.5,23.3c0.9,0.7,1.6,1.6,2.1,2.6l6.1-2.2
				C70.3,112.7,71.7,105.6,67.2,101.8C67.3,101.8,67.2,101.8,67.2,101.8z"/>
		</g>
	</g>
	<g>
		<g>
			<path class="st168" d="M109.7,90.7L109.7,90.7c4.3,3.2,9.4,5.4,14.8,6.4c-7.5,7.6-10.9,18.2-9.4,28.8c-4.7-2.3-9.9-3.5-15.2-3.5
				c-5.3,0-10.5,1.2-15.2,3.5c0.8-5.6,0.2-11.2-1.6-16.4l0,0c-4.4,1.6-7.3,5.8-7.1,10.4c0.1,2.3-0.1,4.7-0.7,7l-4.3,17.8l15.7-9.6
				c4-2.4,8.6-3.7,13.2-3.7c4.7,0,9.3,1.3,13.2,3.7l15.7,9.6l-4.3-17.8c-2.2-9.2,0.9-18.9,8.2-25.1l14-11.9l-18.4-1.4
				c-2.3-0.2-4.4-0.6-6.5-1.4C117.5,85.6,112.6,87,109.7,90.7z"/>
		</g>
	</g>
</g>
</svg>
