<?xml version="1.0" encoding="utf-8"?>
<!-- Generator: Adobe Illustrator 25.4.1, SVG Export Plug-In . SVG Version: 6.00 Build 0)  -->
<svg version="1.1" id="Layer_1" xmlns="http://www.w3.org/2000/svg" xmlns:xlink="http://www.w3.org/1999/xlink" x="0px" y="0px"
	 viewBox="0 0 200 200" style="enable-background:new 0 0 200 200;" xml:space="preserve">
<style type="text/css">
	.st0{fill:url(#SVGID_1_);}
	.st1{fill:url(#SVGID_00000018232980898315924780000015541613959271976592_);}
	.st2{clip-path:url(#SVGID_00000181083957515489132180000002564356818925910183_);}
	.st3{fill:#8CF7F7;}
	.st4{fill:none;stroke:#303030;stroke-width:5.3333;stroke-linejoin:round;stroke-miterlimit:13.3333;}
	.st5{fill:url(#SVGID_00000178913942455314850360000008935632030021927296_);}
	.st6{clip-path:url(#SVGID_00000152978792129990658640000014680541108425470103_);}
	.st7{fill:#E3A6D6;}
	.st8{fill:url(#SVGID_00000156553527957788237220000016813939409958076850_);}
	.st9{clip-path:url(#SVGID_00000159462637701879202730000013063900078452471218_);}
	.st10{fill:url(#SVGID_00000089555857366844212530000012226381467310189454_);}
	.st11{clip-path:url(#SVGID_00000129173841576532795770000009050976287166381746_);}
	.st12{fill:url(#SVGID_00000049939552007689538690000012739964580510496181_);}
	.st13{clip-path:url(#SVGID_00000179628458974956230330000008548011654011852213_);}
	.st14{fill:none;stroke:#303030;stroke-width:5.3333;stroke-linecap:round;stroke-linejoin:round;stroke-miterlimit:13.3333;}
	.st15{fill:url(#SVGID_00000134213033915894643400000009808694949653158056_);}
	.st16{clip-path:url(#SVGID_00000093161763788177773370000007978865009321222847_);}
	.st17{fill:#00EFEF;}
	.st18{fill:url(#SVGID_00000176000728891063588950000008006976581315563437_);}
	.st19{clip-path:url(#SVGID_00000136390282823587238930000009580904665087656856_);}
	.st20{fill:#00E4E4;}
	.st21{fill:none;stroke:#303030;stroke-width:5.3333;stroke-miterlimit:13.3333;}
	.st22{opacity:0.2;clip-path:url(#SVGID_00000078767408708294689540000010287058611201656232_);}
	.st23{fill:#303030;}
	.st24{fill:url(#SVGID_00000022527421461843415620000009954504759809904280_);}
	.st25{fill:url(#SVGID_00000051365052552373872840000010849665692125063568_);}
	.st26{clip-path:url(#SVGID_00000121979686870618347330000007933918850760139144_);}
	.st27{fill:#CC67B9;}
	.st28{fill:url(#SVGID_00000169519290982516754660000013956305429046877319_);}
	.st29{clip-path:url(#SVGID_00000168835690576614358760000007605928618659010716_);}
	.st30{fill:url(#SVGID_00000114075355518782595650000016899562601063514007_);}
	.st31{clip-path:url(#SVGID_00000075862520512322962620000012165864804460029569_);}
	.st32{fill:#D887C7;}
	.st33{opacity:0.2;clip-path:url(#SVGID_00000128452033329989686950000011754261255840477627_);}
	.st34{fill:url(#SVGID_00000041254112551403644430000014506233649121812139_);}
	.st35{clip-path:url(#SVGID_00000140697338178833896510000017572101895653251217_);}
	.st36{fill:#00E4E4;stroke:#303030;stroke-width:5.3333;stroke-miterlimit:13.3333;}
	.st37{fill:url(#SVGID_00000084487781262840896240000008425036712968184706_);}
	.st38{clip-path:url(#SVGID_00000154405418355945026140000004247947154563795858_);}
	.st39{fill:#75F5F5;}
	.st40{fill:url(#SVGID_00000047028025106080656280000016594187891793110167_);}
	.st41{clip-path:url(#SVGID_00000171684246025254436410000011230523209642411176_);}
	.st42{fill:url(#SVGID_00000150814684880710174360000010855176995488597120_);}
	.st43{clip-path:url(#SVGID_00000168824091285076262650000013789593702893269172_);}
	.st44{fill:url(#SVGID_00000076598610696118798950000005802794787427638153_);}
	.st45{clip-path:url(#SVGID_00000121243242641828635060000006826691624093756826_);}
	.st46{opacity:0.2;clip-path:url(#SVGID_00000181060523195127274500000002601079180065265342_);}
	.st47{fill:url(#SVGID_00000141434106916123083560000017787791292676314279_);}
	.st48{fill:url(#SVGID_00000041264506954562600740000007241687502732847756_);}
	.st49{clip-path:url(#SVGID_00000004521753836074464320000010949178144127985795_);}
	.st50{fill:url(#SVGID_00000052791205401620553270000016140678712411544980_);}
	.st51{clip-path:url(#SVGID_00000171707031979006780580000002296394316418040999_);}
	.st52{fill:url(#SVGID_00000101795990695387918540000004614476923609871011_);}
	.st53{clip-path:url(#SVGID_00000041980822651178612230000014135704850790793108_);}
	.st54{fill:#00E4E4;stroke:#303030;stroke-width:5.3333;stroke-linejoin:round;stroke-miterlimit:13.3333;}
	.st55{fill:url(#SVGID_00000000221029045018686690000012026663937892199065_);}
	.st56{clip-path:url(#SVGID_00000113352674728528085270000005911750879733243023_);}
	.st57{fill:url(#SVGID_00000060017296415982271710000004335525215563022522_);}
	.st58{clip-path:url(#SVGID_00000160893317419926869910000008590164333531539129_);}
	.st59{fill:url(#SVGID_00000063619045297935552570000016447755971512185789_);}
	.st60{clip-path:url(#SVGID_00000096047906755001494370000011662829036783070884_);}
	.st61{opacity:0.2;clip-path:url(#SVGID_00000165930227895606294520000012157080378522635944_);}
	.st62{fill:url(#SVGID_00000051362616687670247620000015218535641944947361_);}
	.st63{fill:url(#SVGID_00000067221006872617987910000009018709932143888020_);}
	.st64{fill:url(#SVGID_00000090293027127513232150000005252224661932884113_);}
	.st65{clip-path:url(#SVGID_00000005977004347979022030000008706132836462070713_);}
	.st66{fill:url(#SVGID_00000044859916011127643930000017236097098640500391_);}
	.st67{fill:url(#SVGID_00000121991853132918188650000013695995260658709125_);}
	.st68{clip-path:url(#SVGID_00000018222312720852289500000002139735352845329053_);}
	.st69{fill:url(#SVGID_00000164488267773521734000000000943124798937776788_);}
	.st70{clip-path:url(#SVGID_00000060752660402541432250000004862572777065845431_);}
	.st71{fill:url(#SVGID_00000090998347163649395830000011253888042775605692_);}
	.st72{clip-path:url(#SVGID_00000094587794988989726530000006690411949764270245_);}
	.st73{opacity:0.2;clip-path:url(#SVGID_00000061434672387815389120000016703595564388338309_);}
	.st74{fill:url(#SVGID_00000042018123617096641440000006675322232753190048_);}
	.st75{fill:url(#SVGID_00000160158175872943361630000018204055719482474400_);}
	.st76{clip-path:url(#SVGID_00000173126870630146232030000009207337948223189672_);}
	.st77{fill:url(#SVGID_00000076575774640309184720000006611077482777891501_);}
	.st78{clip-path:url(#SVGID_00000069360418082129172630000018092666208415495582_);}
	.st79{fill:url(#SVGID_00000029749291842360540940000013094215100888303010_);}
	.st80{clip-path:url(#SVGID_00000021117321151458365300000001972894802972792758_);}
	.st81{fill:url(#SVGID_00000062886092880274068710000000777160217147633826_);}
	.st82{clip-path:url(#SVGID_00000004539286938555164080000008428282837805910206_);}
	.st83{fill:url(#SVGID_00000014631167924638290020000001259437041410235321_);}
	.st84{clip-path:url(#SVGID_00000045620336914819666910000012884630133494630335_);}
	.st85{fill:url(#SVGID_00000097497244494285264510000008436091939544079254_);}
	.st86{clip-path:url(#SVGID_00000110450909976784804440000012901740724834732976_);}
	.st87{fill:url(#SVGID_00000002379643595270137660000004150152462104288952_);}
	.st88{clip-path:url(#SVGID_00000026845441200374418930000015459594226565396159_);}
	.st89{opacity:0.2;clip-path:url(#SVGID_00000129176758788844033970000005912327430665218691_);}
	.st90{fill:url(#SVGID_00000031904126035877391870000001164424317016820876_);}
	.st91{fill:url(#SVGID_00000109013140092985884980000017997767187599360649_);}
	.st92{fill:url(#SVGID_00000026150328931857654560000013193711953934723209_);}
	.st93{fill:url(#SVGID_00000091710637071361706750000009147464997441569680_);}
	.st94{fill:url(#SVGID_00000121965612944628432920000006490374654924318873_);}
	.st95{clip-path:url(#SVGID_00000177451031760736655640000005314474032097773212_);}
	.st96{fill:url(#SVGID_00000020375431930337179240000002364199531013770642_);}
	.st97{clip-path:url(#SVGID_00000137814542711233267340000012563698506665512636_);}
	.st98{fill:url(#SVGID_00000091724986590709296690000009694560485833638072_);}
	.st99{clip-path:url(#SVGID_00000155126102701322841480000012379020497134083476_);}
	.st100{fill:url(#SVGID_00000162352763240757044580000011182844903570496176_);}
	.st101{clip-path:url(#SVGID_00000011033752689894695420000007938817797589772447_);}
	.st102{fill:none;stroke:#E3A6D6;stroke-width:5.3333;stroke-linecap:round;stroke-linejoin:round;stroke-miterlimit:13.3333;}
	.st103{fill:url(#SVGID_00000174593875313841824450000014790292083137635721_);}
	.st104{clip-path:url(#SVGID_00000139258973777852374230000018290582569319261835_);}
	.st105{fill:url(#SVGID_00000147219397129093099300000008034124263790411140_);}
	.st106{clip-path:url(#SVGID_00000148637092003960863120000010003998838526631297_);}
	.st107{fill:#FFFFFF;}
	.st108{opacity:0.2;clip-path:url(#SVGID_00000092457406654200847800000001764917699282006431_);}
	.st109{fill:url(#SVGID_00000121993921924571966890000003616424228860572851_);}
	.st110{fill:url(#SVGID_00000133502182352977756490000000254032650902536607_);}
	.st111{fill:url(#SVGID_00000004514142400021564230000001134057750136383637_);}
	.st112{fill:url(#SVGID_00000016060099341566915620000005131582690519014789_);}
	.st113{clip-path:url(#SVGID_00000121278715324436927180000010941028826927546775_);}
	.st114{fill:#CC67B9;stroke:#303030;stroke-width:5.3333;stroke-linejoin:round;stroke-miterlimit:13.3333;}
	.st115{fill:url(#SVGID_00000163073325084981866990000004343804620580386463_);}
	.st116{clip-path:url(#SVGID_00000009576676310364241530000002568193677530520741_);}
	.st117{fill:url(#SVGID_00000160161935884153171120000015326377714995206276_);}
	.st118{clip-path:url(#SVGID_00000131325784482160872920000008652170207128337811_);}
	.st119{fill:url(#SVGID_00000149342739391907529320000001146791901190888636_);}
	.st120{clip-path:url(#SVGID_00000028323162076896801670000016308600005945240976_);}
	.st121{fill:url(#SVGID_00000180326635333978714650000003727504204086034360_);}
	.st122{clip-path:url(#SVGID_00000023963871378825247140000004618297026773067955_);}
	.st123{fill:url(#SVGID_00000153686654334699340770000009854486837077521034_);}
	.st124{clip-path:url(#SVGID_00000176013684578502634080000003972853592553579708_);}
	.st125{fill:url(#SVGID_00000134951010960652826430000008731588863751182741_);}
	.st126{clip-path:url(#SVGID_00000088814413730143387740000014388889063698453903_);}
	.st127{fill:url(#SVGID_00000042737806237204652800000010948257219537745325_);}
	.st128{clip-path:url(#SVGID_00000121256510125880591430000005472757104034432408_);}
	.st129{fill:url(#SVGID_00000162318315875527601920000010596522888422946432_);}
	.st130{clip-path:url(#SVGID_00000070833688262609385040000001190096065586336132_);}
	.st131{fill:url(#SVGID_00000080172130153261179090000004907922068582816671_);}
	.st132{clip-path:url(#SVGID_00000110436987908774682910000004608223336633735070_);}
	.st133{fill:url(#SVGID_00000029024717846372552230000015984677230631050686_);}
	.st134{clip-path:url(#SVGID_00000021120498900994454090000007690801475755057593_);}
	.st135{fill:url(#SVGID_00000158710984322023816160000017334982337683902615_);}
	.st136{clip-path:url(#SVGID_00000073702250162896947980000000769003321097175436_);}
	.st137{opacity:0.2;clip-path:url(#SVGID_00000071547768368186059910000002009840288791869105_);}
	.st138{fill:url(#SVGID_00000021120484099936915450000013270539928856986759_);}
	.st139{fill:#A796A8;}
	.st140{fill:#D3C2D2;}
	.st141{fill:#EFE8EF;}
	.st142{fill:#5A4D5B;}
	.st143{fill:#716172;}
	.st144{fill:#B0EEFF;}
	.st145{fill:#4A8BF0;}
	.st146{fill:#67C2FF;}
	.st147{fill:#4E886D;}
	.st148{fill:#B0CF43;}
	.st149{fill:#70A950;}
	.st150{fill:#EBE858;}
	.st151{fill:url(#SVGID_00000046316267923057857630000000976819388784974013_);}
	.st152{fill:#E53557;}
	.st153{fill:#AF1E4B;}
	.st154{fill:#422F38;}
	.st155{fill:#F99027;}
	.st156{fill:#FFC840;}
	.st157{fill:#DF3359;}
	.st158{fill:#FFC5C5;}
	.st159{fill:#FA5262;}
	.st160{fill:#FF9BB2;}
	.st161{fill:#FF826F;}
	.st162{fill:#FFE783;}
	.st163{fill:#FFD45A;}
	.st164{fill:#F28033;}
	.st165{fill:#D56132;}
	.st166{fill:#FC9A2C;}
	.st167{fill:#E0692B;}
	.st168{fill:#FFDE6F;}
	.st169{opacity:0.59;}
</style>
<g>
	<g>
		<defs>
			<rect id="SVGID_00000114065695274525309670000009854549915933852050_" x="426.2" y="-271.4" width="200" height="200"/>
		</defs>
		<clipPath id="SVGID_00000090259071084507414070000004165506478963005115_">
			<use xlink:href="#SVGID_00000114065695274525309670000009854549915933852050_"  style="overflow:visible;"/>
		</clipPath>
		
			<g transform="matrix(1.33333 0 0 -1.33333 0 200)" style="clip-path:url(#SVGID_00000090259071084507414070000004165506478963005115_);">
			<g>
				<defs>
					<rect id="SVGID_00000160878731124767609440000013817169669498228926_" x="-70.7" y="38.5" width="1066.7" height="800"/>
				</defs>
				<clipPath id="SVGID_00000021101671458215899640000010060206260409506722_">
					<use xlink:href="#SVGID_00000160878731124767609440000013817169669498228926_"  style="overflow:visible;"/>
				</clipPath>
				<g style="opacity:0.2;clip-path:url(#SVGID_00000021101671458215899640000010060206260409506722_);">
					<path class="st23" d="M862.7,738.5h-800v-600h800V738.5z M857.7,143.5h-790v590h790V143.5z"/>
				</g>
			</g>
		</g>
	</g>
</g>
<g>
	<g>
		<defs>
			<rect id="SVGID_00000053540314422016267860000010276043836776329915_" x="212.9" y="-271.4" width="200" height="200"/>
		</defs>
		<clipPath id="SVGID_00000060736481867364899380000017730354641309117866_">
			<use xlink:href="#SVGID_00000053540314422016267860000010276043836776329915_"  style="overflow:visible;"/>
		</clipPath>
		
			<g transform="matrix(1.33333 0 0 -1.33333 0 200)" style="clip-path:url(#SVGID_00000060736481867364899380000017730354641309117866_);">
			<g>
				<defs>
					<rect id="SVGID_00000182511124914243256540000003258562856893936778_" x="-550.6" y="38.5" width="1066.7" height="800"/>
				</defs>
				<clipPath id="SVGID_00000086657176962379777150000015380198720543101320_">
					<use xlink:href="#SVGID_00000182511124914243256540000003258562856893936778_"  style="overflow:visible;"/>
				</clipPath>
				<g style="opacity:0.2;clip-path:url(#SVGID_00000086657176962379777150000015380198720543101320_);">
					<path class="st23" d="M382.7,738.5h-800v-600h800V738.5z M377.7,143.5h-790v590h790V143.5z"/>
				</g>
			</g>
		</g>
	</g>
</g>
<g>
	<g>
		<defs>
			<rect id="SVGID_00000070801916612387571520000011825366750155544965_" x="212.9" y="-484.7" width="200" height="200"/>
		</defs>
		<clipPath id="SVGID_00000178907340882645087130000008143776538498650496_">
			<use xlink:href="#SVGID_00000070801916612387571520000011825366750155544965_"  style="overflow:visible;"/>
		</clipPath>
		
			<g transform="matrix(1.33333 0 0 -1.33333 0 200)" style="clip-path:url(#SVGID_00000178907340882645087130000008143776538498650496_);">
			<g>
				<defs>
					<rect id="SVGID_00000137098669987950720930000007864841218711114169_" x="-230.7" y="38.5" width="1066.7" height="800"/>
				</defs>
				<clipPath id="SVGID_00000151545394670524518390000004450111006653929383_">
					<use xlink:href="#SVGID_00000137098669987950720930000007864841218711114169_"  style="overflow:visible;"/>
				</clipPath>
				<g style="opacity:0.2;clip-path:url(#SVGID_00000151545394670524518390000004450111006653929383_);">
					<path class="st23" d="M702.7,738.5h-800v-600h800V738.5z M697.7,143.5h-790v590h790V143.5z"/>
				</g>
			</g>
		</g>
	</g>
</g>
<g>
	<g>
		<defs>
			<rect id="SVGID_00000124120815750423452160000002448855929057964963_" x="426.2" y="-484.7" width="200" height="200"/>
		</defs>
		<clipPath id="SVGID_00000130624077389695754720000001278491324831193989_">
			<use xlink:href="#SVGID_00000124120815750423452160000002448855929057964963_"  style="overflow:visible;"/>
		</clipPath>
		
			<g transform="matrix(1.33333 0 0 -1.33333 0 200)" style="clip-path:url(#SVGID_00000130624077389695754720000001278491324831193989_);">
			<g>
				<defs>
					<rect id="SVGID_00000072992715859501828010000015878512852492666002_" x="-230.7" y="38.5" width="1066.7" height="800"/>
				</defs>
				<clipPath id="SVGID_00000095314774356115368240000012504838465968601247_">
					<use xlink:href="#SVGID_00000072992715859501828010000015878512852492666002_"  style="overflow:visible;"/>
				</clipPath>
				<g style="opacity:0.2;clip-path:url(#SVGID_00000095314774356115368240000012504838465968601247_);">
					<path class="st23" d="M702.7,738.5h-800v-600h800V738.5z M697.7,143.5h-790v590h790V143.5z"/>
				</g>
			</g>
		</g>
	</g>
</g>
<linearGradient id="SVGID_1_" gradientUnits="userSpaceOnUse" x1="702.9374" y1="86.7518" x2="703.9374" y2="86.7518" gradientTransform="matrix(0 -799.998 -799.998 0 69501.25 562848.5)">
	<stop  offset="0" style="stop-color:#D887C7"/>
	<stop  offset="0.229" style="stop-color:#D887C7"/>
	<stop  offset="1" style="stop-color:#00E4E4"/>
</linearGradient>
<path class="st0" d="M0,200h200V0H0V200z"/>
<g>
	<defs>
		<rect id="SVGID_00000104699522144734950620000015131073236883270566_" x="1.3" y="-271.4" width="200" height="200"/>
	</defs>
	<clipPath id="SVGID_00000134929490652664852990000005266133720169719949_">
		<use xlink:href="#SVGID_00000104699522144734950620000015131073236883270566_"  style="overflow:visible;"/>
	</clipPath>
	
		<g transform="matrix(1.33333 0 0 -1.33333 0 200)" style="clip-path:url(#SVGID_00000134929490652664852990000005266133720169719949_);">
		<g>
			<defs>
				<rect id="SVGID_00000146492360797469061640000006539099482897687206_" x="-709.4" y="-121.5" width="1066.7" height="800"/>
			</defs>
			<clipPath id="SVGID_00000068669211112645676100000003869878308030452129_">
				<use xlink:href="#SVGID_00000146492360797469061640000006539099482897687206_"  style="overflow:visible;"/>
			</clipPath>
			<g style="opacity:0.2;clip-path:url(#SVGID_00000068669211112645676100000003869878308030452129_);">
				<path class="st23" d="M224,578.5h-800v-600h800V578.5z M219-16.5h-790v590h790V-16.5z"/>
			</g>
		</g>
	</g>
</g>
<g>
	<g>
		<g>
			<path class="st147" d="M63.6,174.4c-2.3,0-4.4-1.6-4.9-4C50,130.6,73.5,106.4,92,91.7c2.2-1.7,5.3-1.4,7.1,0.8
				c1.7,2.2,1.4,5.3-0.8,7.1c-26.3,21-35.5,42.2-29.7,68.8c0.6,2.7-1.1,5.4-3.8,6C64.3,174.4,63.9,174.4,63.6,174.4z"/>
		</g>
	</g>
	<g>
		<g>
			<path class="st147" d="M137.5,129.9c-1.6-5.9-6.1-11.7-14-18.5c-4.9-4.2-9.6-7.5-9.8-7.6l-6.4-4.4c-0.6-0.4-1-1-1-1.7l0,0
				c-0.2-1.5,1.1-2.8,2.7-2.7l0,0c1.3,0.1,2.6,0.7,3.6,1.5l4.7,4c0.1,0.1,3,2.5,7,5.4c3.2,2.3,6.4,4.4,9.5,6.1
				c6.2,3.4,11.4,4.9,16.2,4.6c0,0,0,0,0.1,0c0.3,0,0.5,0,0.8-0.1h0h0c0,0,0.1,0,0.1,0c8.4-0.8,14.6-8.2,13.9-16.6v0v0
				c0-0.1,0-0.1,0-0.2c0-0.1,0-0.3,0-0.4c0-0.1,0-0.1,0-0.2c0-0.1,0-0.3-0.1-0.4c0,0,0-0.1,0-0.1c-1.1-6-5.5-10.6-11.2-12.1
				c0,0,0,0,0,0c0.2-0.1,0.3-0.2,0.5-0.2c0.1,0,0.1-0.1,0.2-0.1c0.1-0.1,0.2-0.1,0.3-0.2c0.1,0,0.1-0.1,0.2-0.1
				c0.1-0.1,0.2-0.1,0.3-0.2c0.1,0,0.1-0.1,0.2-0.1c0.1-0.1,0.2-0.1,0.3-0.2c0.1,0,0.1-0.1,0.2-0.1c0.1-0.1,0.2-0.1,0.3-0.2
				c0.1,0,0.1-0.1,0.2-0.2c0.1-0.1,0.2-0.1,0.2-0.2c0.1-0.1,0.1-0.1,0.2-0.2c0.1-0.1,0.2-0.1,0.2-0.2c0.1-0.1,0.1-0.1,0.2-0.2
				c0.1-0.1,0.2-0.1,0.2-0.2c0.1-0.1,0.1-0.1,0.2-0.2c0.1-0.1,0.1-0.1,0.2-0.2c0.1-0.1,0.1-0.1,0.2-0.2c0.1-0.1,0.1-0.1,0.2-0.2
				c0.1-0.1,0.1-0.1,0.2-0.2c0.1-0.1,0.1-0.2,0.2-0.2c0.1-0.1,0.1-0.1,0.2-0.2c0.1-0.1,0.1-0.2,0.2-0.2c0.1-0.1,0.1-0.1,0.2-0.2
				c0.1-0.1,0.1-0.2,0.2-0.2c0.1-0.1,0.1-0.1,0.2-0.2c0.1-0.1,0.1-0.2,0.2-0.3c0-0.1,0.1-0.1,0.1-0.2c0.1-0.1,0.1-0.2,0.2-0.3
				c0-0.1,0.1-0.1,0.1-0.2c0.1-0.1,0.1-0.2,0.2-0.3c0-0.1,0.1-0.1,0.1-0.2c0.1-0.1,0.1-0.3,0.2-0.4c0,0,0-0.1,0.1-0.1
				c0.1-0.2,0.2-0.3,0.3-0.5c0,0,0-0.1,0.1-0.1c0.1-0.1,0.1-0.2,0.2-0.4c0-0.1,0.1-0.1,0.1-0.2c0-0.1,0.1-0.2,0.1-0.3
				c0-0.1,0.1-0.1,0.1-0.2c0-0.1,0.1-0.2,0.1-0.3c0-0.1,0.1-0.2,0.1-0.2c0-0.1,0.1-0.2,0.1-0.3c0-0.1,0-0.2,0.1-0.2
				c0-0.1,0.1-0.2,0.1-0.3c0-0.1,0-0.2,0.1-0.2c0-0.1,0.1-0.2,0.1-0.3c0-0.1,0-0.2,0.1-0.3c0-0.1,0-0.2,0.1-0.3c0-0.1,0-0.2,0-0.3
				c0-0.1,0-0.2,0.1-0.3c0-0.1,0-0.2,0-0.3c0-0.1,0-0.2,0-0.3c0-0.1,0-0.2,0-0.3c0-0.1,0-0.2,0-0.3c0-0.1,0-0.2,0-0.3
				c0-0.1,0-0.2,0-0.3c0-0.1,0-0.2,0-0.3c0-0.1,0-0.2,0-0.3c0-0.1,0-0.2,0-0.3c0,0,0-0.1,0-0.1c0-0.1,0-0.1,0-0.2c0-0.2,0-0.4,0-0.5
				c0-0.1,0-0.1,0-0.2c0-0.1,0-0.1,0-0.2c0-0.1,0-0.2,0-0.3c0-0.1,0-0.2,0-0.3c0-0.2-0.1-0.4-0.1-0.6c0,0,0-0.1,0-0.1
				c-1-5.5-4.8-9.8-9.8-11.7c-0.2-0.1-0.3-0.1-0.5-0.2c-0.1,0-0.1,0-0.2-0.1c-1.4-0.5-2.9-0.7-4.4-0.7c0,0,0,0-0.1,0
				c-0.2,0-0.4,0-0.6,0c-0.1,0-0.2,0-0.2,0c-0.1,0-0.1,0-0.2,0c-0.1,0-0.2,0-0.3,0c-0.1,0-0.1,0-0.2,0c-0.1,0-0.1,0-0.2,0
				c-0.1,0-0.1,0-0.2,0c-5.7,0.6-11.5,3.7-18.4,9.8c-2.1,1.8-4.2,3.8-6.2,5.9c0,0-0.1,0.1-0.1,0.1c-3,3.1-5.1,5.6-5.2,5.7l-4.8,5.7
				c-0.7,0.8-1.8,1.3-2.9,1.2l0,0c-1.6-0.2-2.8-1.4-3-2.9l0-0.2c-0.1-1.1,0.3-2.2,1.2-2.9l5.6-4.7c0.2-0.2,4.6-3.8,9.1-8.5
				c7.3-7.5,11.2-13.7,12.3-19.7c1.7-8.9-4.3-17.5-13.4-18.5c-6.8-0.7-13,3-15.7,8.8c-1.6-6.2-7.1-10.9-13.9-11.3
				C81,25,73.5,32.5,73.6,41.6c0.1,6.1,2.8,12.8,8.7,21.5c3.6,5.3,7.3,9.7,7.5,9.9l4.1,4.9c0.8,1,1.4,2.2,1.5,3.5l0,0
				c0.2,1.5-1.1,2.8-2.7,2.7l0,0c-0.7-0.1-1.3-0.4-1.7-1l-4.6-6.5c-0.1-0.2-3.4-4.9-7.7-9.7c-6.9-7.9-12.7-12.3-18.6-14
				c-8.9-2.5-17.9,2.6-19.7,11.6c-1.3,6.7,1.9,13.1,7.4,16.3c-6.3,1.1-11.5,6.1-12.6,12.8c-1.4,9.1,5.3,16.9,14.5,17.6
				c6.1,0.5,13.1-1.7,22.3-6.8c5.6-3.1,10.4-6.4,10.6-6.5l5.6-3.9c1.1-0.8,2.4-1.1,3.7-1l0.3,0c2.6,0.3,4.7,2.3,4.9,4.9l0,0
				c0.1,1.3-0.2,2.6-1,3.7l-4,5.7c-0.1,0.2-3.4,4.9-6.6,10.5c-5.1,9.2-7.3,16.1-6.8,22.2c0.7,9,8.8,15.8,17.7,14.5
				c6.7-1,11.7-6.2,12.8-12.5c3.2,5.5,9.7,8.7,16.4,7.4C134.8,147.7,139.9,138.7,137.5,129.9z"/>
		</g>
	</g>
	<g>
		<g>
			<g>
				<path class="st148" d="M96.4,154.7c6.8-1,11.9-6.2,13-12.5l-5.1-29.1c-1.2-6.8-10.1-8.6-13.9-2.8c-7.1,10.8-13,22.3-11.3,31.9
					C80.6,150.4,88.1,155.9,96.4,154.7z"/>
			</g>
		</g>
		<g>
			<g>
				<path class="st149" d="M109.4,142.2c3,5.1,8.8,8.3,15,7.6c8.7-0.9,15-9,13.6-17.6c-1.6-9.7-11.4-18.8-21.7-26.5
					c-5.5-4.1-13.2,0.6-12,7.4L109.4,142.2L109.4,142.2z"/>
			</g>
		</g>
	</g>
	<g>
		<g>
			<g>
				<path class="st148" d="M89.8,25.6c6.9,0.4,12.4,5.1,14.1,11.4l-2.6,29.4c-0.6,6.8-9.3,9.4-13.6,4c-8-10.2-14.9-21.1-14-30.8
					C74.4,31.3,81.5,25.2,89.8,25.6z"/>
			</g>
		</g>
		<g>
			<g>
				<path class="st149" d="M103.9,37c2.5-5.4,8-9,14.3-8.9c8.7,0.2,15.7,7.7,15.1,16.4c-0.7,9.8-9.7,19.7-19.3,28.2
					c-5.1,4.6-13.2,0.5-12.6-6.3L103.9,37L103.9,37z"/>
			</g>
		</g>
	</g>
	<g>
		<g>
			<g>
				<path class="st149" d="M164.9,100.3c-0.4-6.9-5.2-12.4-11.4-14l-29.5,2.6c-6.9,0.6-9.5,9.3-4,13.5c10.2,8,21.2,14.8,31,14
					C159.2,115.7,165.3,108.6,164.9,100.3z"/>
			</g>
		</g>
		<g>
			<g>
				<path class="st148" d="M153.5,86.3c5.4-2.5,9-8,8.9-14.2c-0.2-8.7-7.7-15.6-16.5-15c-9.8,0.7-19.8,9.7-28.4,19.2
					c-4.6,5.1-0.5,13.2,6.3,12.6L153.5,86.3L153.5,86.3z"/>
			</g>
		</g>
	</g>
	<g>
		<g>
			<g>
				<path class="st149" d="M35.2,93.8c1-6.8,6.2-11.9,12.6-13L77,86c6.8,1.2,8.6,10.1,2.8,13.8C69,106.8,57.4,112.7,47.8,111
					C39.6,109.6,34.1,102.1,35.2,93.8z"/>
			</g>
		</g>
		<g>
			<g>
				<path class="st148" d="M47.8,80.8c-5.2-3-8.3-8.8-7.6-14.9c0.9-8.7,9.1-14.9,17.7-13.5C67.7,54,76.8,63.8,84.5,74
					c4.1,5.5-0.6,13.2-7.4,12L47.8,80.8L47.8,80.8z"/>
			</g>
		</g>
	</g>
	<g>
		<g>
			<g>
				<path class="st150" d="M88.8,52.2L88.8,52.2c-3.9,0-7.1-3.1-7.1-7v-3.6c0-3.9,3.1-7,7-7h0c3.9,0,7,3.1,7,7v3.6
					C95.8,49.1,92.7,52.2,88.8,52.2z"/>
			</g>
		</g>
	</g>
	<g>
		<g>
			<g>
				<path class="st150" d="M66.4,70.6L66.4,70.6c-1,3.7-4.8,6-8.6,5l-3.6-0.9c-3.8-1-6-4.8-5.1-8.6l0,0c1-3.7,4.8-6,8.6-5l3.6,0.9
					C65.1,63,67.3,66.9,66.4,70.6z"/>
			</g>
		</g>
	</g>
</g>
</svg>
