<?xml version="1.0" encoding="utf-8"?>
<!-- Generator: Adobe Illustrator 25.4.1, SVG Export Plug-In . SVG Version: 6.00 Build 0)  -->
<svg version="1.1" id="Layer_1" xmlns="http://www.w3.org/2000/svg" xmlns:xlink="http://www.w3.org/1999/xlink" x="0px" y="0px"
	 viewBox="0 0 200 200" style="enable-background:new 0 0 200 200;" xml:space="preserve">
<style type="text/css">
	.st0{fill:url(#SVGID_1_);}
	.st1{fill:url(#SVGID_00000071537230866415065330000008853780708861911479_);}
	.st2{clip-path:url(#SVGID_00000120541106939661828490000000396375717054172823_);}
	.st3{fill:#8CF7F7;}
	.st4{fill:none;stroke:#303030;stroke-width:5.3333;stroke-linejoin:round;stroke-miterlimit:13.3333;}
	.st5{fill:url(#SVGID_00000100352203300775601110000005502589685631388344_);}
	.st6{clip-path:url(#SVGID_00000039852080034163340040000008171724839707150745_);}
	.st7{fill:#E3A6D6;}
	.st8{fill:url(#SVGID_00000130625470085950063800000004806158732080162958_);}
	.st9{clip-path:url(#SVGID_00000035520289547973119250000014391901124359232444_);}
	.st10{fill:url(#SVGID_00000125585279607192206730000001542777824970324373_);}
	.st11{clip-path:url(#SVGID_00000007426129126292318300000000327052498890728079_);}
	.st12{fill:url(#SVGID_00000054224063947233606710000000635176635751651729_);}
	.st13{clip-path:url(#SVGID_00000168822444382533234530000015661138559864074650_);}
	.st14{fill:none;stroke:#303030;stroke-width:5.3333;stroke-linecap:round;stroke-linejoin:round;stroke-miterlimit:13.3333;}
	.st15{fill:url(#SVGID_00000013902526927292913810000005729238774055135918_);}
	.st16{clip-path:url(#SVGID_00000082346196138098654250000007382455538134991006_);}
	.st17{fill:#00EFEF;}
	.st18{fill:url(#SVGID_00000085240086507638374980000010748959313704366259_);}
	.st19{clip-path:url(#SVGID_00000111871744139992179800000013999930720756067463_);}
	.st20{fill:#00E4E4;}
	.st21{fill:none;stroke:#303030;stroke-width:5.3333;stroke-miterlimit:13.3333;}
	.st22{opacity:0.2;clip-path:url(#SVGID_00000156555438762671206790000006179954610308102792_);}
	.st23{fill:#303030;}
	.st24{fill:url(#SVGID_00000056398598772591167340000000690203530796465802_);}
	.st25{fill:url(#SVGID_00000103244675363144051790000010581811673969127600_);}
	.st26{clip-path:url(#SVGID_00000004519319947645661040000016067164898465441693_);}
	.st27{fill:#CC67B9;}
	.st28{fill:url(#SVGID_00000164501157196670453820000017221292120167270571_);}
	.st29{clip-path:url(#SVGID_00000137133599833995842510000016617693402594940853_);}
	.st30{fill:url(#SVGID_00000159435655913395512210000017310747433400604292_);}
	.st31{clip-path:url(#SVGID_00000018940195933216313100000010601269823516634815_);}
	.st32{fill:#D887C7;}
	.st33{opacity:0.2;clip-path:url(#SVGID_00000001656933415473058610000013512825131026411704_);}
	.st34{fill:url(#SVGID_00000123405410514382827420000011414026915353824416_);}
	.st35{clip-path:url(#SVGID_00000155148349286481244800000006324389070908952478_);}
	.st36{fill:#00E4E4;stroke:#303030;stroke-width:5.3333;stroke-miterlimit:13.3333;}
	.st37{fill:url(#SVGID_00000145777995485092961990000008717582050168389558_);}
	.st38{clip-path:url(#SVGID_00000056401930926945123390000011311379964183748275_);}
	.st39{fill:#75F5F5;}
	.st40{fill:url(#SVGID_00000110432630391449500160000003865346379772661692_);}
	.st41{clip-path:url(#SVGID_00000039125209116607877610000017671777341560646322_);}
	.st42{fill:url(#SVGID_00000017499864771146511970000011206794906874868103_);}
	.st43{clip-path:url(#SVGID_00000141452280073788450570000014824534988103069575_);}
	.st44{fill:url(#SVGID_00000015315278267195578040000005546984291276857255_);}
	.st45{clip-path:url(#SVGID_00000165234996628067951830000013646478809320849308_);}
	.st46{opacity:0.2;clip-path:url(#SVGID_00000038411691303454357490000014595841439394167196_);}
	.st47{fill:url(#SVGID_00000170257327241719038070000000569615048178050204_);}
	.st48{fill:url(#SVGID_00000152246808346907061980000013128196082404233386_);}
	.st49{clip-path:url(#SVGID_00000168822907286881877220000010359732055197065104_);}
	.st50{fill:url(#SVGID_00000049923136655270893500000016121530640818497700_);}
	.st51{clip-path:url(#SVGID_00000101082386817531993840000004379913311982674605_);}
	.st52{fill:url(#SVGID_00000122694687756934785410000017878287372082206115_);}
	.st53{clip-path:url(#SVGID_00000104691813604416982080000007015910112272977281_);}
	.st54{fill:#00E4E4;stroke:#303030;stroke-width:5.3333;stroke-linejoin:round;stroke-miterlimit:13.3333;}
	.st55{fill:url(#SVGID_00000116210294164091618870000010431914648467637145_);}
	.st56{clip-path:url(#SVGID_00000030465069790163223150000016651859093359928206_);}
	.st57{fill:url(#SVGID_00000109734587817116066520000014992969179611820161_);}
	.st58{clip-path:url(#SVGID_00000163044259718609478530000000053047536334886279_);}
	.st59{fill:url(#SVGID_00000127035655646867170540000011430665576134683070_);}
	.st60{clip-path:url(#SVGID_00000153670327303096061000000017886551807438000018_);}
	.st61{opacity:0.2;clip-path:url(#SVGID_00000119801591420308078660000008591677855664268165_);}
	.st62{fill:url(#SVGID_00000119109539585153114780000000179578192712768179_);}
	.st63{fill:url(#SVGID_00000062890783948787714130000005767621405954606983_);}
	.st64{fill:url(#SVGID_00000152954738927984812180000001460862573404710016_);}
	.st65{clip-path:url(#SVGID_00000049902724887754352950000006271558455228103565_);}
	.st66{fill:url(#SVGID_00000048482556782111138000000004783034071580479923_);}
	.st67{fill:url(#SVGID_00000026137930941635175460000006089674763905343902_);}
	.st68{clip-path:url(#SVGID_00000156579714941561367080000014424097658280860835_);}
	.st69{fill:url(#SVGID_00000042700751915787119750000010587247707394903973_);}
	.st70{clip-path:url(#SVGID_00000107590979160056729450000015490817501476913796_);}
	.st71{fill:url(#SVGID_00000137092428947738316830000008573046030471375293_);}
	.st72{clip-path:url(#SVGID_00000174592474823169636830000016265785283897613206_);}
	.st73{opacity:0.2;clip-path:url(#SVGID_00000070097166306061834940000012980548089207379630_);}
	.st74{fill:url(#SVGID_00000099621434773628779410000017360809616825705093_);}
	.st75{fill:url(#SVGID_00000101068563851347423810000001206565107869224890_);}
	.st76{clip-path:url(#SVGID_00000112630620213397840050000007314666055617205889_);}
	.st77{fill:url(#SVGID_00000006677173597984153370000007886376110838688128_);}
	.st78{clip-path:url(#SVGID_00000003815709836786327560000002917455866515466171_);}
	.st79{fill:url(#SVGID_00000101097052129485108270000003593361682352984246_);}
	.st80{clip-path:url(#SVGID_00000071557734457443096970000016653463644034736811_);}
	.st81{fill:url(#SVGID_00000002376856638424019670000003971108743648666514_);}
	.st82{clip-path:url(#SVGID_00000089543209470337657530000015934040192491623042_);}
	.st83{fill:url(#SVGID_00000052826451127557984400000002111665084771002008_);}
	.st84{clip-path:url(#SVGID_00000147908461940684685930000014371465918771877542_);}
	.st85{fill:url(#SVGID_00000047032220060815638810000002637310138111286169_);}
	.st86{clip-path:url(#SVGID_00000052101442918833017290000010656920083548087189_);}
	.st87{fill:url(#SVGID_00000099646993508375549230000016650263441945508287_);}
	.st88{clip-path:url(#SVGID_00000015326117142794594200000004145294686560164020_);}
	.st89{opacity:0.2;clip-path:url(#SVGID_00000059297987409422624780000010822335078538680481_);}
	.st90{fill:url(#SVGID_00000031174217950021299930000014061379997187999649_);}
	.st91{fill:url(#SVGID_00000096019759550531813250000003089534701145841846_);}
	.st92{fill:url(#SVGID_00000160900575494302118890000006776552732489255579_);}
	.st93{fill:url(#SVGID_00000114070077443722792140000004757825662552260280_);}
	.st94{fill:url(#SVGID_00000152957732228395175480000017327603489266224572_);}
	.st95{clip-path:url(#SVGID_00000018922090857185521580000005172805813808194965_);}
	.st96{fill:url(#SVGID_00000133501185057771925520000009901272777357010322_);}
	.st97{clip-path:url(#SVGID_00000091732222246039826740000005211361895354492064_);}
	.st98{fill:url(#SVGID_00000122722133542977294270000006131395315533273496_);}
	.st99{clip-path:url(#SVGID_00000119101225542122182070000011256786565435137978_);}
	.st100{fill:url(#SVGID_00000038383212407532962070000002653690622581308566_);}
	.st101{clip-path:url(#SVGID_00000134241052644449852940000016165972319035665597_);}
	.st102{fill:none;stroke:#E3A6D6;stroke-width:5.3333;stroke-linecap:round;stroke-linejoin:round;stroke-miterlimit:13.3333;}
	.st103{fill:url(#SVGID_00000071541267458233093160000003579684751828590516_);}
	.st104{clip-path:url(#SVGID_00000087386112931398591490000011049161423739007387_);}
	.st105{fill:url(#SVGID_00000097463840125671368020000007570322367371760018_);}
	.st106{clip-path:url(#SVGID_00000029730420646502779590000006857125052341187758_);}
	.st107{fill:#FFFFFF;}
	.st108{opacity:0.2;clip-path:url(#SVGID_00000122686597454270374100000009807282006752703421_);}
	.st109{fill:url(#SVGID_00000077316960172366104760000009451893180034593152_);}
	.st110{fill:url(#SVGID_00000082338462480583621410000017711748165210351029_);}
	.st111{fill:url(#SVGID_00000098912388473082518100000012819084971349215123_);}
	.st112{fill:url(#SVGID_00000052099052524850138470000007897738473142270395_);}
	.st113{clip-path:url(#SVGID_00000051371250890103564740000009355410766987054509_);}
	.st114{fill:#CC67B9;stroke:#303030;stroke-width:5.3333;stroke-linejoin:round;stroke-miterlimit:13.3333;}
	.st115{fill:url(#SVGID_00000071527769496103235630000006534255239436156851_);}
	.st116{clip-path:url(#SVGID_00000002365984683715369100000001151828826160372108_);}
	.st117{fill:url(#SVGID_00000036235594957722167150000011351369116118860184_);}
	.st118{clip-path:url(#SVGID_00000077293631027620925720000018014575995746464438_);}
	.st119{fill:url(#SVGID_00000039122238903941324950000011802741972192515220_);}
	.st120{clip-path:url(#SVGID_00000161633636817564500060000005199469155313025925_);}
	.st121{fill:url(#SVGID_00000136375964391203894600000009988536499407991220_);}
	.st122{clip-path:url(#SVGID_00000119832373877260014810000000718485108226969522_);}
	.st123{fill:url(#SVGID_00000088829457333067598560000011075756675359547010_);}
	.st124{clip-path:url(#SVGID_00000160166143007845121530000015861068518064272787_);}
	.st125{fill:url(#SVGID_00000121958907908382303790000014816938052334278334_);}
	.st126{clip-path:url(#SVGID_00000030461694042210192310000018386404892819977883_);}
	.st127{fill:url(#SVGID_00000034808792717416560640000007346575524126165646_);}
	.st128{clip-path:url(#SVGID_00000156573295919166895780000012353347692589759110_);}
	.st129{fill:url(#SVGID_00000132067018455741880410000002199130206742563231_);}
	.st130{clip-path:url(#SVGID_00000019661533964959115590000014823872308899288456_);}
	.st131{fill:url(#SVGID_00000134210537254140844820000009214392415097930404_);}
	.st132{clip-path:url(#SVGID_00000014595468551649209430000017619201504000074157_);}
	.st133{fill:url(#SVGID_00000122680651819937466300000017463952402035887285_);}
	.st134{clip-path:url(#SVGID_00000034087793978395736640000009233609814051365255_);}
	.st135{fill:url(#SVGID_00000040560580082083804970000007241523771799024300_);}
	.st136{clip-path:url(#SVGID_00000107550315312452908210000010511701078294274997_);}
	.st137{opacity:0.2;clip-path:url(#SVGID_00000121247756030785999380000003231813124823381695_);}
	.st138{fill:url(#SVGID_00000002369563786825003720000008405467530143307137_);}
	.st139{fill:#A796A8;}
	.st140{fill:#D3C2D2;}
	.st141{fill:#EFE8EF;}
	.st142{fill:#5A4D5B;}
	.st143{fill:#716172;}
	.st144{fill:#B0EEFF;}
	.st145{fill:#4A8BF0;}
	.st146{fill:#67C2FF;}
	.st147{fill:#4E886D;}
	.st148{fill:#B0CF43;}
	.st149{fill:#70A950;}
	.st150{fill:#EBE858;}
	.st151{fill:url(#SVGID_00000161593249516233916100000006650967761257078940_);}
	.st152{fill:#E53557;}
	.st153{fill:#AF1E4B;}
	.st154{fill:#422F38;}
	.st155{fill:#F99027;}
	.st156{fill:#FFC840;}
	.st157{fill:#DF3359;}
	.st158{fill:#FFC5C5;}
	.st159{fill:#FA5262;}
	.st160{fill:#FF9BB2;}
	.st161{fill:#FF826F;}
	.st162{fill:#FFE783;}
	.st163{fill:#FFD45A;}
	.st164{fill:#F28033;}
	.st165{fill:#D56132;}
	.st166{fill:#FC9A2C;}
	.st167{fill:#E0692B;}
	.st168{fill:#FFDE6F;}
	.st169{opacity:0.59;}
</style>
<g>
	<g>
		<defs>
			<rect id="SVGID_00000173846122975046876510000015520441463007811500_" x="856.4" y="-706.8" width="200" height="200"/>
		</defs>
		<clipPath id="SVGID_00000021828206852355391890000010866559801887650440_">
			<use xlink:href="#SVGID_00000173846122975046876510000015520441463007811500_"  style="overflow:visible;"/>
		</clipPath>
		
			<g transform="matrix(1.33333 0 0 -1.33333 0 200)" style="clip-path:url(#SVGID_00000021828206852355391890000010866559801887650440_);">
			<g>
				<defs>
					<rect id="SVGID_00000023966878568924842050000014068215425500678308_" x="-68.1" y="45.1" width="1066.7" height="800"/>
				</defs>
				<clipPath id="SVGID_00000016779061401145844650000016786238272777211546_">
					<use xlink:href="#SVGID_00000023966878568924842050000014068215425500678308_"  style="overflow:visible;"/>
				</clipPath>
				<g style="opacity:0.2;clip-path:url(#SVGID_00000016779061401145844650000016786238272777211546_);">
					<path class="st23" d="M865.3,745.1h-800v-600h800V745.1z M860.3,150.1h-790v590h790V150.1z"/>
				</g>
			</g>
		</g>
	</g>
</g>
<g>
	<g>
		<defs>
			<rect id="SVGID_00000058579095448632020560000010763924413820889750_" x="643" y="-706.8" width="200" height="200"/>
		</defs>
		<clipPath id="SVGID_00000073697108237501201730000009181792110817023409_">
			<use xlink:href="#SVGID_00000058579095448632020560000010763924413820889750_"  style="overflow:visible;"/>
		</clipPath>
		
			<g transform="matrix(1.33333 0 0 -1.33333 0 200)" style="clip-path:url(#SVGID_00000073697108237501201730000009181792110817023409_);">
			<g>
				<defs>
					<rect id="SVGID_00000092454199715875006030000011282620144638621610_" x="-68.1" y="45.1" width="1066.7" height="800"/>
				</defs>
				<clipPath id="SVGID_00000166650371623181421690000004106135157088619928_">
					<use xlink:href="#SVGID_00000092454199715875006030000011282620144638621610_"  style="overflow:visible;"/>
				</clipPath>
				<g style="opacity:0.2;clip-path:url(#SVGID_00000166650371623181421690000004106135157088619928_);">
					<path class="st23" d="M865.3,745.1h-800v-600h800V745.1z M860.3,150.1h-790v590h790V150.1z"/>
				</g>
			</g>
		</g>
	</g>
</g>
<linearGradient id="SVGID_1_" gradientUnits="userSpaceOnUse" x1="492.7997" y1="-135.383" x2="493.7997" y2="-135.383" gradientTransform="matrix(0 -799.998 -799.998 0 -108206.1094 394738.75)">
	<stop  offset="0" style="stop-color:#D887C7"/>
	<stop  offset="0.2285" style="stop-color:#D887C7"/>
	<stop  offset="1" style="stop-color:#00E4E4"/>
</linearGradient>
<path class="st0" d="M0,200h200V0H0V200z"/>
<g>
	<defs>
		<rect id="SVGID_00000139988174648227379540000015372381530190142880_" x="429.7" y="-706.8" width="200" height="200"/>
	</defs>
	<clipPath id="SVGID_00000098218841406407583410000009802709939870301095_">
		<use xlink:href="#SVGID_00000139988174648227379540000015372381530190142880_"  style="overflow:visible;"/>
	</clipPath>
	
		<g transform="matrix(1.33333 0 0 -1.33333 0 200)" style="clip-path:url(#SVGID_00000098218841406407583410000009802709939870301095_);">
		<g>
			<defs>
				<rect id="SVGID_00000000215295713252029120000010448879948005955468_" x="-68.1" y="45.1" width="1066.7" height="800"/>
			</defs>
			<clipPath id="SVGID_00000158738424421299035060000010850414874984638365_">
				<use xlink:href="#SVGID_00000000215295713252029120000010448879948005955468_"  style="overflow:visible;"/>
			</clipPath>
			<g style="opacity:0.2;clip-path:url(#SVGID_00000158738424421299035060000010850414874984638365_);">
				<path class="st23" d="M865.3,745.1h-800v-600h800V745.1z M860.3,150.1h-790v590h790V150.1z"/>
			</g>
		</g>
	</g>
</g>
<g>
	<defs>
		<rect id="SVGID_00000104699522144734950620000015131073236883270566_" x="-208.6" y="-493.5" width="200" height="200"/>
	</defs>
	<clipPath id="SVGID_00000020394603376470305280000014841429280195883708_">
		<use xlink:href="#SVGID_00000104699522144734950620000015131073236883270566_"  style="overflow:visible;"/>
	</clipPath>
	
		<g transform="matrix(1.33333 0 0 -1.33333 0 200)" style="clip-path:url(#SVGID_00000020394603376470305280000014841429280195883708_);">
		<g>
			<defs>
				<rect id="SVGID_00000146492360797469061640000006539099482897687206_" x="-866.8" y="45.1" width="1066.7" height="800"/>
			</defs>
			<clipPath id="SVGID_00000070799555465749133480000012326574512981905321_">
				<use xlink:href="#SVGID_00000146492360797469061640000006539099482897687206_"  style="overflow:visible;"/>
			</clipPath>
			<g style="opacity:0.2;clip-path:url(#SVGID_00000070799555465749133480000012326574512981905321_);">
				<path class="st23" d="M66.6,745.1h-800v-600h800V745.1z M61.6,150.1h-790v590h790V150.1z"/>
			</g>
		</g>
	</g>
</g>
<g>
	<g>
		<g>
			<g>
				<g>
					<path class="st139" d="M70.8,167.1l15.9-16.2l-17.6-41.5c-3.5-8.3-3.5-17.8,0-26c5.4-12.8,17-20.4,30.9-20.4
						c13.9,0,25.5,7.6,30.9,20.4c3.5,8.3,3.5,17.8,0,26l-17.6,41.5l15.9,16.2c4.7,4.9,12.9,3.3,15.6-2.9l17.6-41.6
						c7.1-16.7,7.1-35.8,0-52.5c-5.5-12.9-14.5-23.6-26.1-30.9c-10.8-6.7-23.3-10.3-36.3-10.3c-12.9,0-25.5,3.6-36.3,10.3
						c-11.6,7.3-20.6,17.9-26.1,30.9v0c-7.1,16.7-7.1,35.8,0,52.5l17.6,41.6C57.9,170.4,66.1,171.9,70.8,167.1z"/>
				</g>
			</g>
		</g>
	</g>
	<g>
		<g>
			<g>
				<g>
					<path class="st140" d="M162.4,122.6l-4.8,11.2c-1.6,3.8-5.9,5.6-9.7,4.2l-17.6-6.5c-4.1-1.5-6.1-6.1-4.4-10.1l5.1-12
						c3.5-8.3,3.5-17.8,0-26c-5.4-12.8-17-20.4-30.9-20.4c-13.9,0-25.5,7.6-30.9,20.4c-3.5,8.3-3.5,17.8,0,26l5.1,12
						c1.7,4-0.3,8.6-4.4,10.1L52.1,138c-3.9,1.4-8.1-0.4-9.7-4.2l-4.8-11.2c-3.5-8.3-5.3-17.3-5.3-26.2c0-9,1.8-17.9,5.3-26.2
						c5.5-12.9,14.5-23.6,26.1-30.9C74.5,32.5,87,28.9,100,28.9c12.9,0,25.5,3.6,36.3,10.3c11.6,7.3,20.6,17.9,26.1,30.9
						C169.5,86.8,169.5,105.9,162.4,122.6z"/>
				</g>
			</g>
		</g>
	</g>
	<g>
		<g>
			<g>
				<g>
					<path class="st141" d="M142.9,173l-31.4-11.7c-2.5-0.9-3.8-3.7-2.9-6.3l6.6-17.6c0.9-2.5,3.8-3.8,6.3-2.9l31.4,11.7
						c2.5,0.9,3.8,3.7,2.9,6.3l-6.6,17.6C148.3,172.7,145.4,174,142.9,173z"/>
				</g>
			</g>
		</g>
		<g>
			<g>
				<g>
					<path class="st139" d="M143.5,173.2l-32.6-12.1c-2.2-0.8-3.3-3.3-2.5-5.5l4.5-12.1c0.8-2.2,3.3-3.3,5.5-2.5l32.6,12.1
						c2.2,0.8,3.3,3.3,2.5,5.5l-4.5,12.1C148.2,172.9,145.7,174.1,143.5,173.2z"/>
				</g>
			</g>
		</g>
		<g>
			<g>
				<path class="st140" d="M118.4,141c-2.2-0.8-4.7,0.3-5.5,2.5l-2.2,6c-0.9,2.4,0.3,5.1,2.8,6l17.3,6.4c8.3,3.1,17.4-0.6,21.4-8.2
					c-0.3-0.3-0.7-0.5-1.1-0.6L118.4,141z"/>
			</g>
		</g>
	</g>
	<g>
		<g>
			<g>
				<g>
					<path class="st141" d="M57.1,173l31.4-11.7c2.5-0.9,3.8-3.7,2.9-6.3l-6.6-17.6c-0.9-2.5-3.8-3.8-6.3-2.9l-31.4,11.7
						c-2.5,0.9-3.8,3.7-2.9,6.3l6.6,17.6C51.7,172.7,54.6,174,57.1,173z"/>
				</g>
			</g>
		</g>
		<g>
			<g>
				<g>
					<path class="st139" d="M56.5,173.2l32.6-12.1c2.2-0.8,3.3-3.3,2.5-5.5l-4.5-12.1c-0.8-2.2-3.3-3.3-5.5-2.5L49,153.1
						c-2.2,0.8-3.3,3.3-2.5,5.5l4.5,12.1C51.8,172.9,54.3,174.1,56.5,173.2z"/>
				</g>
			</g>
		</g>
		<g>
			<g>
				<path class="st140" d="M81.6,141c2.2-0.8,4.7,0.3,5.5,2.5l2.2,6c0.9,2.4-0.3,5.1-2.8,6L69.2,162c-8.3,3.1-17.4-0.6-21.4-8.2
					c0.3-0.3,0.7-0.5,1.1-0.6L81.6,141z"/>
			</g>
		</g>
	</g>
	<g>
		<g>
			<g>
				<g>
					<path class="st139" d="M144,130.7c-1.1,0-2.2-0.2-3.2-0.7c-4.2-1.8-6.2-6.6-4.4-10.9l2.7-6.3c4.4-10.4,4.4-22.4,0-32.8
						c-3-7.1-7.5-13-13.4-17.4c-3.7-2.8-4.4-7.9-1.6-11.6c2.8-3.7,8-4.4,11.7-1.6c8.3,6.2,14.6,14.3,18.8,24.2
						c6.2,14.5,6.2,31.2,0,45.7l-2.7,6.3C150.3,128.8,147.2,130.7,144,130.7z"/>
				</g>
			</g>
		</g>
		<g>
			<g>
				<g>
					<path class="st142" d="M144.8,120.5c-2.4-1-3.6-3.8-2.6-6.3l0,0c1-2.4,3.9-3.6,6.3-2.5l0,0c2.4,1,3.6,3.8,2.6,6.3l0,0
						c-0.8,1.8-2.6,2.9-4.4,2.9l0,0C146,120.9,145.4,120.7,144.8,120.5z M145.9,96.4c0-2.6,2.1-4.8,4.8-4.8l0,0
						c2.7,0,4.8,2.1,4.8,4.8l0,0c0,2.6-2.1,4.8-4.8,4.8l0,0c0,0,0,0,0,0l0,0C148,101.1,145.9,99,145.9,96.4z M142.2,78.5
						c-1-2.4,0.1-5.2,2.5-6.3l0,0c2.4-1,5.3,0.1,6.3,2.5l0,0c1,2.4-0.1,5.2-2.5,6.3l0,0c-0.6,0.3-1.3,0.4-1.9,0.4l0,0
						C144.7,81.4,142.9,80.3,142.2,78.5z M131.9,63.4L131.9,63.4L131.9,63.4c-1.9-1.8-1.9-4.9-0.1-6.8l0,0c1.9-1.9,4.9-1.9,6.8-0.1
						l0,0c1.9,1.8,2,4.9,0.1,6.8l0,0c-0.9,1-2.2,1.5-3.4,1.5l0,0C134,64.8,132.8,64.3,131.9,63.4z"/>
				</g>
			</g>
		</g>
	</g>
	<g>
		<g>
			<g>
				<g>
					<path class="st139" d="M56,130.7c-3.2,0-6.3-1.9-7.7-5.1l-2.7-6.3c-6.2-14.5-6.2-31.2,0-45.7c4.2-9.9,10.5-18,18.8-24.2
						c3.7-2.8,8.9-2,11.7,1.6c2.8,3.7,2,8.9-1.6,11.6C68.5,67.1,64,72.9,61,80c-4.4,10.4-4.4,22.4,0,32.8l2.7,6.3
						c1.8,4.2-0.2,9.1-4.4,10.9C58.2,130.5,57.1,130.7,56,130.7z"/>
				</g>
			</g>
		</g>
		<g>
			<g>
				<g>
					<path class="st142" d="M48.9,117.9c-1-2.4,0.1-5.2,2.6-6.3l0,0c2.4-1,5.3,0.1,6.3,2.5l0,0c1,2.4-0.1,5.2-2.6,6.3l0,0
						c-0.6,0.3-1.2,0.4-1.9,0.4l0,0C51.5,120.9,49.7,119.8,48.9,117.9z M49.3,101.1c-2.7,0-4.8-2.2-4.8-4.8l0,0
						c0-2.6,2.2-4.8,4.8-4.8l0,0c2.7,0,4.8,2.2,4.8,4.8l0,0C54.1,99,52,101.1,49.3,101.1L49.3,101.1
						C49.3,101.1,49.3,101.1,49.3,101.1z M51.5,81c-2.4-1-3.6-3.8-2.5-6.3l0,0l0,0l0,0c1-2.4,3.9-3.6,6.3-2.5l0,0
						c2.4,1,3.6,3.8,2.5,6.3h0c-0.8,1.8-2.6,2.9-4.4,2.9l0,0C52.8,81.4,52.1,81.3,51.5,81z M61.3,63.3c-1.9-1.9-1.8-4.9,0.1-6.8l0,0
						l0,0l0,0c1.9-1.8,5-1.8,6.8,0.1l0,0c1.8,1.9,1.8,4.9-0.1,6.8l0,0c-0.9,0.9-2.1,1.4-3.3,1.4l0,0C63.5,64.8,62.3,64.3,61.3,63.3z
						"/>
				</g>
			</g>
		</g>
	</g>
	<g>
		<g>
			<g>
				<g>
					<path class="st139" d="M100,26.5c-7.5,0-15,1.2-22,3.5c-1.7,0.5-2.6,2.4-2.1,4.1l9.3,31.2c0.5,1.7,2.2,2.7,3.8,2.2
						c3.5-1.1,7.2-1.7,11-1.7c3.9,0,7.6,0.6,11,1.7c1.6,0.5,3.3-0.5,3.8-2.2l9.3-31.2c0.5-1.7-0.4-3.6-2.1-4.1
						C115,27.7,107.5,26.5,100,26.5z"/>
				</g>
			</g>
		</g>
		<g>
			<g>
				<g>
					<path class="st141" d="M99.6,26.5c-7.4,0-14.7,1.2-21.6,3.4c-1.7,0.5-2.6,2.4-2.1,4.1l9.3,31.2c0.5,1.7,2.2,2.7,3.8,2.2
						c3.3-1,6.9-1.6,10.6-1.6V26.5z"/>
				</g>
			</g>
		</g>
		<g>
			<g>
				<g>
					<path class="st140" d="M100,26.5c-5.1,0-10.2,0.5-15.1,1.4c-1.9,0.4-3.1,2.3-2.5,4.2l9.9,31.6c0.5,1.5,1.9,2.4,3.5,2.3
						c1.4-0.1,2.8-0.2,4.2-0.2c1.4,0,2.8,0.1,4.2,0.2c1.6,0.2,3-0.8,3.5-2.3l9.9-31.6c0.6-1.9-0.6-3.8-2.5-4.2
						C110.2,27,105.1,26.5,100,26.5z"/>
				</g>
			</g>
		</g>
	</g>
	<g>
		<g>
			<g>
				<path class="st143" d="M105.8,44.1c0,3.2-2.6,5.8-5.8,5.8c-3.2,0-5.8-2.6-5.8-5.8c0-3.2,2.6-5.8,5.8-5.8
					C103.2,38.3,105.8,40.9,105.8,44.1z"/>
			</g>
		</g>
	</g>
</g>
</svg>
