<?xml version="1.0" encoding="utf-8"?>
<!-- Generator: Adobe Illustrator 25.4.1, SVG Export Plug-In . SVG Version: 6.00 Build 0)  -->
<svg version="1.1" id="Layer_1" xmlns="http://www.w3.org/2000/svg" xmlns:xlink="http://www.w3.org/1999/xlink" x="0px" y="0px"
	 viewBox="0 0 200 200" style="enable-background:new 0 0 200 200;" xml:space="preserve">
<style type="text/css">
	.st0{fill:url(#SVGID_1_);}
	.st1{fill:url(#SVGID_00000093153453941284649430000000079681659437083566_);}
	.st2{clip-path:url(#SVGID_00000141421218547272799550000003584904194113375650_);}
	.st3{fill:#8CF7F7;}
	.st4{fill:none;stroke:#303030;stroke-width:5.3333;stroke-linejoin:round;stroke-miterlimit:13.3333;}
	.st5{fill:url(#SVGID_00000005250217983448376110000006058862439405977742_);}
	.st6{clip-path:url(#SVGID_00000061437785071485832080000011269754784013186955_);}
	.st7{fill:#E3A6D6;}
	.st8{fill:url(#SVGID_00000003795632589378438970000001306901838507666086_);}
	.st9{clip-path:url(#SVGID_00000091730400000196897830000016760789616166070941_);}
	.st10{fill:url(#SVGID_00000103236064813406892630000003639385586836550553_);}
	.st11{clip-path:url(#SVGID_00000051376787362030436070000004110525521686896548_);}
	.st12{fill:url(#SVGID_00000009555517194160285600000005893016958184874633_);}
	.st13{clip-path:url(#SVGID_00000062189069026280475450000000598408261804771975_);}
	.st14{fill:none;stroke:#303030;stroke-width:5.3333;stroke-linecap:round;stroke-linejoin:round;stroke-miterlimit:13.3333;}
	.st15{fill:url(#SVGID_00000170984625643576473030000008938020348860318636_);}
	.st16{clip-path:url(#SVGID_00000037664653041543353430000000165341025515359147_);}
	.st17{fill:#00EFEF;}
	.st18{fill:url(#SVGID_00000060024648322030539510000016622586354304395965_);}
	.st19{clip-path:url(#SVGID_00000119797566977445709390000015567044057876258191_);}
	.st20{fill:#00E4E4;}
	.st21{fill:none;stroke:#303030;stroke-width:5.3333;stroke-miterlimit:13.3333;}
	.st22{opacity:0.2;clip-path:url(#SVGID_00000172423298714206943630000014561523180991336084_);}
	.st23{fill:#303030;}
	.st24{fill:url(#SVGID_00000141426503651951088780000007920510819184870582_);}
	.st25{fill:url(#SVGID_00000070081662783901243330000000682985427595721908_);}
	.st26{clip-path:url(#SVGID_00000096766160885029175880000005959312261273522325_);}
	.st27{fill:#CC67B9;}
	.st28{fill:url(#SVGID_00000083067479039863960280000011606995201731668097_);}
	.st29{clip-path:url(#SVGID_00000163781877043694385770000006350726820269638301_);}
	.st30{fill:url(#SVGID_00000003807403680460058840000009277045833288693398_);}
	.st31{clip-path:url(#SVGID_00000062895092173676492880000018328147680231199655_);}
	.st32{fill:#D887C7;}
	.st33{opacity:0.2;clip-path:url(#SVGID_00000085214891773214579460000006473314920035842493_);}
	.st34{fill:url(#SVGID_00000152965664353995037690000010528220939015236782_);}
	.st35{clip-path:url(#SVGID_00000008831761040966010410000003433814859550844552_);}
	.st36{fill:#00E4E4;stroke:#303030;stroke-width:5.3333;stroke-miterlimit:13.3333;}
	.st37{fill:url(#SVGID_00000169548070011009184730000005816330160664419732_);}
	.st38{clip-path:url(#SVGID_00000121976310971879384200000005185005725083133314_);}
	.st39{fill:#75F5F5;}
	.st40{fill:url(#SVGID_00000145750744203748771220000000652330421730703021_);}
	.st41{clip-path:url(#SVGID_00000066501879744760275640000017054840675685166491_);}
	.st42{fill:url(#SVGID_00000093860002306607722020000016885867926634428581_);}
	.st43{clip-path:url(#SVGID_00000032612170444310407120000002002798066837614015_);}
	.st44{fill:url(#SVGID_00000157308368730997004170000002008697615333794703_);}
	.st45{clip-path:url(#SVGID_00000014604993058926193080000016529480853941724340_);}
	.st46{opacity:0.2;clip-path:url(#SVGID_00000090978763143158873570000006459018416072586150_);}
	.st47{fill:url(#SVGID_00000089550669756202278800000001996508934583120782_);}
	.st48{fill:url(#SVGID_00000068676784544224207180000013825949516366864514_);}
	.st49{clip-path:url(#SVGID_00000031203049635160998270000006127661710010897048_);}
	.st50{fill:url(#SVGID_00000155128417406824559030000015775805950368649398_);}
	.st51{clip-path:url(#SVGID_00000153674130561772536800000014443029235651529914_);}
	.st52{fill:url(#SVGID_00000122689509823804613390000004010782142924808082_);}
	.st53{clip-path:url(#SVGID_00000013885299340111469820000011500234092105940366_);}
	.st54{fill:#00E4E4;stroke:#303030;stroke-width:5.3333;stroke-linejoin:round;stroke-miterlimit:13.3333;}
	.st55{fill:url(#SVGID_00000108309953073954861280000006754489661854229166_);}
	.st56{clip-path:url(#SVGID_00000072265161803861358920000003572666433757615747_);}
	.st57{fill:url(#SVGID_00000150823650990916827790000010880037043757373568_);}
	.st58{clip-path:url(#SVGID_00000026162607136640397240000004504049199350433953_);}
	.st59{fill:url(#SVGID_00000178911312121479186910000015226984578343672244_);}
	.st60{clip-path:url(#SVGID_00000073695336627146051210000003331175030022462386_);}
	.st61{opacity:0.2;clip-path:url(#SVGID_00000061466969994046398450000007110349668946772877_);}
	.st62{fill:url(#SVGID_00000152964446068190998620000003482876775405483412_);}
	.st63{fill:url(#SVGID_00000178180972377176551880000000965135676924797869_);}
	.st64{fill:url(#SVGID_00000118362436211891337600000017278485253827887262_);}
	.st65{clip-path:url(#SVGID_00000103966366134621453560000008345728634081203642_);}
	.st66{fill:url(#SVGID_00000035499306279627512750000009830885991612114065_);}
	.st67{fill:url(#SVGID_00000173127428901252922920000015772461947112576163_);}
	.st68{clip-path:url(#SVGID_00000093871136784165327540000017195677286410252436_);}
	.st69{fill:url(#SVGID_00000170966840411308953870000005095556752932561579_);}
	.st70{clip-path:url(#SVGID_00000163037219305448358500000012548475606312899514_);}
	.st71{fill:url(#SVGID_00000058588030382487303470000012994187370782429095_);}
	.st72{clip-path:url(#SVGID_00000154384993538293874080000001469534297646659745_);}
	.st73{opacity:0.2;clip-path:url(#SVGID_00000176738186660976736160000007242073452834528139_);}
	.st74{fill:url(#SVGID_00000100355471683198959020000008193464828285064360_);}
	.st75{fill:url(#SVGID_00000139991983649618814090000015499756392740026802_);}
	.st76{clip-path:url(#SVGID_00000152979741310434759740000015362401307945843363_);}
	.st77{fill:url(#SVGID_00000115493246057535094930000005064482777860226195_);}
	.st78{clip-path:url(#SVGID_00000133509704989360775330000018053310315973950641_);}
	.st79{fill:url(#SVGID_00000064324939644241571710000008734225076954696602_);}
	.st80{clip-path:url(#SVGID_00000126291831297322385570000014899311745342748560_);}
	.st81{fill:url(#SVGID_00000118369681284532337100000006580963886365313962_);}
	.st82{clip-path:url(#SVGID_00000017506614900272555210000000167972092067857045_);}
	.st83{fill:url(#SVGID_00000155845259206826600280000013685071638766298510_);}
	.st84{clip-path:url(#SVGID_00000059295497535908548800000003831864515484315791_);}
	.st85{fill:url(#SVGID_00000134957332121549582990000004004374759581285042_);}
	.st86{clip-path:url(#SVGID_00000066479764031939320460000010791427344875188099_);}
	.st87{fill:url(#SVGID_00000009554006690408276030000015433816245988588974_);}
	.st88{clip-path:url(#SVGID_00000027576876526696876540000006216790543218078339_);}
	.st89{opacity:0.2;clip-path:url(#SVGID_00000029757102551495973780000008613118852011005576_);}
	.st90{fill:url(#SVGID_00000085963135399221572190000015518585122250527671_);}
	.st91{fill:url(#SVGID_00000170996095099595822130000007115448958715152314_);}
	.st92{fill:url(#SVGID_00000173881995984749637410000005259617900327181745_);}
	.st93{fill:url(#SVGID_00000132797004332113887310000007411836329089442470_);}
	.st94{fill:url(#SVGID_00000003826416977550290130000017223803234918117306_);}
	.st95{clip-path:url(#SVGID_00000015324901990202198610000000808321685356453540_);}
	.st96{fill:url(#SVGID_00000031192356443567297300000012645673071053457051_);}
	.st97{clip-path:url(#SVGID_00000071521620892543476450000011383281373791063743_);}
	.st98{fill:url(#SVGID_00000174576281485029748260000010808306476657181609_);}
	.st99{clip-path:url(#SVGID_00000059311864977225000010000003679424627536160934_);}
	.st100{fill:url(#SVGID_00000103236701599299842770000016680543366398660796_);}
	.st101{clip-path:url(#SVGID_00000037689349989005359990000015248230707360580001_);}
	.st102{fill:none;stroke:#E3A6D6;stroke-width:5.3333;stroke-linecap:round;stroke-linejoin:round;stroke-miterlimit:13.3333;}
	.st103{fill:url(#SVGID_00000165918931344800013820000015462076833588205970_);}
	.st104{clip-path:url(#SVGID_00000072265759863765966080000000673224870749684623_);}
	.st105{fill:url(#SVGID_00000111884983525151082350000011905178939654283710_);}
	.st106{clip-path:url(#SVGID_00000167366353328417202420000014656734857207165593_);}
	.st107{fill:#FFFFFF;}
	.st108{opacity:0.2;clip-path:url(#SVGID_00000150083526499440068570000006135087003079640482_);}
	.st109{fill:url(#SVGID_00000019666739697471303320000008646442087324997508_);}
	.st110{fill:url(#SVGID_00000088853362314507682030000011331904195953083791_);}
	.st111{fill:url(#SVGID_00000181078409467121610790000008989412047521777589_);}
	.st112{fill:url(#SVGID_00000178916807993020301550000017722027332079263406_);}
	.st113{clip-path:url(#SVGID_00000173162218876157131820000009579177733552739007_);}
	.st114{fill:#CC67B9;stroke:#303030;stroke-width:5.3333;stroke-linejoin:round;stroke-miterlimit:13.3333;}
	.st115{fill:url(#SVGID_00000123423073994422967460000014992298287353262765_);}
	.st116{clip-path:url(#SVGID_00000139978453458021842640000002228985353786308763_);}
	.st117{fill:url(#SVGID_00000133515480920517285890000002841521083598184626_);}
	.st118{clip-path:url(#SVGID_00000042704516306059611780000012258499188941137311_);}
	.st119{fill:url(#SVGID_00000048498663868611365750000017354803900952868760_);}
	.st120{clip-path:url(#SVGID_00000128453999562125632130000011060422093087994776_);}
	.st121{fill:url(#SVGID_00000047030597125238705790000013420299289836840627_);}
	.st122{clip-path:url(#SVGID_00000150791710925816200680000001479500333998751127_);}
	.st123{fill:url(#SVGID_00000088130530061095327100000007631412699732047744_);}
	.st124{clip-path:url(#SVGID_00000082368761749488674630000016824224540860667830_);}
	.st125{fill:url(#SVGID_00000118364232593484170570000010911375258196201629_);}
	.st126{clip-path:url(#SVGID_00000055698810963771400010000002125053647137227153_);}
	.st127{fill:url(#SVGID_00000024710858649714072920000008395483302095177145_);}
	.st128{clip-path:url(#SVGID_00000155108215652554642050000018209979374605404316_);}
	.st129{fill:url(#SVGID_00000130621197553252722930000009747791248872203910_);}
	.st130{clip-path:url(#SVGID_00000108310125883720060970000014489113234769287589_);}
	.st131{fill:url(#SVGID_00000060711815669937406050000015887073061367955368_);}
	.st132{clip-path:url(#SVGID_00000145781053716669380800000003962658689695892647_);}
	.st133{fill:url(#SVGID_00000072273985956918850640000014746989187886079910_);}
	.st134{clip-path:url(#SVGID_00000044900083156611895160000014472521785620581535_);}
	.st135{fill:url(#SVGID_00000052099435833323532110000002237988616720715396_);}
	.st136{clip-path:url(#SVGID_00000083059892618864769230000002739909574764059809_);}
	.st137{opacity:0.2;clip-path:url(#SVGID_00000178893919670157222740000011104389699688865410_);}
	.st138{fill:url(#SVGID_00000062179777102627690310000015186463158711133629_);}
	.st139{fill:#A796A8;}
	.st140{fill:#D3C2D2;}
	.st141{fill:#EFE8EF;}
	.st142{fill:#5A4D5B;}
	.st143{fill:#716172;}
	.st144{fill:#B0EEFF;}
	.st145{fill:#4A8BF0;}
	.st146{fill:#67C2FF;}
	.st147{fill:#4E886D;}
	.st148{fill:#B0CF43;}
	.st149{fill:#70A950;}
	.st150{fill:#EBE858;}
	.st151{fill:url(#SVGID_00000011000922787866914790000017984455699651904935_);}
	.st152{fill:#E53557;}
	.st153{fill:#AF1E4B;}
	.st154{fill:#422F38;}
	.st155{fill:#F99027;}
	.st156{fill:#FFC840;}
	.st157{fill:#DF3359;}
	.st158{fill:#FFC5C5;}
	.st159{fill:#FA5262;}
	.st160{fill:#FF9BB2;}
	.st161{fill:#FF826F;}
	.st162{fill:#FFE783;}
	.st163{fill:#FFD45A;}
	.st164{fill:#F28033;}
	.st165{fill:#D56132;}
	.st166{fill:#FC9A2C;}
	.st167{fill:#E0692B;}
	.st168{fill:#FFDE6F;}
	.st169{opacity:0.59;}
</style>
<g>
	<g>
		<defs>
			<rect id="SVGID_00000114065695274525309670000009854549915933852050_" x="0" y="-271.4" width="200" height="200"/>
		</defs>
		<clipPath id="SVGID_00000183233783687578126560000014124553067343740045_">
			<use xlink:href="#SVGID_00000114065695274525309670000009854549915933852050_"  style="overflow:visible;"/>
		</clipPath>
		
			<g transform="matrix(1.33333 0 0 -1.33333 0 200)" style="clip-path:url(#SVGID_00000183233783687578126560000014124553067343740045_);">
			<g>
				<defs>
					<rect id="SVGID_00000160878731124767609440000013817169669498228926_" x="-390.3" y="38.5" width="1066.7" height="800"/>
				</defs>
				<clipPath id="SVGID_00000183928091354229360620000014983098998049896637_">
					<use xlink:href="#SVGID_00000160878731124767609440000013817169669498228926_"  style="overflow:visible;"/>
				</clipPath>
				<g style="opacity:0.2;clip-path:url(#SVGID_00000183928091354229360620000014983098998049896637_);">
					<path class="st23" d="M543,738.5h-800v-600h800V738.5z M538,143.5h-790v590h790V143.5z"/>
				</g>
			</g>
		</g>
	</g>
</g>
<g>
	<g>
		<defs>
			<rect id="SVGID_00000053540314422016267860000010276043836776329915_" x="-213.3" y="-271.4" width="200" height="200"/>
		</defs>
		<clipPath id="SVGID_00000128472352384195473880000016971742495186416790_">
			<use xlink:href="#SVGID_00000053540314422016267860000010276043836776329915_"  style="overflow:visible;"/>
		</clipPath>
		
			<g transform="matrix(1.33333 0 0 -1.33333 0 200)" style="clip-path:url(#SVGID_00000128472352384195473880000016971742495186416790_);">
			<g>
				<defs>
					<rect id="SVGID_00000182511124914243256540000003258562856893936778_" x="-870.3" y="38.5" width="1066.7" height="800"/>
				</defs>
				<clipPath id="SVGID_00000046313694345975525180000007114728310221364877_">
					<use xlink:href="#SVGID_00000182511124914243256540000003258562856893936778_"  style="overflow:visible;"/>
				</clipPath>
				<g style="opacity:0.2;clip-path:url(#SVGID_00000046313694345975525180000007114728310221364877_);">
					<path class="st23" d="M63,738.5h-800v-600H63V738.5z M58,143.5h-790v590H58V143.5z"/>
				</g>
			</g>
		</g>
	</g>
</g>
<g>
	<g>
		<defs>
			<rect id="SVGID_00000070801916612387571520000011825366750155544965_" x="-213.3" y="-484.7" width="200" height="200"/>
		</defs>
		<clipPath id="SVGID_00000173877959165982392690000012189359775632210567_">
			<use xlink:href="#SVGID_00000070801916612387571520000011825366750155544965_"  style="overflow:visible;"/>
		</clipPath>
		
			<g transform="matrix(1.33333 0 0 -1.33333 0 200)" style="clip-path:url(#SVGID_00000173877959165982392690000012189359775632210567_);">
			<g>
				<defs>
					<rect id="SVGID_00000137098669987950720930000007864841218711114169_" x="-550.3" y="38.5" width="1066.7" height="800"/>
				</defs>
				<clipPath id="SVGID_00000179635612432954286370000001451812176682423979_">
					<use xlink:href="#SVGID_00000137098669987950720930000007864841218711114169_"  style="overflow:visible;"/>
				</clipPath>
				<g style="opacity:0.2;clip-path:url(#SVGID_00000179635612432954286370000001451812176682423979_);">
					<path class="st23" d="M383,738.5h-800v-600h800V738.5z M378,143.5h-790v590h790V143.5z"/>
				</g>
			</g>
		</g>
	</g>
</g>
<g>
	<g>
		<defs>
			<rect id="SVGID_00000173846122975046876510000015520441463007811500_" x="640" y="-484.7" width="200" height="200"/>
		</defs>
		<clipPath id="SVGID_00000080166027514176381190000006414059578257427385_">
			<use xlink:href="#SVGID_00000173846122975046876510000015520441463007811500_"  style="overflow:visible;"/>
		</clipPath>
		
			<g transform="matrix(1.33333 0 0 -1.33333 0 200)" style="clip-path:url(#SVGID_00000080166027514176381190000006414059578257427385_);">
			<g>
				<defs>
					<rect id="SVGID_00000023966878568924842050000014068215425500678308_" x="-230.3" y="-121.5" width="1066.7" height="800"/>
				</defs>
				<clipPath id="SVGID_00000083048433440399038680000000011164995857100472_">
					<use xlink:href="#SVGID_00000023966878568924842050000014068215425500678308_"  style="overflow:visible;"/>
				</clipPath>
				<g style="opacity:0.2;clip-path:url(#SVGID_00000083048433440399038680000000011164995857100472_);">
					<path class="st23" d="M703,578.5H-97v-600h800V578.5z M698-16.5H-92v590h790V-16.5z"/>
				</g>
			</g>
		</g>
	</g>
</g>
<g>
	<g>
		<defs>
			<rect id="SVGID_00000124120815750423452160000002448855929057964963_" x="0" y="-484.7" width="200" height="200"/>
		</defs>
		<clipPath id="SVGID_00000042009291260252488940000007751223629874602905_">
			<use xlink:href="#SVGID_00000124120815750423452160000002448855929057964963_"  style="overflow:visible;"/>
		</clipPath>
		
			<g transform="matrix(1.33333 0 0 -1.33333 0 200)" style="clip-path:url(#SVGID_00000042009291260252488940000007751223629874602905_);">
			<g>
				<defs>
					<rect id="SVGID_00000072992715859501828010000015878512852492666002_" x="-550.3" y="38.5" width="1066.7" height="800"/>
				</defs>
				<clipPath id="SVGID_00000160876086189594752250000008584750446673403319_">
					<use xlink:href="#SVGID_00000072992715859501828010000015878512852492666002_"  style="overflow:visible;"/>
				</clipPath>
				<g style="opacity:0.2;clip-path:url(#SVGID_00000160876086189594752250000008584750446673403319_);">
					<path class="st23" d="M383,738.5h-800v-600h800V738.5z M378,143.5h-790v590h790V143.5z"/>
				</g>
			</g>
		</g>
	</g>
</g>
<g>
	<g>
		<defs>
			<rect id="SVGID_00000058579095448632020560000010763924413820889750_" x="426.7" y="-484.7" width="200" height="200"/>
		</defs>
		<clipPath id="SVGID_00000034790323585131355950000004359441581972040079_">
			<use xlink:href="#SVGID_00000058579095448632020560000010763924413820889750_"  style="overflow:visible;"/>
		</clipPath>
		
			<g transform="matrix(1.33333 0 0 -1.33333 0 200)" style="clip-path:url(#SVGID_00000034790323585131355950000004359441581972040079_);">
			<g>
				<defs>
					<rect id="SVGID_00000092454199715875006030000011282620144638621610_" x="-230.3" y="-121.5" width="1066.7" height="800"/>
				</defs>
				<clipPath id="SVGID_00000013882264370033172950000011578806105591524761_">
					<use xlink:href="#SVGID_00000092454199715875006030000011282620144638621610_"  style="overflow:visible;"/>
				</clipPath>
				<g style="opacity:0.2;clip-path:url(#SVGID_00000013882264370033172950000011578806105591524761_);">
					<path class="st23" d="M703,578.5H-97v-600h800V578.5z M698-16.5H-92v590h790V-16.5z"/>
				</g>
			</g>
		</g>
	</g>
</g>
<g>
	<defs>
		<rect id="SVGID_00000139988174648227379540000015372381530190142880_" x="213.3" y="-484.7" width="200" height="200"/>
	</defs>
	<clipPath id="SVGID_00000083784170738117193620000008511096712311789487_">
		<use xlink:href="#SVGID_00000139988174648227379540000015372381530190142880_"  style="overflow:visible;"/>
	</clipPath>
	
		<g transform="matrix(1.33333 0 0 -1.33333 0 200)" style="clip-path:url(#SVGID_00000083784170738117193620000008511096712311789487_);">
		<g>
			<defs>
				<rect id="SVGID_00000000215295713252029120000010448879948005955468_" x="-230.3" y="-121.5" width="1066.7" height="800"/>
			</defs>
			<clipPath id="SVGID_00000168814013827716732220000010838117952578998149_">
				<use xlink:href="#SVGID_00000000215295713252029120000010448879948005955468_"  style="overflow:visible;"/>
			</clipPath>
			<g style="opacity:0.2;clip-path:url(#SVGID_00000168814013827716732220000010838117952578998149_);">
				<path class="st23" d="M703,578.5H-97v-600h800V578.5z M698-16.5H-92v590h790V-16.5z"/>
			</g>
		</g>
	</g>
</g>
<linearGradient id="SVGID_1_" gradientUnits="userSpaceOnUse" x1="276.173" y1="86.7523" x2="277.173" y2="86.7523" gradientTransform="matrix(0 -799.998 -799.998 0 69501.6875 221651.2031)">
	<stop  offset="0" style="stop-color:#D887C7"/>
	<stop  offset="0.2285" style="stop-color:#D887C7"/>
	<stop  offset="1" style="stop-color:#00E4E4"/>
</linearGradient>
<path class="st0" d="M0,200h200V0H0V200z"/>
<g>
	<g>
		<g>
			<path class="st157" d="M142.7,36.1c-0.8,0-1.6,0.5-2.1,1.1c-0.8,1.1-2,2-3.6,2.8c-2.2,1-4.4,1.5-6.6,1.5c-2.4,0-5.2-0.4-8.3-1.1
				c-3.1-0.7-6.3-1.5-9.6-2.4c-3.3-0.9-6.8-1.7-10.4-2.5c-3.6-0.8-7.4-1.2-11.3-1.2c-6.7,0-11.7,1-15.2,3.1
				c-2.3,1.3-4.1,2.8-5.6,4.3c-0.8,0.8-2.1,0.3-2.1-0.8v-2c0-1.5-1.2-2.8-2.8-2.8H39c-1.5,0-2.8,1.2-2.8,2.8v46
				c0,1.5,1.2,2.8,2.8,2.8h26c1.5,0,2.7-1.2,2.8-2.7c0.1-2.7,0.4-4.9,1-6.7c0.7-2.3,1.6-4,2.8-5.2c1.2-1.2,2.5-2,3.9-2.2
				c1.4-0.3,2.8-0.4,4.2-0.4c0.8,0,2.3,0.2,4.3,0.7c2.1,0.5,4.4,1,7.1,1.7c2.6,0.7,5.3,1.2,8.1,1.7c2.7,0.5,5.2,0.7,7.4,0.7
				c3.3,0,6.5-0.7,9.6-2l0.1,0c1.4-0.6,2.6,1.2,1.5,2.3c-2.8,2.5-5.5,5-8.4,7.2C103.9,86.8,98.7,91,93.8,95c-5,4-9.6,8.2-13.8,12.5
				c-4.2,4.3-7.9,9.2-11,14.7c-3.1,5.5-5.5,11.7-7.2,18.7c-1.6,6.3-2.4,13.6-2.6,21.9c0,1.6,1.2,2.8,2.8,2.8h51
				c1.5,0,2.8-1.2,2.8-2.7c0.2-10.3,1.4-19.5,3.5-27.5c2.4-8.7,5.3-16.5,8.9-23.5c3.5-7,7.4-13.3,11.6-19.2
				c4.2-5.8,8-11.6,11.6-17.4c3.5-5.8,6.5-11.8,8.9-18c2.1-5.5,3.3-11.6,3.5-18.5c0.1-1.6-1.2-2.9-2.8-2.9H142.7z"/>
		</g>
	</g>
	<g>
		<g>
			<g>
				<path class="st153" d="M90.7,42.9c3.3,0,6.5,0.3,9.4,1c3.5,0.8,6.9,1.6,10,2.4c3.4,0.9,6.7,1.7,9.8,2.5
					c3.7,0.9,7.2,1.3,10.3,1.3c3.5,0,7-0.8,10.3-2.4c1.7-0.8,3.1-1.7,4.4-2.8c0.2-0.2,0.5-0.3,0.8-0.3h7.3c0.7,0,1.3,0.7,1.2,1.4
					c-0.5,3-1.2,5.7-2.2,8.3c-2.2,5.7-4.9,11.3-8.2,16.6c-3.4,5.5-7.2,11.2-11.2,16.9c-4.4,6.2-8.5,13-12.2,20.3
					c-3.8,7.4-7,15.9-9.5,25.1c-1.9,6.8-3.1,14.4-3.6,22.7c0,0.7-0.6,1.2-1.2,1.2H69.5c-0.7,0-1.3-0.6-1.2-1.3c0.4-4.7,1-9,2-12.7
					c1.5-6.2,3.7-11.8,6.3-16.6c2.7-4.8,5.9-9.1,9.6-12.8c4-4.1,8.4-8,13.1-11.8c4.9-4,10.1-8.1,15.5-12.2c2.7-2.1,5.4-4.4,8.9-7.6
					c3.1-2.8,4.1-7.1,2.5-11c-1.5-3.9-5.2-6.4-9.3-6.4c-1.4,0-2.7,0.3-4,0.8l-0.1,0c-2,0.9-4,1.3-6.1,1.3c-1.7,0-3.7-0.2-6-0.6
					c-2.5-0.4-5-1-7.4-1.6c-2.7-0.7-5.2-1.3-7.3-1.8c-2.8-0.6-4.7-0.9-6.2-0.9c-2,0-4,0.2-6,0.6c-3.1,0.7-5.9,2.2-8.2,4.6
					c-2.2,2.2-3.9,5.2-4.9,8.8c-0.2,0.6-0.4,1.3-0.5,2c-0.1,0.7-0.7,1.1-1.4,1.1H46.4c-0.8,0-1.5-0.7-1.5-1.5V45.6
					c0-0.5,0.4-0.9,0.9-0.9h13.4c0.4,0,0.7,0.2,0.8,0.5c1.6,3.2,5,5.5,8.8,5.5c2.7,0,5.2-1.1,7.1-3c1-1,2.3-2,3.9-2.9
					C81.1,44.1,84.1,42.9,90.7,42.9L90.7,42.9z M90.7,34.3c-6.7,0-11.7,1-15.2,3.1c-2.3,1.3-4.1,2.8-5.6,4.3
					c-0.3,0.3-0.6,0.4-0.9,0.4c-0.6,0-1.2-0.5-1.2-1.2v-2c0-1.5-1.2-2.8-2.8-2.8H39c-1.5,0-2.8,1.2-2.8,2.8v46
					c0,1.5,1.2,2.8,2.8,2.8h26c1.5,0,2.7-1.2,2.8-2.7c0.1-2.7,0.4-4.9,1-6.7c0.7-2.3,1.6-4,2.8-5.2c1.2-1.2,2.5-2,3.9-2.2
					c1.4-0.3,2.8-0.4,4.2-0.4c0.8,0,2.3,0.2,4.3,0.7c2.1,0.5,4.4,1,7.1,1.7c2.6,0.7,5.3,1.2,8.1,1.7c2.7,0.5,5.2,0.7,7.4,0.7
					c3.3,0,6.5-0.7,9.6-2l0.1,0c0.2-0.1,0.4-0.1,0.6-0.1c1.1,0,1.9,1.5,0.9,2.4c-2.8,2.5-5.5,5-8.4,7.2C103.9,86.8,98.7,91,93.8,95
					c-5,4-9.6,8.2-13.8,12.5c-4.2,4.3-7.9,9.2-11,14.7c-3.1,5.5-5.5,11.7-7.2,18.7c-1.6,6.3-2.4,13.6-2.6,21.9
					c0,1.6,1.2,2.8,2.8,2.8h51c1.5,0,2.8-1.2,2.8-2.7c0.2-10.3,1.4-19.5,3.5-27.5c2.4-8.7,5.3-16.5,8.9-23.5
					c3.5-7,7.4-13.3,11.6-19.2c4.2-5.8,8-11.6,11.6-17.4c3.5-5.8,6.5-11.8,8.9-18c2.1-5.5,3.3-11.6,3.5-18.5
					c0.1-1.6-1.2-2.9-2.8-2.9h-18.2c-0.8,0-1.6,0.5-2.1,1.1c-0.8,1.1-2,2-3.6,2.8c-2.2,1-4.4,1.5-6.6,1.5c-2.4,0-5.2-0.4-8.3-1.1
					c-3.1-0.7-6.3-1.5-9.6-2.4c-3.3-0.9-6.8-1.7-10.4-2.5C98.4,34.7,94.6,34.3,90.7,34.3L90.7,34.3z"/>
			</g>
		</g>
	</g>
	<g>
		<g>
			<path class="st158" d="M153.1,44.7c0.7,0,1.3,0.7,1.2,1.4c-0.5,3-1.2,5.7-2.2,8.3c-2.2,5.7-4.9,11.3-8.2,16.6
				c-3.4,5.5-7.2,11.2-11.2,16.9c-4.4,6.2-8.5,13-12.2,20.3c-0.9,1.8-1.8,3.7-2.7,5.7c-2.1,4.8-6.8,7.9-12.1,7.9H80.3l19-19.9
				c4.9-4,10.1-8.1,15.5-12.2c2.7-2.1,5.4-4.4,8.9-7.6c3.1-2.8,4.1-7.1,2.6-11c-1.5-3.9-5.2-6.4-9.3-6.4c-1.4,0-2.7,0.3-4,0.8
				l-0.1,0c-2,0.9-4,1.3-6.1,1.3c-1.7,0-3.7-0.2-6-0.6c-2.5-0.4-5-1-7.4-1.6c-2.7-0.7-5.2-1.3-7.3-1.8c-2.8-0.6-4.7-0.9-6.2-0.9
				c-2,0-4,0.2-6,0.6c-3.1,0.6-5.9,2.2-8.2,4.6c-2.2,2.2-3.9,5.2-4.9,8.8c-0.2,0.6-0.4,1.3-0.5,2c-0.1,0.7-0.7,1.1-1.4,1.1H46.4
				c-0.8,0-1.5-0.7-1.5-1.5V45.6c0-0.5,0.4-0.9,0.9-0.9l13.4,0c0.4,0,0.7,0.2,0.8,0.5c2.1,4.2,7.2,6.7,12.6,4.8
				c1.3-0.5,2.4-1.4,3.4-2.4c1-1,2.3-1.9,3.8-2.9c1.2-0.7,4.1-1.9,10.7-1.9c3.3,0,6.5,0.3,9.5,1c3.5,0.8,6.9,1.6,10,2.4
				c3.4,0.9,6.7,1.7,9.8,2.5c3.7,0.9,7.2,1.3,10.3,1.3c3.5,0,7-0.8,10.3-2.4c1.7-0.8,3.1-1.7,4.4-2.8c0.2-0.2,0.5-0.3,0.8-0.3H153.1
				z"/>
		</g>
	</g>
	<g>
		<g>
			<g>
				<path class="st159" d="M146.1,52.5c-0.4,0-0.8,0.1-1.2,0.3c-0.5,0.3-1,0.5-1.5,0.8c-4.2,2-8.6,3-13.1,3c-3.6,0-7.6-0.5-11.8-1.5
					c-3.2-0.7-6.5-1.6-10-2.5c-3.1-0.8-6.4-1.6-9.8-2.4c-2.5-0.5-5.2-0.8-8.1-0.8c-5.6,0-7.4,1-7.4,1c-1.4,0.8-2.1,1.5-2.5,1.9
					c-3.1,3.2-7.3,4.9-11.7,4.9c-4.4,0-8.4-1.7-11.4-4.6c-0.9-0.9-2.2-1.4-3.4-1.4h-9.2v26.4c0,0.8,0.7,1.5,1.5,1.5l12.1,0
					c0.7,0,1.3-0.5,1.4-1.2c0.2-0.7,0.3-1.4,0.5-2c1.1-3.6,2.7-6.6,4.9-8.8c2.4-2.4,5.2-4,8.2-4.6c2-0.4,4-0.6,6-0.6
					c1.5,0,3.4,0.3,6.2,0.9c2.1,0.5,4.6,1.1,7.3,1.8c2.4,0.6,4.9,1.1,7.4,1.6c2.2,0.4,4.2,0.6,6,0.6c2.2,0,4.2-0.4,6.1-1.3l0.1,0
					c1.3-0.5,2.6-0.8,4-0.8c4.1,0,7.8,2.5,9.3,6.4c1.5,3.8,0.5,8.1-2.6,11c-3.5,3.2-6.2,5.6-8.9,7.6c-5.4,4.1-10.6,8.3-15.5,12.2
					l-19,19.9h25.5c5.2,0,10-3.1,12.1-7.9c0.9-1.9,1.7-3.8,2.7-5.6c3.7-7.3,7.8-14.1,12.2-20.3c4-5.7,7.8-11.3,11.2-16.9
					c3.2-5.3,6-10.8,8.2-16.6l0.7-1.8H146.1z"/>
			</g>
		</g>
	</g>
	<g>
		<g>
			<path class="st160" d="M126.7,76.3c-0.2,1.3-0.7,2.5-1.5,3.7C126,78.8,126.4,77.6,126.7,76.3L126.7,76.3z"/>
		</g>
	</g>
	<g>
		<g>
			<path class="st158" d="M130.2,79.7C130.2,79.8,130.2,79.8,130.2,79.7c0,3.2-1.5,6.2-3.8,8.3c-1.8,1.6-4.1,3.6-5.6,4.8
				c-0.7,0.6-1.4,1.1-2.1,1.7c-5.3,4.1-10.5,8.2-15.4,12.1c-4.5,3.7-8.7,7.5-12.5,11.4c-3.3,3.3-6.1,7.2-8.5,11.5
				c-2.4,4.3-4.3,9.4-5.7,15c-0.5,1.9-2.6,10.4-2.9,12.5h-4.1c-0.7,0-1.3-0.6-1.2-1.3c0.4-4.7,1-9,2-12.7c1.5-6.2,3.7-11.8,6.3-16.6
				c2.7-4.8,5.9-9.1,9.6-12.8c4-4.1,8.4-8,13.1-11.8c3.7-3,7.6-6.1,11.5-9.2c0.6-0.5,1.3-1,2-1.5c0.7-0.5,1.3-1,2-1.6
				c2.7-2.1,5.4-4.4,8.9-7.6c0.2-0.2,0.4-0.4,0.6-0.6c0.2-0.2,0.3-0.4,0.5-0.6c0,0,0,0,0,0c0.2-0.2,0.3-0.4,0.5-0.7
				c0.8-1.1,1.3-2.4,1.5-3.7c0.3-1.8,0.2-3.7-0.5-5.4c-0.2-0.6-0.6-1.2-0.9-1.7c2.3,2,4,4.7,4.7,7.8
				C130.1,77.8,130.2,78.8,130.2,79.7z"/>
		</g>
	</g>
	<g>
		<g>
			<path class="st161" d="M76.5,144.5c0.3-1,0.5-2,0.8-3c0.5-1.6-0.4-3.3-1.9-3.9l-0.1,0c-1.8-0.7-3.7,0.2-4.2,2
				c-0.3,1.1-0.6,2.2-0.9,3.4c-0.9,3.8-1.6,8-2,12.7c-0.1,0.7,0.5,1.3,1.2,1.3h36.7c0.7,0,1.2-0.5,1.2-1.2c0-0.8,0.1-1.6,0.2-2.3
				c0.1-1.6-1.1-3-2.7-3H77.1c-0.9,0-1.6-0.8-1.4-1.7C75.9,147.4,76.2,145.9,76.5,144.5z"/>
		</g>
	</g>
</g>
</svg>
