<?xml version="1.0" encoding="utf-8"?>
<!-- Generator: Adobe Illustrator 25.4.1, SVG Export Plug-In . SVG Version: 6.00 Build 0)  -->
<svg version="1.1" id="Layer_1" xmlns="http://www.w3.org/2000/svg" xmlns:xlink="http://www.w3.org/1999/xlink" x="0px" y="0px"
	 viewBox="0 0 200 200" style="enable-background:new 0 0 200 200;" xml:space="preserve">
<style type="text/css">
	.st0{fill:url(#SVGID_1_);}
	.st1{fill:url(#SVGID_00000062167926700137293070000004063020959632635322_);}
	.st2{clip-path:url(#SVGID_00000109731853907515603940000007825145265723045793_);}
	.st3{fill:#8CF7F7;}
	.st4{fill:none;stroke:#303030;stroke-width:5.3333;stroke-linejoin:round;stroke-miterlimit:13.3333;}
	.st5{fill:url(#SVGID_00000005961426410521057230000000209920959302505369_);}
	.st6{clip-path:url(#SVGID_00000108999168368951756590000000665287772523245754_);}
	.st7{fill:#E3A6D6;}
	.st8{fill:url(#SVGID_00000136406875847170779110000001607218594386099328_);}
	.st9{clip-path:url(#SVGID_00000155145583907130638420000007236642264785914244_);}
	.st10{fill:url(#SVGID_00000083051383382724089180000013886514211799761555_);}
	.st11{clip-path:url(#SVGID_00000031197677478818204380000016635838616048473230_);}
	.st12{fill:url(#SVGID_00000173130181396193316130000016521469645518308738_);}
	.st13{clip-path:url(#SVGID_00000070095723774267537300000010376400195454351493_);}
	.st14{fill:none;stroke:#303030;stroke-width:5.3333;stroke-linecap:round;stroke-linejoin:round;stroke-miterlimit:13.3333;}
	.st15{fill:url(#SVGID_00000000945327563830261570000004212160332424346764_);}
	.st16{clip-path:url(#SVGID_00000130605053500170392150000016161850110496433065_);}
	.st17{fill:#00EFEF;}
	.st18{fill:url(#SVGID_00000147204902129615473330000016232459800562610595_);}
	.st19{clip-path:url(#SVGID_00000023271352360243404240000008421142482231807159_);}
	.st20{fill:#00E4E4;}
	.st21{fill:none;stroke:#303030;stroke-width:5.3333;stroke-miterlimit:13.3333;}
	.st22{opacity:0.2;clip-path:url(#SVGID_00000160909158415049084160000000549939292687398323_);}
	.st23{fill:#303030;}
	.st24{fill:url(#SVGID_00000024701747088540529100000017574153067762750637_);}
	.st25{fill:url(#SVGID_00000029033698110402415140000002276272410436339600_);}
	.st26{clip-path:url(#SVGID_00000029735706102159398660000000845714331359898543_);}
	.st27{fill:#CC67B9;}
	.st28{fill:url(#SVGID_00000066478980736060974540000012958393947749584300_);}
	.st29{clip-path:url(#SVGID_00000044163243875697871480000004382377153704547248_);}
	.st30{fill:url(#SVGID_00000103250687717523476250000006213034711040477833_);}
	.st31{clip-path:url(#SVGID_00000014630743581418197410000009890689762233078954_);}
	.st32{fill:#D887C7;}
	.st33{opacity:0.2;clip-path:url(#SVGID_00000162341865917240670320000011300515850863611566_);}
	.st34{fill:url(#SVGID_00000100352552151201076610000010710516361181731713_);}
	.st35{clip-path:url(#SVGID_00000063620812389225503760000003266392304322205314_);}
	.st36{fill:#00E4E4;stroke:#303030;stroke-width:5.3333;stroke-miterlimit:13.3333;}
	.st37{fill:url(#SVGID_00000115488135126715177330000014117398004720194238_);}
	.st38{clip-path:url(#SVGID_00000073712548362468848510000002226679689114212759_);}
	.st39{fill:#75F5F5;}
	.st40{fill:url(#SVGID_00000080911079074860990930000012147203836128116927_);}
	.st41{clip-path:url(#SVGID_00000029739435687518558210000009873603604254187681_);}
	.st42{fill:url(#SVGID_00000091016398856296564930000008392149653595926204_);}
	.st43{clip-path:url(#SVGID_00000054241219329307733440000010491839158068472199_);}
	.st44{fill:url(#SVGID_00000016759253221809981430000001194281198771967894_);}
	.st45{clip-path:url(#SVGID_00000017475823706000037230000001744400784908772749_);}
	.st46{opacity:0.2;clip-path:url(#SVGID_00000164513947933423319850000001437678894290462384_);}
	.st47{fill:url(#SVGID_00000091716597129967988040000015336144213179724173_);}
	.st48{fill:url(#SVGID_00000024687007655785752810000004787731432266071703_);}
	.st49{clip-path:url(#SVGID_00000060723471112469983160000012462350137986853805_);}
	.st50{fill:url(#SVGID_00000008122629895682134800000013780509854197660045_);}
	.st51{clip-path:url(#SVGID_00000052785994563205864630000017157386035317765536_);}
	.st52{fill:url(#SVGID_00000182530656025390569710000016626142031932335512_);}
	.st53{clip-path:url(#SVGID_00000163070181598632424400000004617304235539259830_);}
	.st54{fill:#00E4E4;stroke:#303030;stroke-width:5.3333;stroke-linejoin:round;stroke-miterlimit:13.3333;}
	.st55{fill:url(#SVGID_00000102534319188324325190000002539338554936940176_);}
	.st56{clip-path:url(#SVGID_00000147922651954568769680000012341334691379143593_);}
	.st57{fill:url(#SVGID_00000030457844474626786540000005166648131621890730_);}
	.st58{clip-path:url(#SVGID_00000011017574496866911590000009650457420339031230_);}
	.st59{fill:url(#SVGID_00000034071990417951585220000000628797334355766401_);}
	.st60{clip-path:url(#SVGID_00000134954208040719854920000004057445873264732567_);}
	.st61{opacity:0.2;clip-path:url(#SVGID_00000078752739708842203020000009988721586082875319_);}
	.st62{fill:url(#SVGID_00000034072710174585672870000001463297521224873871_);}
	.st63{fill:url(#SVGID_00000181069303511990732190000013140766607196167855_);}
	.st64{fill:url(#SVGID_00000070084390520552259720000012136507731548656047_);}
	.st65{clip-path:url(#SVGID_00000129901799976710494390000016627591889957125045_);}
	.st66{fill:url(#SVGID_00000048477018723574606160000009418512289810319495_);}
	.st67{fill:url(#SVGID_00000124120635298876767410000013623056908318498198_);}
	.st68{clip-path:url(#SVGID_00000181064788540831756710000015884384157919677875_);}
	.st69{fill:url(#SVGID_00000116951554112647331580000003566179640507561887_);}
	.st70{clip-path:url(#SVGID_00000073716341295417770870000008373657386294325417_);}
	.st71{fill:url(#SVGID_00000155839650335677778180000007909569610680345502_);}
	.st72{clip-path:url(#SVGID_00000173135169502523455820000014298816870511141276_);}
	.st73{opacity:0.2;clip-path:url(#SVGID_00000036936633570477430380000013591184579515335856_);}
	.st74{fill:url(#SVGID_00000164513113293584982080000010452552501347869111_);}
	.st75{fill:url(#SVGID_00000143609947696878803670000012274378406367207571_);}
	.st76{clip-path:url(#SVGID_00000024715934864492684900000010981495902779229093_);}
	.st77{fill:url(#SVGID_00000103945972709796062700000000156498569769828259_);}
	.st78{clip-path:url(#SVGID_00000146477065202709633850000008347029718444214419_);}
	.st79{fill:url(#SVGID_00000116205787557586022270000010986213007413790615_);}
	.st80{clip-path:url(#SVGID_00000149382399098443177110000005917548203568989842_);}
	.st81{fill:url(#SVGID_00000153670695269899961460000009810512056582859426_);}
	.st82{clip-path:url(#SVGID_00000044887912861814581760000003773018262317711010_);}
	.st83{fill:url(#SVGID_00000134251249940572959130000009944836085977865367_);}
	.st84{clip-path:url(#SVGID_00000034048411280913259010000013597816765534867336_);}
	.st85{fill:url(#SVGID_00000067950311931482409900000000629679543322128552_);}
	.st86{clip-path:url(#SVGID_00000022554279049305929540000010008123399438933392_);}
	.st87{fill:url(#SVGID_00000078759184405890364170000013299572140347928224_);}
	.st88{clip-path:url(#SVGID_00000175303808017993463990000003884540946561529005_);}
	.st89{opacity:0.2;clip-path:url(#SVGID_00000180326291378481982440000011971898163908379294_);}
	.st90{fill:url(#SVGID_00000008829248708123967890000013341808445625755560_);}
	.st91{fill:url(#SVGID_00000031185136650649684720000002013910966510648455_);}
	.st92{fill:url(#SVGID_00000029008194658994983360000003820862107464553617_);}
	.st93{fill:url(#SVGID_00000011009033888316364100000018440367579626410145_);}
	.st94{fill:url(#SVGID_00000052787845171862647050000004747493282152243601_);}
	.st95{clip-path:url(#SVGID_00000134228061463210251870000010296570257563894411_);}
	.st96{fill:url(#SVGID_00000022554984583679896950000007169970825991012230_);}
	.st97{clip-path:url(#SVGID_00000048494366696591429080000016348674250444469651_);}
	.st98{fill:url(#SVGID_00000178917420197271088920000004590138720427051691_);}
	.st99{clip-path:url(#SVGID_00000039818761354451443720000017921460335204703364_);}
	.st100{fill:url(#SVGID_00000173849881921634496530000013582058622464001176_);}
	.st101{clip-path:url(#SVGID_00000031892915357003673080000000769423602853235847_);}
	.st102{fill:none;stroke:#E3A6D6;stroke-width:5.3333;stroke-linecap:round;stroke-linejoin:round;stroke-miterlimit:13.3333;}
	.st103{fill:url(#SVGID_00000064324993560986798920000018426912042576685712_);}
	.st104{clip-path:url(#SVGID_00000080192450056439580670000013132614766256538523_);}
	.st105{fill:url(#SVGID_00000023997006688761014540000009631402481597463174_);}
	.st106{clip-path:url(#SVGID_00000096020359060020738000000007159362124835968910_);}
	.st107{fill:#FFFFFF;}
	.st108{opacity:0.2;clip-path:url(#SVGID_00000013155024495279120800000008152709795817547684_);}
	.st109{fill:url(#SVGID_00000120530498126521453360000015974927198342324372_);}
	.st110{fill:url(#SVGID_00000150794143033831258240000005868207815885467569_);}
	.st111{fill:url(#SVGID_00000093147841117614187000000006008998127767430565_);}
	.st112{fill:url(#SVGID_00000182501747678309139340000005369065951081845689_);}
	.st113{clip-path:url(#SVGID_00000132057370107208388770000013976744680494378420_);}
	.st114{fill:#CC67B9;stroke:#303030;stroke-width:5.3333;stroke-linejoin:round;stroke-miterlimit:13.3333;}
	.st115{fill:url(#SVGID_00000080897247965605191290000017064066936949428397_);}
	.st116{clip-path:url(#SVGID_00000042707184402013888090000003174493282332720782_);}
	.st117{fill:url(#SVGID_00000049926113680681741790000015441681875784176575_);}
	.st118{clip-path:url(#SVGID_00000173120199369098074210000006024447129197308823_);}
	.st119{fill:url(#SVGID_00000163773097444019572770000014643680652511362217_);}
	.st120{clip-path:url(#SVGID_00000089534973939217734290000009359321355934620086_);}
	.st121{fill:url(#SVGID_00000054986507790393197550000009469578957219606190_);}
	.st122{clip-path:url(#SVGID_00000085957408173844654350000001092449343688511679_);}
	.st123{fill:url(#SVGID_00000145049904793167827430000006505780892892631435_);}
	.st124{clip-path:url(#SVGID_00000009555725228150643780000011907679821276425890_);}
	.st125{fill:url(#SVGID_00000009579935670951826250000010982476578916315527_);}
	.st126{clip-path:url(#SVGID_00000181066016955818777960000005075007329319319468_);}
	.st127{fill:url(#SVGID_00000168102630491247446360000010285519964635361981_);}
	.st128{clip-path:url(#SVGID_00000168816053019101420530000003458253569590079385_);}
	.st129{fill:url(#SVGID_00000123439362725980615580000013950444883757338029_);}
	.st130{clip-path:url(#SVGID_00000093158891887390055200000008070306243073404596_);}
	.st131{fill:url(#SVGID_00000054952038016019977800000001413162828440007870_);}
	.st132{clip-path:url(#SVGID_00000030462906246773622880000004349085614002100645_);}
	.st133{fill:url(#SVGID_00000128480361893654289980000018062954276310866107_);}
	.st134{clip-path:url(#SVGID_00000021829498947684404560000003004299502507665580_);}
	.st135{fill:url(#SVGID_00000101076784427613690150000010157918235885344954_);}
	.st136{clip-path:url(#SVGID_00000049925781242375298110000006223582593863775879_);}
	.st137{opacity:0.2;clip-path:url(#SVGID_00000060722264252527283700000013263481437270735745_);}
	.st138{fill:url(#SVGID_00000052813698489913976790000002022106353817069199_);}
	.st139{fill:#A796A8;}
	.st140{fill:#D3C2D2;}
	.st141{fill:#EFE8EF;}
	.st142{fill:#5A4D5B;}
	.st143{fill:#716172;}
	.st144{fill:#B0EEFF;}
	.st145{fill:#4A8BF0;}
	.st146{fill:#67C2FF;}
	.st147{fill:#4E886D;}
	.st148{fill:#B0CF43;}
	.st149{fill:#70A950;}
	.st150{fill:#EBE858;}
	.st151{fill:url(#SVGID_00000152259475264066380150000008987421237575844748_);}
	.st152{fill:#E53557;}
	.st153{fill:#AF1E4B;}
	.st154{fill:#422F38;}
	.st155{fill:#F99027;}
	.st156{fill:#FFC840;}
	.st157{fill:#DF3359;}
	.st158{fill:#FFC5C5;}
	.st159{fill:#FA5262;}
	.st160{fill:#FF9BB2;}
	.st161{fill:#FF826F;}
	.st162{fill:#FFE783;}
	.st163{fill:#FFD45A;}
	.st164{fill:#F28033;}
	.st165{fill:#D56132;}
	.st166{fill:#FC9A2C;}
	.st167{fill:#E0692B;}
	.st168{fill:#FFDE6F;}
	.st169{opacity:0.59;}
</style>
<g>
	
		<linearGradient id="SVGID_1_" gradientUnits="userSpaceOnUse" x1="277.0453" y1="358.1129" x2="278.0453" y2="358.1129" gradientTransform="matrix(0 -799.998 -799.998 0 286589.5938 221922.3594)">
		<stop  offset="0" style="stop-color:#D887C7"/>
		<stop  offset="0.2285" style="stop-color:#D887C7"/>
		<stop  offset="1" style="stop-color:#00E4E4"/>
	</linearGradient>
	<path class="st0" d="M0,200h200V0H0V200z"/>
	
		<linearGradient id="SVGID_00000005959729015534919080000012696502672540894647_" gradientUnits="userSpaceOnUse" x1="276.5527" y1="356.4753" x2="277.5527" y2="356.4753" gradientTransform="matrix(114.4971 0 0 -114.4971 -31621.7324 40953.7344)">
		<stop  offset="0" style="stop-color:#D887C7"/>
		<stop  offset="0.2285" style="stop-color:#D887C7"/>
		<stop  offset="1" style="stop-color:#00E4E4"/>
	</linearGradient>
	<path style="fill:url(#SVGID_00000005959729015534919080000012696502672540894647_);" d="M42.8,161.3h114.5
		c-1.6-25.3-26.7-46-57.2-46S44.4,136,42.8,161.3"/>
	<g>
		<defs>
			<rect id="SVGID_00000121980880930465457920000001041030260683020166_" width="200" height="200"/>
		</defs>
		<clipPath id="SVGID_00000056402326171632919390000007521319775500106128_">
			<use xlink:href="#SVGID_00000121980880930465457920000001041030260683020166_"  style="overflow:visible;"/>
		</clipPath>
		
			<g transform="matrix(1.33333 0 0 -1.33333 0 200)" style="clip-path:url(#SVGID_00000056402326171632919390000007521319775500106128_);">
			<path class="st3" d="M75,65.5C50.1,65.5,30,48,30,27h90C120,48,99.9,65.5,75,65.5 M75,61.5c21,0,38.4-13.5,40.7-30.5H34.3
				C36.6,48,54,61.5,75,61.5"/>
			<path class="st4" d="M120,27H30c0,21,20.1,38.5,45,38.5S120,48,120,27z"/>
		</g>
	</g>
	
		<linearGradient id="SVGID_00000140715317802370726670000018387412034742647743_" gradientUnits="userSpaceOnUse" x1="275.49" y1="354.3021" x2="276.49" y2="354.3021" gradientTransform="matrix(45.3332 0 0 -45.3332 -12411.5166 16196.9863)">
		<stop  offset="0" style="stop-color:#D887C7"/>
		<stop  offset="0.2285" style="stop-color:#D887C7"/>
		<stop  offset="1" style="stop-color:#00E4E4"/>
	</linearGradient>
	<path style="fill:url(#SVGID_00000140715317802370726670000018387412034742647743_);" d="M77.3,149.3h45.3v-28H77.3V149.3z"/>
	<g>
		<defs>
			<rect id="SVGID_00000100349607987310835970000005843631751690898051_" y="0" width="200" height="200"/>
		</defs>
		<clipPath id="SVGID_00000089550355452482005870000005416255747644868537_">
			<use xlink:href="#SVGID_00000100349607987310835970000005843631751690898051_"  style="overflow:visible;"/>
		</clipPath>
		
			<g transform="matrix(1.33333 0 0 -1.33333 0 200)" style="clip-path:url(#SVGID_00000089550355452482005870000005416255747644868537_);">
			<path class="st7" d="M94,61H56V36h38V61z M90,40H60v17h30V40z"/>
			<path class="st4" d="M94,61H56V36h38V61z"/>
		</g>
	</g>
	
		<linearGradient id="SVGID_00000139989187776282667860000008230063812709369523_" gradientUnits="userSpaceOnUse" x1="275.4549" y1="354.2302" x2="276.4549" y2="354.2302" gradientTransform="matrix(44.4452 0 0 -44.4452 -12233.7578 15836.501)">
		<stop  offset="0" style="stop-color:#D887C7"/>
		<stop  offset="0.2285" style="stop-color:#D887C7"/>
		<stop  offset="1" style="stop-color:#00E4E4"/>
	</linearGradient>
	<path style="fill:url(#SVGID_00000139989187776282667860000008230063812709369523_);" d="M8.9,81.3l5.8,6.1
		C24.7,98,38.8,104,53.3,104V81.3H8.9z"/>
	<g>
		<defs>
			<rect id="SVGID_00000115516624812406857840000007525879701685770118_" y="0" width="200" height="200"/>
		</defs>
		<clipPath id="SVGID_00000120555107533054638610000017103663462846686098_">
			<use xlink:href="#SVGID_00000115516624812406857840000007525879701685770118_"  style="overflow:visible;"/>
		</clipPath>
		
			<g transform="matrix(1.33333 0 0 -1.33333 0 200)" style="clip-path:url(#SVGID_00000120555107533054638610000017103663462846686098_);">
			<path class="st7" d="M42,91H2l7.6-8c7.9-8.3,18.9-13,30.4-13h2V91z M38,87V74c-9.6,0.5-18.8,4.7-25.5,11.7L11.3,87H38"/>
			<path class="st4" d="M40,70h2v21H2l7.6-8C17.5,74.7,28.5,70,40,70z"/>
		</g>
	</g>
	
		<linearGradient id="SVGID_00000155838818314341203190000018310860183039163067_" gradientUnits="userSpaceOnUse" x1="275.4461" y1="354.2123" x2="276.4461" y2="354.2123" gradientTransform="matrix(44.2304 0 0 -44.2304 -12036.416 15759.6104)">
		<stop  offset="0" style="stop-color:#00E4E4"/>
		<stop  offset="0.7715" style="stop-color:#D887C7"/>
		<stop  offset="1" style="stop-color:#D887C7"/>
	</linearGradient>
	<path style="fill:url(#SVGID_00000155838818314341203190000018310860183039163067_);" d="M146.7,81.3V104c13.9,0,27-5.4,36.8-15.3
		l7.4-7.4L146.7,81.3z"/>
	<g>
		<defs>
			<rect id="SVGID_00000065793486044058396330000005631849222758419357_" y="0" width="200" height="200"/>
		</defs>
		<clipPath id="SVGID_00000167394512282533396730000004631618041871477390_">
			<use xlink:href="#SVGID_00000065793486044058396330000005631849222758419357_"  style="overflow:visible;"/>
		</clipPath>
		
			<g transform="matrix(1.33333 0 0 -1.33333 0 200)" style="clip-path:url(#SVGID_00000167394512282533396730000004631618041871477390_);">
			<path class="st7" d="M148,91h-40V70h2c10.9,0,21.3,4.3,29,12L148,91L148,91z M138.2,87l-2.1-2.2c-6.5-6.5-15-10.3-24.1-10.8v13
				h26"/>
			<path class="st4" d="M108,70h2c10.9,0,21.3,4.3,29,12l9,9h-40V70z"/>
		</g>
	</g>
	
		<linearGradient id="SVGID_00000080918127617713905320000011612893297696956313_" gradientUnits="userSpaceOnUse" x1="276.343" y1="356.0464" x2="277.343" y2="356.0464" gradientTransform="matrix(87.9998 0 0 -87.9998 -24262.1191 31424.0137)">
		<stop  offset="0" style="stop-color:#56F4F4"/>
		<stop  offset="0.995" style="stop-color:#D887C7"/>
		<stop  offset="1" style="stop-color:#D887C7"/>
	</linearGradient>
	<path style="fill:url(#SVGID_00000080918127617713905320000011612893297696956313_);" d="M56,92c0,24.3,19.7,44,44,44
		c24.3,0,44-19.7,44-44c0-24.3-19.7-44-44-44C75.7,48,56,67.7,56,92"/>
	<g>
		<defs>
			<rect id="SVGID_00000154405344660141479970000000214656342136970114_" y="0" width="200" height="200"/>
		</defs>
		<clipPath id="SVGID_00000109744296820153594880000008703074853151968169_">
			<use xlink:href="#SVGID_00000154405344660141479970000000214656342136970114_"  style="overflow:visible;"/>
		</clipPath>
		
			<g transform="matrix(1.33333 0 0 -1.33333 0 200)" style="clip-path:url(#SVGID_00000109744296820153594880000008703074853151968169_);">
			<path class="st3" d="M75,116c-19.3,0-35-15.7-35-35s15.7-35,35-35s35,15.7,35,35S94.3,116,75,116 M75,112c17.1,0,31-13.9,31-31
				S92.1,50,75,50S44,63.9,44,81S57.9,112,75,112"/>
			<path class="st14" d="M110,81c0-19.3-15.7-35-35-35S40,61.7,40,81s15.7,35,35,35S110,100.3,110,81z"/>
		</g>
	</g>
	
		<linearGradient id="SVGID_00000016060513242109732270000007568717060065321141_" gradientUnits="userSpaceOnUse" x1="276.343" y1="356.0464" x2="277.343" y2="356.0464" gradientTransform="matrix(87.9998 0 0 -87.9998 -24262.1191 31435.3477)">
		<stop  offset="0" style="stop-color:#00F1F1"/>
		<stop  offset="0.995" style="stop-color:#D887C7"/>
		<stop  offset="1" style="stop-color:#D887C7"/>
	</linearGradient>
	<path style="fill:url(#SVGID_00000016060513242109732270000007568717060065321141_);" d="M107.7,77.8c-1.9,2.2-4.8,3.5-7.7,3.5
		s-5.8-1.3-7.7-3.5c-3.9-4.5-9.6-7.1-15.6-7.1c-10.8,0-19.8,8.4-20.6,19c0,0.1,0,0.1,0,0.2c0,0.3,0,0.7,0,1c0,0.4,0,0.7,0,1.1
		c0,24.3,19.7,44,44,44c24.3,0,44-19.7,44-44c0-0.4,0-0.7,0-1.1c0-0.3,0-0.7,0-1c0,0,0-0.1,0-0.2c-0.8-10.7-9.9-19-20.6-19
		C117.3,70.7,111.6,73.3,107.7,77.8"/>
	<g>
		<defs>
			<rect id="SVGID_00000109028263571040684340000009669837818309611689_" y="0" width="200" height="200"/>
		</defs>
		<clipPath id="SVGID_00000034068708620581925650000017512148318193947548_">
			<use xlink:href="#SVGID_00000109028263571040684340000009669837818309611689_"  style="overflow:visible;"/>
		</clipPath>
		
			<g transform="matrix(1.33333 0 0 -1.33333 0 200)" style="clip-path:url(#SVGID_00000034068708620581925650000017512148318193947548_);">
			<path class="st17" d="M92.5,99c-5.3,0-10-2.3-13.2-6.1c-1.1-1.3-2.7-2-4.3-2c-1.6,0-3.1,0.7-4.3,2c-3.2,3.7-8,6.1-13.3,6.1
				C48.3,99,41,91.9,40,82.8v-0.1c0-0.3,0-0.6,0-0.8c0-0.3,0-0.6,0-0.9c0-19.3,15.7-35,35-35s35,15.7,35,35c0,0.3,0,0.6,0,0.9
				c0,0.3,0,0.6,0,0.8v0.1C109,91.9,101.7,99,92.5,99 M92.5,95c7,0,12.9-5.4,13.5-12.4c0-0.1,0-0.1,0-0.2c0-0.2,0-0.4,0-0.7
				c0-0.3,0-0.5,0-0.8c0-17.1-13.9-31-31-31c-17.1,0-31,13.9-31,31c0,0.3,0,0.5,0,0.8c0,0.2,0,0.5,0,0.7c0,0.1,0,0.1,0,0.2
				C44.6,89.6,50.5,95,57.5,95c3.9,0,7.6-1.7,10.2-4.7c1.8-2.1,4.5-3.3,7.3-3.3s5.4,1.2,7.3,3.3C84.9,93.3,88.6,95,92.5,95"/>
			<path class="st14" d="M110,81c0-19.3-15.7-35-35-35S40,61.7,40,81c0,0.3,0,0.6,0,0.9c0,0.3,0,0.6,0,0.8v0.1
				C41,91.9,48.3,99,57.5,99c5.3,0,10-2.3,13.2-6.1c2.3-2.6,6.3-2.6,8.5,0c3.2,3.7,8,6.1,13.3,6.1c9.2,0,16.5-7.1,17.5-16.2v-0.1
				c0-0.3,0-0.6,0-0.8C110,81.6,110,81.3,110,81z"/>
		</g>
	</g>
	
		<linearGradient id="SVGID_00000013180268799173754560000010717395454989410211_" gradientUnits="userSpaceOnUse" x1="276.2037" y1="355.7617" x2="277.2037" y2="355.7617" gradientTransform="matrix(76.2785 0 0 -76.2785 -21006.5293 27198.959)">
		<stop  offset="0" style="stop-color:#D887C7"/>
		<stop  offset="5.034530e-03" style="stop-color:#D887C7"/>
		<stop  offset="1" style="stop-color:#00F1F1"/>
	</linearGradient>
	<path style="fill:url(#SVGID_00000013180268799173754560000010717395454989410211_);" d="M61.9,70c4.2-2.9,9.3-4.7,14.8-4.7
		c7.6,0,14.7,3.3,19.7,9c0.9,1.1,2.3,1.7,3.7,1.7c1.4,0,2.7-0.6,3.7-1.7c4.9-5.7,12.1-9,19.7-9c5.5,0,10.6,1.7,14.8,4.7
		c-7.6-13.2-21.9-22-38.1-22S69.5,56.8,61.9,70"/>
	<g>
		<defs>
			<rect id="SVGID_00000114065695274525309670000009854549915933852050_" y="0" width="200" height="200"/>
		</defs>
		<clipPath id="SVGID_00000140733458048013595460000010449506931678159535_">
			<use xlink:href="#SVGID_00000114065695274525309670000009854549915933852050_"  style="overflow:visible;"/>
		</clipPath>
		
			<g transform="matrix(1.33333 0 0 -1.33333 0 200)" style="clip-path:url(#SVGID_00000140733458048013595460000010449506931678159535_);">
			<path class="st17" d="M75,116c-18.7,0-34-14.7-35-33.2C40.7,91.9,48.3,99,57.5,99c5.3,0,10-2.3,13.2-6.1c1.1-1.3,2.7-2,4.3-2
				c1.6,0,3.1,0.7,4.3,2c3.2,3.7,7.9,6.1,13.2,6.1c9.2,0,16.8-7.1,17.4-16.2C109,101.3,93.7,116,75,116 M75,112
				c8.8,0,16.8-3.7,22.4-9.6c-1.6,0.4-3.2,0.6-4.9,0.6c-6.3,0-12.2-2.7-16.2-7.4c-0.4-0.5-1-0.6-1.3-0.6s-0.8,0.1-1.2,0.6
				c-4.1,4.7-10,7.4-16.3,7.4c-1.7,0-3.3-0.2-4.9-0.6C58.2,108.3,66.2,112,75,112"/>
			<path class="st14" d="M109.9,82.8c-0.7,9.1-8.2,16.2-17.4,16.2c-5.3,0-10-2.3-13.2-6.1c-2.3-2.6-6.3-2.6-8.5,0
				c-3.2,3.7-7.9,6.1-13.2,6.1c-9.2,0-16.8-7.1-17.5-16.2C41,101.3,56.3,116,75,116S109,101.3,109.9,82.8z"/>
			<path class="st14" d="M92.5,70C86.2,70,81,75.2,81,81.5S86.2,93,92.5,93S104,87.8,104,81.5S98.8,70,92.5,70z"/>
			<path class="st20" d="M92.5,77C90,77,88,79,88,81.5s2,4.5,4.5,4.5s4.5-2,4.5-4.5S95,77,92.5,77"/>
			<path class="st14" d="M92.5,77C90,77,88,79,88,81.5s2,4.5,4.5,4.5s4.5-2,4.5-4.5S95,77,92.5,77z M57.5,70
				C51.2,70,46,75.2,46,81.5S51.2,93,57.5,93S69,87.8,69,81.5S63.8,70,57.5,70z"/>
			<path class="st20" d="M57.5,77c2.5,0,4.5,2,4.5,4.5S60,86,57.5,86S53,84,53,81.5S55,77,57.5,77"/>
			<path class="st14" d="M57.5,77c2.5,0,4.5,2,4.5,4.5S60,86,57.5,86S53,84,53,81.5S55,77,57.5,77z M47,86h21 M47,77h21 M82,86h21
				 M82,77h21 M61,58h28 M73,86h4 M67.9,75.9L61,58 M82.1,75.9L89,58"/>
			<path class="st20" d="M75,68c-3,0-5.5,2.5-5.5,5.5S72,79,75,79s5.5-2.5,5.5-5.5S78,68,75,68"/>
			<path class="st7" d="M75,81c-4.1,0-7.5-3.4-7.5-7.5S70.9,66,75,66s7.5,3.4,7.5,7.5S79.1,81,75,81 M75,77c1.9,0,3.5-1.6,3.5-3.5
				S76.9,70,75,70s-3.5,1.6-3.5,3.5S73.1,77,75,77"/>
			<path class="st21" d="M82.5,73.5c0,4.1-3.4,7.5-7.5,7.5s-7.5-3.4-7.5-7.5S70.9,66,75,66S82.5,69.4,82.5,73.5z"/>
			<path class="st14" d="M110,91l9.2,9.2 M110,91l2.2,12.2 M40,91l-9.2,9.2 M40,91l-2.2,12.2"/>
			<g>
				<defs>
					<rect id="SVGID_00000160878731124767609440000013817169669498228926_" x="-390.3" y="-165" width="1066.7" height="800"/>
				</defs>
				<clipPath id="SVGID_00000166635806588126816020000012245030107723680165_">
					<use xlink:href="#SVGID_00000160878731124767609440000013817169669498228926_"  style="overflow:visible;"/>
				</clipPath>
				<g style="opacity:0.2;clip-path:url(#SVGID_00000166635806588126816020000012245030107723680165_);">
					<path class="st23" d="M543,535h-800V-65h800V535z M538-60h-790v590h790V-60z"/>
				</g>
			</g>
		</g>
	</g>
</g>
<g>
	<g>
		<defs>
			<rect id="SVGID_00000053540314422016267860000010276043836776329915_" x="-213.3" y="0" width="200" height="200"/>
		</defs>
		<clipPath id="SVGID_00000100366103243953010940000002237638029006748808_">
			<use xlink:href="#SVGID_00000053540314422016267860000010276043836776329915_"  style="overflow:visible;"/>
		</clipPath>
		
			<g transform="matrix(1.33333 0 0 -1.33333 0 200)" style="clip-path:url(#SVGID_00000100366103243953010940000002237638029006748808_);">
			<g>
				<defs>
					<rect id="SVGID_00000182511124914243256540000003258562856893936778_" x="-870.3" y="-165" width="1066.7" height="800"/>
				</defs>
				<clipPath id="SVGID_00000050638213356371504160000003703957375287112598_">
					<use xlink:href="#SVGID_00000182511124914243256540000003258562856893936778_"  style="overflow:visible;"/>
				</clipPath>
				<g style="opacity:0.2;clip-path:url(#SVGID_00000050638213356371504160000003703957375287112598_);">
					<path class="st23" d="M63,535h-800V-65H63V535z M58-60h-790v590H58V-60z"/>
				</g>
			</g>
		</g>
	</g>
</g>
<g>
	<g>
		<defs>
			<rect id="SVGID_00000070801916612387571520000011825366750155544965_" x="-213.3" y="-213.3" width="200" height="200"/>
		</defs>
		<clipPath id="SVGID_00000147914058880495383010000008608053148130914213_">
			<use xlink:href="#SVGID_00000070801916612387571520000011825366750155544965_"  style="overflow:visible;"/>
		</clipPath>
		
			<g transform="matrix(1.33333 0 0 -1.33333 0 200)" style="clip-path:url(#SVGID_00000147914058880495383010000008608053148130914213_);">
			<g>
				<defs>
					<rect id="SVGID_00000137098669987950720930000007864841218711114169_" x="-550.3" y="-165" width="1066.7" height="800"/>
				</defs>
				<clipPath id="SVGID_00000165950812053116440710000002943427729177903757_">
					<use xlink:href="#SVGID_00000137098669987950720930000007864841218711114169_"  style="overflow:visible;"/>
				</clipPath>
				<g style="opacity:0.2;clip-path:url(#SVGID_00000165950812053116440710000002943427729177903757_);">
					<path class="st23" d="M383,535h-800V-65h800V535z M378-60h-790v590h790V-60z"/>
				</g>
			</g>
		</g>
	</g>
</g>
<g>
	<g>
		<defs>
			<rect id="SVGID_00000173846122975046876510000015520441463007811500_" x="640" y="-213.3" width="200" height="200"/>
		</defs>
		<clipPath id="SVGID_00000027571073539345622270000011651318295768450443_">
			<use xlink:href="#SVGID_00000173846122975046876510000015520441463007811500_"  style="overflow:visible;"/>
		</clipPath>
		
			<g transform="matrix(1.33333 0 0 -1.33333 0 200)" style="clip-path:url(#SVGID_00000027571073539345622270000011651318295768450443_);">
			<g>
				<defs>
					<rect id="SVGID_00000023966878568924842050000014068215425500678308_" x="-230.3" y="-325" width="1066.7" height="800"/>
				</defs>
				<clipPath id="SVGID_00000052089012210364978680000001020657452266104727_">
					<use xlink:href="#SVGID_00000023966878568924842050000014068215425500678308_"  style="overflow:visible;"/>
				</clipPath>
				<g style="opacity:0.2;clip-path:url(#SVGID_00000052089012210364978680000001020657452266104727_);">
					<path class="st23" d="M703,375H-97v-600h800V375z M698-220H-92v590h790V-220z"/>
				</g>
			</g>
		</g>
	</g>
</g>
<g>
	<g>
		<defs>
			<rect id="SVGID_00000124120815750423452160000002448855929057964963_" x="0" y="-213.3" width="200" height="200"/>
		</defs>
		<clipPath id="SVGID_00000029763099386357430430000016017226837496239769_">
			<use xlink:href="#SVGID_00000124120815750423452160000002448855929057964963_"  style="overflow:visible;"/>
		</clipPath>
		
			<g transform="matrix(1.33333 0 0 -1.33333 0 200)" style="clip-path:url(#SVGID_00000029763099386357430430000016017226837496239769_);">
			<g>
				<defs>
					<rect id="SVGID_00000072992715859501828010000015878512852492666002_" x="-550.3" y="-165" width="1066.7" height="800"/>
				</defs>
				<clipPath id="SVGID_00000073698230107320641390000003069664149991924100_">
					<use xlink:href="#SVGID_00000072992715859501828010000015878512852492666002_"  style="overflow:visible;"/>
				</clipPath>
				<g style="opacity:0.2;clip-path:url(#SVGID_00000073698230107320641390000003069664149991924100_);">
					<path class="st23" d="M383,535h-800V-65h800V535z M378-60h-790v590h790V-60z"/>
				</g>
			</g>
		</g>
	</g>
</g>
<g>
	<g>
		<defs>
			<rect id="SVGID_00000058579095448632020560000010763924413820889750_" x="426.7" y="-213.3" width="200" height="200"/>
		</defs>
		<clipPath id="SVGID_00000005977049229473883460000005078730823224536963_">
			<use xlink:href="#SVGID_00000058579095448632020560000010763924413820889750_"  style="overflow:visible;"/>
		</clipPath>
		
			<g transform="matrix(1.33333 0 0 -1.33333 0 200)" style="clip-path:url(#SVGID_00000005977049229473883460000005078730823224536963_);">
			<g>
				<defs>
					<rect id="SVGID_00000092454199715875006030000011282620144638621610_" x="-230.3" y="-325" width="1066.7" height="800"/>
				</defs>
				<clipPath id="SVGID_00000044172817871525004490000002582673321407220617_">
					<use xlink:href="#SVGID_00000092454199715875006030000011282620144638621610_"  style="overflow:visible;"/>
				</clipPath>
				<g style="opacity:0.2;clip-path:url(#SVGID_00000044172817871525004490000002582673321407220617_);">
					<path class="st23" d="M703,375H-97v-600h800V375z M698-220H-92v590h790V-220z"/>
				</g>
			</g>
		</g>
	</g>
</g>
<g>
	<defs>
		<rect id="SVGID_00000139988174648227379540000015372381530190142880_" x="213.3" y="-213.3" width="200" height="200"/>
	</defs>
	<clipPath id="SVGID_00000081618288271287041130000012633038287849589637_">
		<use xlink:href="#SVGID_00000139988174648227379540000015372381530190142880_"  style="overflow:visible;"/>
	</clipPath>
	
		<g transform="matrix(1.33333 0 0 -1.33333 0 200)" style="clip-path:url(#SVGID_00000081618288271287041130000012633038287849589637_);">
		<g>
			<defs>
				<rect id="SVGID_00000000215295713252029120000010448879948005955468_" x="-230.3" y="-325" width="1066.7" height="800"/>
			</defs>
			<clipPath id="SVGID_00000170269615536391850840000002932418058461331647_">
				<use xlink:href="#SVGID_00000000215295713252029120000010448879948005955468_"  style="overflow:visible;"/>
			</clipPath>
			<g style="opacity:0.2;clip-path:url(#SVGID_00000170269615536391850840000002932418058461331647_);">
				<path class="st23" d="M703,375H-97v-600h800V375z M698-220H-92v590h790V-220z"/>
			</g>
		</g>
	</g>
</g>
</svg>
