<?xml version="1.0" encoding="utf-8"?>
<!-- Generator: Adobe Illustrator 25.4.1, SVG Export Plug-In . SVG Version: 6.00 Build 0)  -->
<svg version="1.1" id="Layer_1" xmlns="http://www.w3.org/2000/svg" xmlns:xlink="http://www.w3.org/1999/xlink" x="0px" y="0px"
	 viewBox="0 0 200 200" style="enable-background:new 0 0 200 200;" xml:space="preserve">
<style type="text/css">
	.st0{fill:url(#SVGID_1_);}
	.st1{fill:url(#SVGID_00000085939045417087235900000008687229457239776441_);}
	.st2{clip-path:url(#SVGID_00000137123712889785108460000012089272336612266373_);}
	.st3{fill:#8CF7F7;}
	.st4{fill:none;stroke:#303030;stroke-width:5.3333;stroke-linejoin:round;stroke-miterlimit:13.3333;}
	.st5{fill:url(#SVGID_00000158017039876372273580000006016858099665926310_);}
	.st6{clip-path:url(#SVGID_00000047039918942544255900000012215956214689095858_);}
	.st7{fill:#E3A6D6;}
	.st8{fill:url(#SVGID_00000134946220710581590220000003567409168172085916_);}
	.st9{clip-path:url(#SVGID_00000106108210398629297020000015029053798835571081_);}
	.st10{fill:url(#SVGID_00000031891869081280456600000009856011075491925904_);}
	.st11{clip-path:url(#SVGID_00000033350511207776912390000017594944155730126987_);}
	.st12{fill:url(#SVGID_00000177483754227821094410000007564023669601123737_);}
	.st13{clip-path:url(#SVGID_00000145755870833150195390000014096618314913967801_);}
	.st14{fill:none;stroke:#303030;stroke-width:5.3333;stroke-linecap:round;stroke-linejoin:round;stroke-miterlimit:13.3333;}
	.st15{fill:url(#SVGID_00000035507865055150099840000017570313965422828686_);}
	.st16{clip-path:url(#SVGID_00000090997847058687525840000005952975146964192411_);}
	.st17{fill:#00EFEF;}
	.st18{fill:url(#SVGID_00000176744750610783732320000006586629645210303669_);}
	.st19{clip-path:url(#SVGID_00000035513720887791008780000003215196315580594325_);}
	.st20{fill:#00E4E4;}
	.st21{fill:none;stroke:#303030;stroke-width:5.3333;stroke-miterlimit:13.3333;}
	.st22{opacity:0.2;clip-path:url(#SVGID_00000138538581262502354140000004795536858338949763_);}
	.st23{fill:#303030;}
	.st24{fill:url(#SVGID_00000042003514787162977210000006381900803159355290_);}
	.st25{fill:url(#SVGID_00000012431771826449395800000014764505098256761216_);}
	.st26{clip-path:url(#SVGID_00000136382230022719177170000013341344799310123452_);}
	.st27{fill:#CC67B9;}
	.st28{fill:url(#SVGID_00000031179092912304297180000015463215513704500918_);}
	.st29{clip-path:url(#SVGID_00000148645906793047823630000009037386319587997318_);}
	.st30{fill:url(#SVGID_00000070826939514158924070000001834356156609656197_);}
	.st31{clip-path:url(#SVGID_00000008854556051484498290000012658334792780407994_);}
	.st32{fill:#D887C7;}
	.st33{opacity:0.2;clip-path:url(#SVGID_00000052086318152411074180000002151888546482547903_);}
	.st34{fill:url(#SVGID_00000034786122308475717230000013765072295932877756_);}
	.st35{clip-path:url(#SVGID_00000060735979242614578760000015267052876320118711_);}
	.st36{fill:#00E4E4;stroke:#303030;stroke-width:5.3333;stroke-miterlimit:13.3333;}
	.st37{fill:url(#SVGID_00000155824583939988410660000011233657150478725555_);}
	.st38{clip-path:url(#SVGID_00000075874419178526114280000015144606558980845701_);}
	.st39{fill:#75F5F5;}
	.st40{fill:url(#SVGID_00000130643160273543480930000015194023915747833732_);}
	.st41{clip-path:url(#SVGID_00000044859981666768200810000001194177725969753006_);}
	.st42{fill:url(#SVGID_00000017477596694855572890000012307520711879369141_);}
	.st43{clip-path:url(#SVGID_00000141445394947532123950000010302323251538354841_);}
	.st44{fill:url(#SVGID_00000150070539896962701220000014420759781372492201_);}
	.st45{clip-path:url(#SVGID_00000168091778503573075010000010527295952181064874_);}
	.st46{opacity:0.2;clip-path:url(#SVGID_00000152943022135619594140000002756454948780612778_);}
	.st47{fill:url(#SVGID_00000024707243602046248010000003220955362375172539_);}
	.st48{fill:url(#SVGID_00000082348427423029826360000013923967370840903812_);}
	.st49{clip-path:url(#SVGID_00000037686579694219626980000010521842968005507994_);}
	.st50{fill:url(#SVGID_00000098935031397935374790000009086372419952089228_);}
	.st51{clip-path:url(#SVGID_00000005259876387285580400000002825069001445365137_);}
	.st52{fill:url(#SVGID_00000034050828000942914310000002836872054886868646_);}
	.st53{clip-path:url(#SVGID_00000118364092793606192320000010030692216163630475_);}
	.st54{fill:#00E4E4;stroke:#303030;stroke-width:5.3333;stroke-linejoin:round;stroke-miterlimit:13.3333;}
	.st55{fill:url(#SVGID_00000160878163381198445820000005820192981619029910_);}
	.st56{clip-path:url(#SVGID_00000170994606011830466370000017169768835132667040_);}
	.st57{fill:url(#SVGID_00000041259714857087968450000004151414693847414176_);}
	.st58{clip-path:url(#SVGID_00000075145447484855959100000015665468217822654131_);}
	.st59{fill:url(#SVGID_00000009590159486875600760000004609880580230701449_);}
	.st60{clip-path:url(#SVGID_00000045595045871128550650000003048682418773404806_);}
	.st61{opacity:0.2;clip-path:url(#SVGID_00000080920033529303128320000014186097656596003227_);}
	.st62{fill:url(#SVGID_00000139989354007974332450000000579537116138588327_);}
	.st63{fill:url(#SVGID_00000113334795637183094490000007000251126512828595_);}
	.st64{fill:url(#SVGID_00000005239413594295718530000001865739254162378167_);}
	.st65{clip-path:url(#SVGID_00000089574421632194900330000015302631174997383615_);}
	.st66{fill:url(#SVGID_00000083086706897101245380000015081190610702939058_);}
	.st67{fill:url(#SVGID_00000124147137784347897740000007833723401797484987_);}
	.st68{clip-path:url(#SVGID_00000027567900017314548590000009517946980588319162_);}
	.st69{fill:url(#SVGID_00000036248408528195244760000010837588889187466644_);}
	.st70{clip-path:url(#SVGID_00000153705031730563775930000018090029257019580599_);}
	.st71{fill:url(#SVGID_00000026872503549544838470000009949551503739465620_);}
	.st72{clip-path:url(#SVGID_00000044859682899828141410000004406714043709549464_);}
	.st73{opacity:0.2;clip-path:url(#SVGID_00000116945471117497454320000013416983098245531301_);}
	.st74{fill:url(#SVGID_00000182508267713856522010000016367230513703474573_);}
	.st75{fill:url(#SVGID_00000096029756931776283100000010657945301537004677_);}
	.st76{clip-path:url(#SVGID_00000074406683015983959740000015289411766932615572_);}
	.st77{fill:url(#SVGID_00000054951145069075469330000006663737544686188732_);}
	.st78{clip-path:url(#SVGID_00000051345534511893648350000006232611503962416034_);}
	.st79{fill:url(#SVGID_00000072276345549808399580000007538269397328531616_);}
	.st80{clip-path:url(#SVGID_00000002377856478362277730000006411326048427596167_);}
	.st81{fill:url(#SVGID_00000063615264823735515050000016399698936395590291_);}
	.st82{clip-path:url(#SVGID_00000004514166454427471410000004694876031162355378_);}
	.st83{fill:url(#SVGID_00000152247693284746488550000004304461639593276339_);}
	.st84{clip-path:url(#SVGID_00000092429931924079538010000009253815423720539319_);}
	.st85{fill:url(#SVGID_00000093163278734736961160000017476266739318872472_);}
	.st86{clip-path:url(#SVGID_00000026858439105250593060000009030774670746527887_);}
	.st87{fill:url(#SVGID_00000064332296445834349760000002998697824519826567_);}
	.st88{clip-path:url(#SVGID_00000132809736088662985710000009897732034722013580_);}
	.st89{opacity:0.2;clip-path:url(#SVGID_00000090286856638902667720000008823832691455423383_);}
	.st90{fill:url(#SVGID_00000069355646992161457150000000987140456368170164_);}
	.st91{fill:url(#SVGID_00000108296803985494735590000015214212118172482235_);}
	.st92{fill:url(#SVGID_00000146500295882504783190000011768116434580704189_);}
	.st93{fill:url(#SVGID_00000155143714161346692830000000916786533416427454_);}
	.st94{fill:url(#SVGID_00000011001810541578967120000008551219190743109534_);}
	.st95{clip-path:url(#SVGID_00000056385557369229058450000000876411133045824958_);}
	.st96{fill:url(#SVGID_00000060031867804213296620000010875475067733072789_);}
	.st97{clip-path:url(#SVGID_00000114755982382651325760000005935293347554360737_);}
	.st98{fill:url(#SVGID_00000033350373134199779100000004836211530132898953_);}
	.st99{clip-path:url(#SVGID_00000111156629926420415830000000244593940224430008_);}
	.st100{fill:url(#SVGID_00000152260845153506429220000004977008173372823692_);}
	.st101{clip-path:url(#SVGID_00000057110928168332941720000002071647710040164775_);}
	.st102{fill:none;stroke:#E3A6D6;stroke-width:5.3333;stroke-linecap:round;stroke-linejoin:round;stroke-miterlimit:13.3333;}
	.st103{fill:url(#SVGID_00000077322009704756686390000005260920952847388091_);}
	.st104{clip-path:url(#SVGID_00000101823978303067667100000004341824259387657390_);}
	.st105{fill:url(#SVGID_00000059992101063424844290000017811053778523420043_);}
	.st106{clip-path:url(#SVGID_00000066490040828022344990000005330697192007063977_);}
	.st107{fill:#FFFFFF;}
	.st108{opacity:0.2;clip-path:url(#SVGID_00000017516498535286824280000008362938390450754463_);}
	.st109{fill:url(#SVGID_00000037670387410292869090000013841322473375695762_);}
	.st110{fill:url(#SVGID_00000026136128173573898000000010038908406771304592_);}
	.st111{fill:url(#SVGID_00000080903541974417373420000013724557288807731340_);}
	.st112{fill:url(#SVGID_00000029760793100748141030000012488787747405535109_);}
	.st113{clip-path:url(#SVGID_00000017495010505320511870000005697956198046836912_);}
	.st114{fill:#CC67B9;stroke:#303030;stroke-width:5.3333;stroke-linejoin:round;stroke-miterlimit:13.3333;}
	.st115{fill:url(#SVGID_00000018230315814880652640000018209042822548947120_);}
	.st116{clip-path:url(#SVGID_00000062876922148996785450000004743631079689860741_);}
	.st117{fill:url(#SVGID_00000006701507090975955620000009621488108074109322_);}
	.st118{clip-path:url(#SVGID_00000176017228253575170350000013024446523256092048_);}
	.st119{fill:url(#SVGID_00000109728233754418337620000012244268388152416431_);}
	.st120{clip-path:url(#SVGID_00000170272178022366178260000011813696517539817383_);}
	.st121{fill:url(#SVGID_00000032606561607484720580000008266374895027873720_);}
	.st122{clip-path:url(#SVGID_00000118355617072622266510000017926307743907741119_);}
	.st123{fill:url(#SVGID_00000079448965514986673310000017141034184337065364_);}
	.st124{clip-path:url(#SVGID_00000181792761123849660940000006530934678141334949_);}
	.st125{fill:url(#SVGID_00000056405104165421106800000008481535742467496356_);}
	.st126{clip-path:url(#SVGID_00000119117148496486353520000000446019782691424946_);}
	.st127{fill:url(#SVGID_00000099624271858211384630000015695338759014655370_);}
	.st128{clip-path:url(#SVGID_00000108988364345362231330000010246108035054861981_);}
	.st129{fill:url(#SVGID_00000101821761738105291510000002430032661173206966_);}
	.st130{clip-path:url(#SVGID_00000134936210560197013440000004495364797729822625_);}
	.st131{fill:url(#SVGID_00000169520676063765726290000007145662427363306426_);}
	.st132{clip-path:url(#SVGID_00000122708313463577696750000004751475744402655166_);}
	.st133{fill:url(#SVGID_00000093860311953464228780000007547091258122592911_);}
	.st134{clip-path:url(#SVGID_00000105421157664006184760000014723520025088782465_);}
	.st135{fill:url(#SVGID_00000118385133793909068900000000859415897358084770_);}
	.st136{clip-path:url(#SVGID_00000009587114508814620680000016478738870904832170_);}
	.st137{opacity:0.2;clip-path:url(#SVGID_00000080208588037175170110000008221563423659177109_);}
	.st138{fill:url(#SVGID_00000132790965561187363970000003290924439423920259_);}
	.st139{fill:#A796A8;}
	.st140{fill:#D3C2D2;}
	.st141{fill:#EFE8EF;}
	.st142{fill:#5A4D5B;}
	.st143{fill:#716172;}
	.st144{fill:#B0EEFF;}
	.st145{fill:#4A8BF0;}
	.st146{fill:#67C2FF;}
	.st147{fill:#4E886D;}
	.st148{fill:#B0CF43;}
	.st149{fill:#70A950;}
	.st150{fill:#EBE858;}
	.st151{fill:url(#SVGID_00000098920881200050348260000003244696407968668066_);}
	.st152{fill:#E53557;}
	.st153{fill:#AF1E4B;}
	.st154{fill:#422F38;}
	.st155{fill:#F99027;}
	.st156{fill:#FFC840;}
	.st157{fill:#DF3359;}
	.st158{fill:#FFC5C5;}
	.st159{fill:#FA5262;}
	.st160{fill:#FF9BB2;}
	.st161{fill:#FF826F;}
	.st162{fill:#FFE783;}
	.st163{fill:#FFD45A;}
	.st164{fill:#F28033;}
	.st165{fill:#D56132;}
	.st166{fill:#FC9A2C;}
	.st167{fill:#E0692B;}
	.st168{fill:#FFDE6F;}
	.st169{opacity:0.59;}
</style>
<g>
	<g>
		<defs>
			<rect id="SVGID_00000114065695274525309670000009854549915933852050_" x="-218.1" y="-271.4" width="200" height="200"/>
		</defs>
		<clipPath id="SVGID_00000016793142801338269880000013963027591225437602_">
			<use xlink:href="#SVGID_00000114065695274525309670000009854549915933852050_"  style="overflow:visible;"/>
		</clipPath>
		
			<g transform="matrix(1.33333 0 0 -1.33333 0 200)" style="clip-path:url(#SVGID_00000016793142801338269880000013963027591225437602_);">
			<g>
				<defs>
					<rect id="SVGID_00000160878731124767609440000013817169669498228926_" x="-553.9" y="38.5" width="1066.7" height="800"/>
				</defs>
				<clipPath id="SVGID_00000155112155705134044960000008900344698766762165_">
					<use xlink:href="#SVGID_00000160878731124767609440000013817169669498228926_"  style="overflow:visible;"/>
				</clipPath>
				<g style="opacity:0.2;clip-path:url(#SVGID_00000155112155705134044960000008900344698766762165_);">
					<path class="st23" d="M379.4,738.5h-800v-600h800V738.5z M374.4,143.5h-790v590h790V143.5z"/>
				</g>
			</g>
		</g>
	</g>
</g>
<g>
	<g>
		<defs>
			<rect id="SVGID_00000070801916612387571520000011825366750155544965_" x="-431.4" y="-484.7" width="200" height="200"/>
		</defs>
		<clipPath id="SVGID_00000112621634424580508450000007931796288985788831_">
			<use xlink:href="#SVGID_00000070801916612387571520000011825366750155544965_"  style="overflow:visible;"/>
		</clipPath>
		
			<g transform="matrix(1.33333 0 0 -1.33333 0 200)" style="clip-path:url(#SVGID_00000112621634424580508450000007931796288985788831_);">
			<g>
				<defs>
					<rect id="SVGID_00000137098669987950720930000007864841218711114169_" x="-713.9" y="38.5" width="1066.7" height="800"/>
				</defs>
				<clipPath id="SVGID_00000165193499760499851220000014509825016778802367_">
					<use xlink:href="#SVGID_00000137098669987950720930000007864841218711114169_"  style="overflow:visible;"/>
				</clipPath>
				<g style="opacity:0.2;clip-path:url(#SVGID_00000165193499760499851220000014509825016778802367_);">
					<path class="st23" d="M219.4,738.5h-800v-600h800V738.5z M214.4,143.5h-790v590h790V143.5z"/>
				</g>
			</g>
		</g>
	</g>
</g>
<g>
	<g>
		<defs>
			<rect id="SVGID_00000173846122975046876510000015520441463007811500_" x="421.9" y="-484.7" width="200" height="200"/>
		</defs>
		<clipPath id="SVGID_00000110453474736899542830000014180128370616316085_">
			<use xlink:href="#SVGID_00000173846122975046876510000015520441463007811500_"  style="overflow:visible;"/>
		</clipPath>
		
			<g transform="matrix(1.33333 0 0 -1.33333 0 200)" style="clip-path:url(#SVGID_00000110453474736899542830000014180128370616316085_);">
			<g>
				<defs>
					<rect id="SVGID_00000023966878568924842050000014068215425500678308_" x="-393.9" y="-121.5" width="1066.7" height="800"/>
				</defs>
				<clipPath id="SVGID_00000137812241193502799820000013799901360134646951_">
					<use xlink:href="#SVGID_00000023966878568924842050000014068215425500678308_"  style="overflow:visible;"/>
				</clipPath>
				<g style="opacity:0.2;clip-path:url(#SVGID_00000137812241193502799820000013799901360134646951_);">
					<path class="st23" d="M539.4,578.5h-800v-600h800V578.5z M534.4-16.5h-790v590h790V-16.5z"/>
				</g>
			</g>
		</g>
	</g>
</g>
<g>
	<g>
		<defs>
			<rect id="SVGID_00000124120815750423452160000002448855929057964963_" x="-218.1" y="-484.7" width="200" height="200"/>
		</defs>
		<clipPath id="SVGID_00000047038139753282470620000001842732656899239604_">
			<use xlink:href="#SVGID_00000124120815750423452160000002448855929057964963_"  style="overflow:visible;"/>
		</clipPath>
		
			<g transform="matrix(1.33333 0 0 -1.33333 0 200)" style="clip-path:url(#SVGID_00000047038139753282470620000001842732656899239604_);">
			<g>
				<defs>
					<rect id="SVGID_00000072992715859501828010000015878512852492666002_" x="-713.9" y="38.5" width="1066.7" height="800"/>
				</defs>
				<clipPath id="SVGID_00000012431558921523613510000000505940996375735209_">
					<use xlink:href="#SVGID_00000072992715859501828010000015878512852492666002_"  style="overflow:visible;"/>
				</clipPath>
				<g style="opacity:0.2;clip-path:url(#SVGID_00000012431558921523613510000000505940996375735209_);">
					<path class="st23" d="M219.4,738.5h-800v-600h800V738.5z M214.4,143.5h-790v590h790V143.5z"/>
				</g>
			</g>
		</g>
	</g>
</g>
<g>
	<g>
		<defs>
			<rect id="SVGID_00000058579095448632020560000010763924413820889750_" x="208.6" y="-484.7" width="200" height="200"/>
		</defs>
		<clipPath id="SVGID_00000008849631510628099090000009625729273001585585_">
			<use xlink:href="#SVGID_00000058579095448632020560000010763924413820889750_"  style="overflow:visible;"/>
		</clipPath>
		
			<g transform="matrix(1.33333 0 0 -1.33333 0 200)" style="clip-path:url(#SVGID_00000008849631510628099090000009625729273001585585_);">
			<g>
				<defs>
					<rect id="SVGID_00000092454199715875006030000011282620144638621610_" x="-393.9" y="-121.5" width="1066.7" height="800"/>
				</defs>
				<clipPath id="SVGID_00000079483060045069183200000004288082249095861178_">
					<use xlink:href="#SVGID_00000092454199715875006030000011282620144638621610_"  style="overflow:visible;"/>
				</clipPath>
				<g style="opacity:0.2;clip-path:url(#SVGID_00000079483060045069183200000004288082249095861178_);">
					<path class="st23" d="M539.4,578.5h-800v-600h800V578.5z M534.4-16.5h-790v590h790V-16.5z"/>
				</g>
			</g>
		</g>
	</g>
</g>
<g>
	<defs>
		<rect id="SVGID_00000139988174648227379540000015372381530190142880_" x="-4.8" y="-484.7" width="200" height="200"/>
	</defs>
	<clipPath id="SVGID_00000067231611814158076020000009844168570427126926_">
		<use xlink:href="#SVGID_00000139988174648227379540000015372381530190142880_"  style="overflow:visible;"/>
	</clipPath>
	
		<g transform="matrix(1.33333 0 0 -1.33333 0 200)" style="clip-path:url(#SVGID_00000067231611814158076020000009844168570427126926_);">
		<g>
			<defs>
				<rect id="SVGID_00000000215295713252029120000010448879948005955468_" x="-393.9" y="-121.5" width="1066.7" height="800"/>
			</defs>
			<clipPath id="SVGID_00000032622469622520500640000010229660261565793467_">
				<use xlink:href="#SVGID_00000000215295713252029120000010448879948005955468_"  style="overflow:visible;"/>
			</clipPath>
			<g style="opacity:0.2;clip-path:url(#SVGID_00000032622469622520500640000010229660261565793467_);">
				<path class="st23" d="M539.4,578.5h-800v-600h800V578.5z M534.4-16.5h-790v590h790V-16.5z"/>
			</g>
		</g>
	</g>
</g>
<linearGradient id="SVGID_1_" gradientUnits="userSpaceOnUse" x1="-340.4779" y1="486.9612" x2="-339.4779" y2="486.9612" gradientTransform="matrix(0 -799.998 -799.998 0 389667.9688 -272095)">
	<stop  offset="0" style="stop-color:#D887C7"/>
	<stop  offset="0.2285" style="stop-color:#D887C7"/>
	<stop  offset="1" style="stop-color:#00E4E4"/>
</linearGradient>
<path class="st0" d="M0,200h200V0H0V200z"/>
<g>
	<g>
		<g>
			<ellipse class="st152" cx="100.5" cy="97.1" rx="65.8" ry="65.5"/>
		</g>
	</g>
	<g>
		<g>
			<path class="st153" d="M34.7,97.1c0,36.2,29.5,65.5,65.8,65.5c36.4,0,65.8-29.3,65.8-65.5H34.7z"/>
		</g>
	</g>
	<g>
		<g>
			<g>
				<g>
					<path class="st154" d="M44.9,135.8c-9.9,0-17.9-8-17.9-17.9V76.3c0-9.8,8-17.9,17.9-17.9h111.3c9.9,0,17.9,8,17.9,17.9V118
						c0,9.8-8,17.9-17.9,17.9H44.9z"/>
				</g>
			</g>
			<g>
				<g>
					<g>
						<path class="st155" d="M156.2,65.3c6.1,0,11.1,4.9,11.1,11V118c0,6.1-5,11-11.1,11H44.9c-6.1,0-11.1-4.9-11.1-11V76.3
							c0-6.1,5-11,11.1-11H156.2L156.2,65.3z M156.2,51.6H44.9c-13.7,0-24.8,11.1-24.8,24.7V118c0,13.6,11.1,24.7,24.8,24.7h111.3
							c13.7,0,24.8-11.1,24.8-24.7V76.3C181,62.7,169.9,51.6,156.2,51.6L156.2,51.6z"/>
					</g>
				</g>
			</g>
		</g>
		<g>
			<g>
				<path class="st107" d="M53.3,104.6h3l0-15.8h-2.9v-6.1l14.2,0c1.4,0,2.7,0.1,3.7,0.2c1.1,0.1,2.1,0.3,3.1,0.7
					c1,0.3,1.7,0.8,2.4,1.3c0.6,0.5,1.1,1.2,1.4,2.1c0.4,0.9,0.5,1.9,0.5,3c0,1.4-0.4,2.7-1.2,3.8c-0.8,1.1-1.8,1.9-3.1,2.4v0
					c1.7,0.5,3.1,1.4,4,2.6c1,1.2,1.4,2.9,1.4,4.8c0,1.3-0.3,2.4-0.8,3.4c-0.5,1-1.2,1.7-2.2,2.3c-0.9,0.6-2,1-3.2,1.2
					c-1.2,0.3-2.6,0.4-4.1,0.4H53.3V104.6z M65.6,94.2h0.7c0.6,0,1.1,0,1.5-0.1c0.4-0.1,0.8-0.2,1.2-0.4c0.4-0.2,0.7-0.5,0.9-0.9
					c0.2-0.4,0.3-0.9,0.3-1.6c0-0.8-0.2-1.4-0.7-1.8c-0.5-0.4-1-0.6-1.7-0.6h-2.2V94.2z M65.6,98.7v5.9c0.1,0,0.2,0,0.4,0
					c0.2,0,0.5,0,0.7,0c0.2,0,0.4,0,0.7,0c0.2,0,0.4,0,0.6-0.1c0.2,0,0.4-0.1,0.6-0.1c0.2,0,0.4-0.1,0.5-0.2
					c0.2-0.1,0.3-0.2,0.4-0.3c0.1-0.1,0.3-0.2,0.4-0.4c0.1-0.2,0.2-0.3,0.3-0.5c0.1-0.2,0.1-0.4,0.2-0.6c0-0.2,0.1-0.5,0.1-0.8
					c0-0.5-0.1-1-0.2-1.4c-0.2-0.4-0.3-0.7-0.6-0.9c-0.2-0.2-0.5-0.4-0.8-0.5c-0.3-0.1-0.6-0.2-0.9-0.2c-0.3,0-0.6,0-0.9,0
					C66.7,98.7,66.3,98.7,65.6,98.7z"/>
			</g>
			<g>
				<path class="st107" d="M110.4,103.1c0.1,0.4,0.2,0.6,0.2,0.8c0.1,0.2,0.2,0.4,0.3,0.5c0.1,0.1,0.3,0.2,0.5,0.2h1.5v6.2H98.5
					l0-6.2h2.1c0-1.9-0.4-2.8-1.2-2.8h-4.8c-0.2,0-0.3,0.1-0.4,0.2c-0.1,0.1-0.1,0.2-0.1,0.4c0,0.1,0,0.3,0,0.6
					c0,0.3,0.1,0.7,0.2,1.1c0.1,0.4,0.3,0.6,0.6,0.6h1.5v6.2H84.5v-6.2c0.5,0,1,0,1.4-0.1c0.9-0.2,1.6-0.8,1.9-1.6
					c0.1-0.3,0.3-1,0.7-2.2l3-11.8h-3.7v-6.1h17.3L110.4,103.1z M99.1,97.4l-2-8.8l-2,8.8H99.1z"/>
			</g>
			<g>
				<path class="st107" d="M132.6,110.9c-3.1,0-7.8,0-14.1,0v-6.3h2.7V88.8h-2.7v-6.1h17.7c1.4,0,2.7,0.1,3.8,0.4
					c1.1,0.3,2.1,0.7,2.9,1.3c0.8,0.6,1.5,1.4,1.9,2.4c0.4,1,0.6,2.2,0.6,3.7c0,1.7-0.5,3.1-1.6,4.1c-1.1,1.1-2.6,1.8-4.6,2.2
					c1.7,0.4,3,0.9,3.7,1.6c0.7,0.7,1.1,1.6,1.1,2.7v1.6c0,0.3,0,0.6,0.1,0.8c0.1,0.2,0.2,0.4,0.4,0.6c0.2,0.2,0.5,0.3,0.9,0.4
					c0.4,0.1,0.9,0.1,1.6,0.1v6.2h-4.6c-0.5,0-0.8,0-1.1,0c-0.3,0-0.6,0-1,0c-0.4,0-0.8-0.1-1.1-0.1c-0.3-0.1-0.6-0.1-1-0.2
					c-0.4-0.1-0.7-0.2-0.9-0.4c-0.2-0.1-0.5-0.3-0.7-0.6c-0.2-0.2-0.4-0.5-0.6-0.8c-0.1-0.3-0.3-0.6-0.3-1c-0.1-0.4-0.1-0.8-0.1-1.3
					V103c0-0.7,0-1.3-0.1-1.7c-0.1-0.5-0.2-0.9-0.4-1.3c-0.2-0.4-0.5-0.7-1-0.9c-0.4-0.2-1-0.3-1.7-0.3h-1.7v5.8h2.1V110.9z
					 M131.4,94.9c0.6,0,1.1,0,1.6-0.1c0.5-0.1,0.9-0.2,1.4-0.5c0.4-0.2,0.8-0.5,1-1c0.2-0.4,0.4-0.9,0.4-1.5c0-0.9-0.3-1.6-0.9-2.2
					c-0.6-0.5-1.4-0.8-2.4-0.8h-2.1v6.1H131.4z"/>
			</g>
		</g>
		<g>
			<g>
				<path class="st156" d="M33.8,83.5v-7.2c0-6.1,5-11,11.1-11h111.3c6.1,0,11.1,4.9,11.1,11v20.8l0,0c7.6,0,13.7-6.1,13.7-13.7
					v-7.2c0-13.6-11.1-24.7-24.8-24.7H44.9c-13.7,0-24.8,11.1-24.8,24.7v20.8l0,0C27.7,97.1,33.8,91,33.8,83.5z"/>
			</g>
		</g>
	</g>
</g>
</svg>
