<?xml version="1.0" encoding="utf-8"?>
<!-- Generator: Adobe Illustrator 25.4.1, SVG Export Plug-In . SVG Version: 6.00 Build 0)  -->
<svg version="1.1" id="Layer_1" xmlns="http://www.w3.org/2000/svg" xmlns:xlink="http://www.w3.org/1999/xlink" x="0px" y="0px"
	 viewBox="0 0 200 200" style="enable-background:new 0 0 200 200;" xml:space="preserve">
<style type="text/css">
	.st0{fill:url(#SVGID_1_);}
	.st1{fill:url(#SVGID_00000080885283939370816320000015202411484886612103_);}
	.st2{clip-path:url(#SVGID_00000066487977153647867970000002874676283925225132_);}
	.st3{fill:#8CF7F7;}
	.st4{fill:none;stroke:#303030;stroke-width:5.3333;stroke-linejoin:round;stroke-miterlimit:13.3333;}
	.st5{fill:url(#SVGID_00000020390052165837089210000013894437585117376642_);}
	.st6{clip-path:url(#SVGID_00000149376530819074914240000016749125272369754801_);}
	.st7{fill:#E3A6D6;}
	.st8{fill:url(#SVGID_00000123410477973845526970000006755743454790817958_);}
	.st9{clip-path:url(#SVGID_00000060722859130204075550000015493331153220927115_);}
	.st10{fill:url(#SVGID_00000117667168726261361940000003417071270458476698_);}
	.st11{clip-path:url(#SVGID_00000139272183639627210360000008559688386271088025_);}
	.st12{fill:url(#SVGID_00000121988429300124991470000011542257140490908308_);}
	.st13{clip-path:url(#SVGID_00000142146688300643127970000003941418275457167496_);}
	.st14{fill:none;stroke:#303030;stroke-width:5.3333;stroke-linecap:round;stroke-linejoin:round;stroke-miterlimit:13.3333;}
	.st15{fill:url(#SVGID_00000025421315539268500790000008332215851304758189_);}
	.st16{clip-path:url(#SVGID_00000029735514458111777910000014902265169742280064_);}
	.st17{fill:#00EFEF;}
	.st18{fill:url(#SVGID_00000170276463062616652120000008402491693218142134_);}
	.st19{clip-path:url(#SVGID_00000013889737436196399030000003499627937231629990_);}
	.st20{fill:#00E4E4;}
	.st21{fill:none;stroke:#303030;stroke-width:5.3333;stroke-miterlimit:13.3333;}
	.st22{opacity:0.2;clip-path:url(#SVGID_00000182491178886176654190000005856391280634459276_);}
	.st23{fill:#303030;}
	.st24{fill:url(#SVGID_00000142885226866031467950000012810001278454066832_);}
	.st25{fill:url(#SVGID_00000065037715402433504470000006669768730825879458_);}
	.st26{clip-path:url(#SVGID_00000116210326800300130180000018097466121473273492_);}
	.st27{fill:#CC67B9;}
	.st28{fill:url(#SVGID_00000155852808793344826460000011863484684448420761_);}
	.st29{clip-path:url(#SVGID_00000054972633089855750680000001473853380030770826_);}
	.st30{fill:url(#SVGID_00000036931138968078302760000011274979118451283337_);}
	.st31{clip-path:url(#SVGID_00000029018062216702459180000003166191072062090368_);}
	.st32{fill:#D887C7;}
	.st33{opacity:0.2;clip-path:url(#SVGID_00000064353595932098610790000004233757563371060909_);}
	.st34{fill:url(#SVGID_00000062166873126586651370000001817193354195927732_);}
	.st35{clip-path:url(#SVGID_00000106124074468338665310000002692964443094556303_);}
	.st36{fill:#00E4E4;stroke:#303030;stroke-width:5.3333;stroke-miterlimit:13.3333;}
	.st37{fill:url(#SVGID_00000118390780207215985100000016119090032588253104_);}
	.st38{clip-path:url(#SVGID_00000088097171626832558780000001257328719949573527_);}
	.st39{fill:#75F5F5;}
	.st40{fill:url(#SVGID_00000159457226102682172550000010230867607699918236_);}
	.st41{clip-path:url(#SVGID_00000005963212008753142470000015164696300919529896_);}
	.st42{fill:url(#SVGID_00000078034598261859449240000016613220355551008153_);}
	.st43{clip-path:url(#SVGID_00000129889705542228309230000001309903564403375542_);}
	.st44{fill:url(#SVGID_00000155866087878584236640000011310204871396009601_);}
	.st45{clip-path:url(#SVGID_00000094601371998674742710000010516576661930850981_);}
	.st46{opacity:0.2;clip-path:url(#SVGID_00000010990153907439198290000004425010225357914261_);}
	.st47{fill:url(#SVGID_00000082338689847807836480000002808548134492706985_);}
	.st48{fill:url(#SVGID_00000161631425387439309330000001856783354890237856_);}
	.st49{clip-path:url(#SVGID_00000093164069065818651240000002857458563732606137_);}
	.st50{fill:url(#SVGID_00000036211117406229867650000015165238844987547302_);}
	.st51{clip-path:url(#SVGID_00000167366207373543002750000007288566454632188594_);}
	.st52{fill:url(#SVGID_00000124840732097446155180000017664547868255199927_);}
	.st53{clip-path:url(#SVGID_00000107584518471913186790000000880242427185211059_);}
	.st54{fill:#00E4E4;stroke:#303030;stroke-width:5.3333;stroke-linejoin:round;stroke-miterlimit:13.3333;}
	.st55{fill:url(#SVGID_00000096737366912516748850000003532351969962638728_);}
	.st56{clip-path:url(#SVGID_00000040569941098469942520000005430299674563507096_);}
	.st57{fill:url(#SVGID_00000059301828909377562810000006888927227394104471_);}
	.st58{clip-path:url(#SVGID_00000171710447555187133620000009827111996397165446_);}
	.st59{fill:url(#SVGID_00000180363070640547424720000010760159406698717077_);}
	.st60{clip-path:url(#SVGID_00000173870531964409118930000000366827003525423530_);}
	.st61{opacity:0.2;clip-path:url(#SVGID_00000116211503021166570600000004004637566103897733_);}
	.st62{fill:url(#SVGID_00000129914385465463025680000014001206818976543365_);}
	.st63{fill:url(#SVGID_00000181073281933107498140000005305930131728335239_);}
	.st64{fill:url(#SVGID_00000094584676399952515980000001809366869387524274_);}
	.st65{clip-path:url(#SVGID_00000130634192755140228280000001895677779043115961_);}
	.st66{fill:url(#SVGID_00000078004959370379325800000001223820922641686707_);}
	.st67{fill:url(#SVGID_00000010273930766868048080000000059298601378341279_);}
	.st68{clip-path:url(#SVGID_00000173840001076313064060000006712129444060158896_);}
	.st69{fill:url(#SVGID_00000098206158943197479020000014210581562146345374_);}
	.st70{clip-path:url(#SVGID_00000152955968519650044690000001182785380166155964_);}
	.st71{fill:url(#SVGID_00000013883985722015622710000009509568166104009384_);}
	.st72{clip-path:url(#SVGID_00000134234662766154663960000013791684228376730552_);}
	.st73{opacity:0.2;clip-path:url(#SVGID_00000065757774123716495880000002709923853839989424_);}
	.st74{fill:url(#SVGID_00000018198179043083213310000016106705602058918550_);}
	.st75{fill:url(#SVGID_00000134239914686029330050000005874935838905692839_);}
	.st76{clip-path:url(#SVGID_00000041989713619122746890000005839971329208018318_);}
	.st77{fill:url(#SVGID_00000159439919797415790810000006119435054005657732_);}
	.st78{clip-path:url(#SVGID_00000065064298258016314220000004657685034490936215_);}
	.st79{fill:url(#SVGID_00000052102862943517635160000014050943906061955214_);}
	.st80{clip-path:url(#SVGID_00000159440193824075856870000017381687180554603161_);}
	.st81{fill:url(#SVGID_00000040574646787787885940000013719941709440276415_);}
	.st82{clip-path:url(#SVGID_00000027585002914072277210000002946463558539522435_);}
	.st83{fill:url(#SVGID_00000179615880548026713760000018209028350870314629_);}
	.st84{clip-path:url(#SVGID_00000078028266920362400040000003432646385985723564_);}
	.st85{fill:url(#SVGID_00000152240097406885935250000001837401161596504484_);}
	.st86{clip-path:url(#SVGID_00000115480798155691879000000007909749355107392959_);}
	.st87{fill:url(#SVGID_00000030451207674264888050000003159514677867553686_);}
	.st88{clip-path:url(#SVGID_00000046298462996703899620000010678124517633071773_);}
	.st89{opacity:0.2;clip-path:url(#SVGID_00000039100560440335086520000015074988537890243498_);}
	.st90{fill:url(#SVGID_00000092425630526972830750000005964820329785562760_);}
	.st91{fill:url(#SVGID_00000130637701978824788710000017626776829675084199_);}
	.st92{fill:url(#SVGID_00000180327649776859566410000001218331096956222092_);}
	.st93{fill:url(#SVGID_00000105400282432685643100000013364812439601501834_);}
	.st94{fill:url(#SVGID_00000107587956415994770990000002262590552567494810_);}
	.st95{clip-path:url(#SVGID_00000124138722320424370690000016674396258685063331_);}
	.st96{fill:url(#SVGID_00000045594500289958390860000018356507235742635397_);}
	.st97{clip-path:url(#SVGID_00000072241558605405447270000014222802793934236577_);}
	.st98{fill:url(#SVGID_00000001652027035067834970000015719559688187354042_);}
	.st99{clip-path:url(#SVGID_00000141445757161623241650000005760868040346603698_);}
	.st100{fill:url(#SVGID_00000008862760911298297300000016360105675471403683_);}
	.st101{clip-path:url(#SVGID_00000039852243109428703700000002599073570380361374_);}
	.st102{fill:none;stroke:#E3A6D6;stroke-width:5.3333;stroke-linecap:round;stroke-linejoin:round;stroke-miterlimit:13.3333;}
	.st103{fill:url(#SVGID_00000010280684988748919700000007573936452970371499_);}
	.st104{clip-path:url(#SVGID_00000052085947020094452890000006203303357432300450_);}
	.st105{fill:url(#SVGID_00000033353222388822219820000003278717528373685642_);}
	.st106{clip-path:url(#SVGID_00000057866903326021645280000008739922816626130836_);}
	.st107{fill:#FFFFFF;}
	.st108{opacity:0.2;clip-path:url(#SVGID_00000067916814883248612740000013970837993240028322_);}
	.st109{fill:url(#SVGID_00000067225814849447659480000010022840599191097252_);}
	.st110{fill:url(#SVGID_00000141441601080250432160000009698120167928360095_);}
	.st111{fill:url(#SVGID_00000065764158700278163110000015744553360314252944_);}
	.st112{fill:url(#SVGID_00000031926852433451113180000011038134374912013441_);}
	.st113{clip-path:url(#SVGID_00000052076349915263828620000010890189728691065780_);}
	.st114{fill:#CC67B9;stroke:#303030;stroke-width:5.3333;stroke-linejoin:round;stroke-miterlimit:13.3333;}
	.st115{fill:url(#SVGID_00000162344879985508080460000006165922671070601882_);}
	.st116{clip-path:url(#SVGID_00000118380613265788987000000001786454455383013521_);}
	.st117{fill:url(#SVGID_00000158024356046830721280000018373146617147806097_);}
	.st118{clip-path:url(#SVGID_00000155839012262356870080000002149655933228688038_);}
	.st119{fill:url(#SVGID_00000120556924358302867240000009127960897491553169_);}
	.st120{clip-path:url(#SVGID_00000022528260072437485350000012020852874773278088_);}
	.st121{fill:url(#SVGID_00000058550628221542373890000014835617324498950814_);}
	.st122{clip-path:url(#SVGID_00000092454578720828832100000015176735892523007665_);}
	.st123{fill:url(#SVGID_00000036252503246716206120000007579196185389875589_);}
	.st124{clip-path:url(#SVGID_00000056414149325894676040000007875643784722174637_);}
	.st125{fill:url(#SVGID_00000174571515613031314480000012940312006505777827_);}
	.st126{clip-path:url(#SVGID_00000018219723589770751330000001034716087600237481_);}
	.st127{fill:url(#SVGID_00000119821061641734645820000002632510278896199838_);}
	.st128{clip-path:url(#SVGID_00000086664682722339152010000000233785993816412593_);}
	.st129{fill:url(#SVGID_00000031929650711668172910000011551219074700028349_);}
	.st130{clip-path:url(#SVGID_00000128452324495388712580000005075728359766230164_);}
	.st131{fill:url(#SVGID_00000026144100027327454160000002898144355013420470_);}
	.st132{clip-path:url(#SVGID_00000178206695034584860790000001334868927335631800_);}
	.st133{fill:url(#SVGID_00000182501253949061819320000003170533936840530877_);}
	.st134{clip-path:url(#SVGID_00000004536914699661301550000013536737916614526081_);}
	.st135{fill:url(#SVGID_00000143584135548058325030000007689390469063110537_);}
	.st136{clip-path:url(#SVGID_00000103957142753277018130000000386972246309036976_);}
	.st137{opacity:0.2;clip-path:url(#SVGID_00000089541534650360583550000014159962198756374158_);}
	.st138{fill:url(#SVGID_00000094600732134919077490000015726956869285710515_);}
	.st139{fill:#A796A8;}
	.st140{fill:#D3C2D2;}
	.st141{fill:#EFE8EF;}
	.st142{fill:#5A4D5B;}
	.st143{fill:#716172;}
	.st144{fill:#B0EEFF;}
	.st145{fill:#4A8BF0;}
	.st146{fill:#67C2FF;}
	.st147{fill:#4E886D;}
	.st148{fill:#B0CF43;}
	.st149{fill:#70A950;}
	.st150{fill:#EBE858;}
	.st151{fill:url(#SVGID_00000014621908451703721370000016321415585284668579_);}
	.st152{fill:#E53557;}
	.st153{fill:#AF1E4B;}
	.st154{fill:#422F38;}
	.st155{fill:#F99027;}
	.st156{fill:#FFC840;}
	.st157{fill:#DF3359;}
	.st158{fill:#FFC5C5;}
	.st159{fill:#FA5262;}
	.st160{fill:#FF9BB2;}
	.st161{fill:#FF826F;}
	.st162{fill:#FFE783;}
	.st163{fill:#FFD45A;}
	.st164{fill:#F28033;}
	.st165{fill:#D56132;}
	.st166{fill:#FC9A2C;}
	.st167{fill:#E0692B;}
	.st168{fill:#FFDE6F;}
	.st169{opacity:0.59;}
</style>
<linearGradient id="SVGID_1_" gradientUnits="userSpaceOnUse" x1="702.6597" y1="-134.854" x2="703.6597" y2="-134.854" gradientTransform="matrix(0 -799.998 -799.998 0 -107782.9141 562626.375)">
	<stop  offset="0" style="stop-color:#D887C7"/>
	<stop  offset="0.2285" style="stop-color:#D887C7"/>
	<stop  offset="1" style="stop-color:#00E4E4"/>
</linearGradient>
<path class="st0" d="M0,200h200V0H0V200z"/>
<g>
	<defs>
		<rect id="SVGID_00000104699522144734950620000015131073236883270566_" x="1.3" y="-493.5" width="200" height="200"/>
	</defs>
	<clipPath id="SVGID_00000058587866031021508430000001666094549454594221_">
		<use xlink:href="#SVGID_00000104699522144734950620000015131073236883270566_"  style="overflow:visible;"/>
	</clipPath>
	
		<g transform="matrix(1.33333 0 0 -1.33333 0 200)" style="clip-path:url(#SVGID_00000058587866031021508430000001666094549454594221_);">
		<g>
			<defs>
				<rect id="SVGID_00000146492360797469061640000006539099482897687206_" x="-709.4" y="45.1" width="1066.7" height="800"/>
			</defs>
			<clipPath id="SVGID_00000110456641045607958750000017946302821675918765_">
				<use xlink:href="#SVGID_00000146492360797469061640000006539099482897687206_"  style="overflow:visible;"/>
			</clipPath>
			<g style="opacity:0.2;clip-path:url(#SVGID_00000110456641045607958750000017946302821675918765_);">
				<path class="st23" d="M224,745.1h-800v-600h800V745.1z M219,150.1h-790v590h790V150.1z"/>
			</g>
		</g>
	</g>
</g>
<g>
	<g>
		<g>
			<path class="st155" d="M149.3,149.1L149.3,149.1c-27.3,27.1-71.4,27.1-98.7,0h0C23.4,122,23.4,78,50.7,50.9h0
				c27.3-27.1,71.4-27.1,98.7,0h0C176.6,78,176.6,122,149.3,149.1z"/>
		</g>
	</g>
	<g>
		<g>
			<path class="st162" d="M100,30.5c15.4,0,30.9,5.1,43.6,15.2c3.3,2.6,3.5,7.5,0.5,10.4l-88.2,87.8c-3,2.9-7.8,2.7-10.5-0.5
				c-10.2-12.6-15.2-28-15.2-43.4c0-17.8,6.8-35.6,20.4-49.1C64.3,37.3,82.1,30.5,100,30.5z"/>
		</g>
	</g>
	<g>
		<g>
			<path class="st156" d="M123.7,43.5l-80.5,80.2c-3.1,3-8.3,1.8-9.6-2.3c-2.2-6.9-3.4-14.1-3.4-21.4c0-17.8,6.8-35.6,20.4-49.1
				C64.3,37.3,82.1,30.5,100,30.5c7.2,0,14.5,1.1,21.4,3.3C125.6,35.2,126.8,40.4,123.7,43.5z"/>
		</g>
	</g>
	<g>
		<g>
			<path class="st155" d="M50.7,149.1L50.7,149.1c27.3,27.1,71.4,27.1,98.7,0l0,0c27.3-27.1,27.3-71.1,0-98.3h0L50.7,149.1z"/>
		</g>
	</g>
	<g>
		<g>
			<path class="st156" d="M169.8,100c0,17.8-6.8,35.6-20.4,49.1c-22.7,22.6-57.2,26.4-83.9,11.3c-3.6-2.1-4.3-7-1.4-9.9l86.6-86.2
				c2.9-2.9,7.9-2.3,9.9,1.3C166.7,76.2,169.8,88.1,169.8,100z"/>
		</g>
	</g>
	<g>
		<g>
			<g>
				<path class="st155" d="M80.1,158.1c-3,3-1.6,8.2,2.5,9.2c23.1,5.9,48.6-0.2,66.7-18.2l0,0c18.1-18,24.2-43.4,18.3-66.4
					c-1.1-4.1-6.2-5.6-9.3-2.5L80.1,158.1z"/>
			</g>
		</g>
	</g>
	<g>
		<g>
			<path class="st163" d="M64.8,64.9L64.8,64.9c19.5-19.4,51-19.4,70.5,0h0c19.5,19.4,19.5,50.8,0,70.1h0c-19.5,19.4-51,19.4-70.5,0
				l0,0C45.3,115.7,45.3,84.3,64.8,64.9z"/>
		</g>
	</g>
	<g>
		<g>
			<path class="st164" d="M142.2,96.2c4.5-4.5,5.7-11.2,3.1-17c-2.4-5.2-5.7-10-10-14.3h0c-19.5-19.4-51-19.4-70.5,0l0,0
				c-19.5,19.4-19.5,50.8,0,70.1l0,0c4.3,4.3,9.2,7.6,14.4,10c5.8,2.6,12.6,1.4,17.1-3L142.2,96.2z"/>
		</g>
	</g>
	<g>
		<g>
			<path class="st165" d="M64.8,64.9L64.8,64.9c-16.8,16.7-19.1,42.5-6.9,61.6c3.1,4.8,9.9,5.5,13.9,1.5l56.4-56.1
				c4.1-4,3.3-10.8-1.5-13.9C107.4,45.9,81.6,48.2,64.8,64.9z"/>
		</g>
	</g>
	<g>
		<g>
			<path class="st166" d="M100.2,139.4h-0.3c-21.7,0-39.4-17.6-39.4-39.4v0c0-21.7,17.6-39.4,39.4-39.4h0.3
				c21.7,0,39.4,17.6,39.4,39.4v0C139.5,121.7,121.9,139.4,100.2,139.4z"/>
		</g>
	</g>
	<g>
		<g>
			<g>
				<path class="st167" d="M121.4,107.5c-1.7-1.9-3.8-3.3-6.1-4.2c-2.4-0.9-5.3-1.7-8.9-2.4c-3.2-0.7-5.5-1.3-6.9-1.9
					c-1.4-0.6-2.2-1.6-2.2-2.8c0-1.3,0.6-2.3,1.8-3.1c1.2-0.8,3.1-1.2,5.8-1.2c3.5,0,7.1,0.8,10.8,2.5c1.2,0.6,2.7,0,3.2-1.3
					l1.8-4.4c0.8-1.9,0.5-4.1-0.8-5.7l-2.8-3.6l-5.5,2.5l0,0.2c-0.7-0.1-1.5-0.2-2.2-0.3c-0.6-0.1-1.1-0.6-1.1-1.3V77
					c0-1.6-0.6-3.2-1.6-4.5l-3.1-3.9l-5.2,5.3l2,1.3c-0.1,0.2-0.1,0.4-0.1,0.6v5c0,0.6-0.5,1.2-1.1,1.3c-4.7,0.7-10,2.4-12.6,4.9
					c-2.8,2.8-4.2,6-4.2,9.9c0,3.3,0.9,5.9,2.6,7.8c1.7,1.9,3.7,3.3,6.1,4.2c2.4,0.9,7,1.7,10.5,2.4c3.2,0.7,5.6,1.4,7,2
					c1.5,0.6,2.2,1.6,2.2,3c0,2.5-2.6,3.8-7.7,3.8c-2.7,0-5.4-0.4-8.2-1.3c-2.3-0.7-4.3-1.6-6.1-2.6c-0.7-0.4-1.5-0.1-1.8,0.6
					l-0.1,0.2l-7.2,1.1l2.5,5.1c0.7,1.5,1.9,2.7,3.4,3.4c1.5,0.7,3.2,1.4,5,2c1.8,0.5,3.6,0.9,5.5,1.2L99,134
					c0.8,1.2,2.1,1.9,3.5,1.9h3.6c1.2,0,2.2-1,2.2-2.2v-2.6c0-0.6,0.4-1.1,1-1.2c4.6-0.8,8.1-2.5,10.6-5c2.7-2.7,4-5.9,4-9.6
					C123.9,111.9,123.1,109.4,121.4,107.5z"/>
			</g>
		</g>
		<g>
			<g>
				<g>
					<path class="st162" d="M115.7,118.2c-2.5,2.5-6,4.2-10.6,5c-0.6,0.1-1,0.6-1,1.2v5.1c0,0.7-0.6,1.3-1.3,1.3h-5.5
						c-0.7,0-1.3-0.6-1.3-1.3v-4.7c0-0.7-0.5-1.2-1.2-1.3c-2.9-0.3-5.7-0.8-8.4-1.6c-2.5-0.8-4.7-1.7-6.5-2.8
						c-0.6-0.3-0.8-1-0.5-1.6l3.3-7.5c0.3-0.7,1.1-1,1.8-0.6c1.8,1,3.9,1.9,6.1,2.6c2.8,0.9,5.5,1.3,8.2,1.3c5.1,0,7.7-1.3,7.7-3.8
						c0-1.3-0.7-2.3-2.2-3c-1.5-0.6-3.8-1.3-7-2c-3.5-0.8-6.5-1.6-8.9-2.4c-2.4-0.9-4.4-2.3-6.1-4.2c-1.7-1.9-2.6-4.5-2.6-7.8
						c0-3.8,1.4-7.1,4.2-9.9c2.6-2.6,6.3-4.2,11-4.9c0.6-0.1,1.1-0.6,1.1-1.3v-5c0-0.7,0.6-1.3,1.3-1.3h5.5c0.7,0,1.3,0.6,1.3,1.3
						v4.8c0,0.7,0.5,1.2,1.1,1.3c2.2,0.2,4.2,0.7,6.2,1.2c1.9,0.5,3.7,1.2,5.3,2c0.6,0.3,0.9,1,0.6,1.6l-3.1,7.5
						c-0.3,0.7-1.1,1-1.7,0.7c-4.1-2-8-3-11.9-3c-2.7,0-4.6,0.4-5.8,1.2c-1.2,0.8-1.8,1.8-1.8,3.1c0,1.3,0.7,2.2,2.2,2.8
						c1.4,0.6,3.7,1.3,6.9,1.9c3.6,0.8,6.6,1.6,8.9,2.4c2.4,0.9,4.4,2.3,6.1,4.2c1.7,1.9,2.6,4.5,2.6,7.7
						C119.7,112.3,118.4,115.5,115.7,118.2z"/>
				</g>
			</g>
		</g>
	</g>
</g>
</svg>
