<?xml version="1.0" encoding="utf-8"?>
<!-- Generator: Adobe Illustrator 26.0.1, SVG Export Plug-In . SVG Version: 6.00 Build 0)  -->
<svg version="1.1" id="Layer_1" xmlns="http://www.w3.org/2000/svg" xmlns:xlink="http://www.w3.org/1999/xlink" x="0px" y="0px"
	 viewBox="0 0 200 200" style="enable-background:new 0 0 200 200;" xml:space="preserve">
<style type="text/css">
	.st0{clip-path:url(#SVGID_00000160174620230689905020000014534770482992545699_);}
	.st1{opacity:0.2;clip-path:url(#SVGID_00000148624021482787717980000004767152193304465324_);}
	.st2{fill:#303030;}
	.st3{clip-path:url(#SVGID_00000048488200504440038440000001782099239513387187_);}
	.st4{opacity:0.2;clip-path:url(#SVGID_00000062901740568729874410000007915817152292523143_);}
	.st5{clip-path:url(#SVGID_00000177485912806283653040000010014239773481069465_);}
	.st6{opacity:0.2;clip-path:url(#SVGID_00000044155734570238381310000008430663512337865882_);}
	.st7{fill:url(#SVGID_00000120533497467770157390000015414152450666311832_);}
	.st8{enable-background:new    ;}
	.st9{fill:#FA5262;}
	.st10{fill:none;stroke:#AF1E4B;stroke-width:8;stroke-miterlimit:10;}
	.st11{fill:#FFFFFF;}
	.st12{opacity:0.59;}
	.st13{fill:#AF1E4B;}
</style>
<g>
	<g>
		<g>
			<defs>
				<rect id="SVGID_1_" x="562.5" y="875.7" width="266.7" height="266.7"/>
			</defs>
			<clipPath id="SVGID_00000072246244286660721630000017118409640801548679_">
				<use xlink:href="#SVGID_1_"  style="overflow:visible;"/>
			</clipPath>
			
				<g transform="matrix(1.33333 0 0 -1.33333 0 200)" style="clip-path:url(#SVGID_00000072246244286660721630000017118409640801548679_);">
				<g>
					<g>
						<defs>
							
								<rect id="SVGID_00000119103780742529561120000018277957340692114567_" x="-571.7" y="-88.2" width="1422.3" height="1066.7"/>
						</defs>
						<clipPath id="SVGID_00000144335504627837609300000004059306302782302850_">
							<use xlink:href="#SVGID_00000119103780742529561120000018277957340692114567_"  style="overflow:visible;"/>
						</clipPath>
						<g style="opacity:0.2;clip-path:url(#SVGID_00000144335504627837609300000004059306302782302850_);">
							<path class="st2" d="M539.4,745.1h-800v-600h800V745.1z M534.4,150.1h-790v590h790V150.1z"/>
						</g>
					</g>
				</g>
			</g>
		</g>
	</g>
</g>
<g>
	<g>
		<g>
			<defs>
				<rect id="SVGID_00000090978816597014064850000004638924801490645900_" x="278.1" y="875.7" width="266.7" height="266.7"/>
			</defs>
			<clipPath id="SVGID_00000046309412454233767520000010632936330310896828_">
				<use xlink:href="#SVGID_00000090978816597014064850000004638924801490645900_"  style="overflow:visible;"/>
			</clipPath>
			
				<g transform="matrix(1.33333 0 0 -1.33333 0 200)" style="clip-path:url(#SVGID_00000046309412454233767520000010632936330310896828_);">
				<g>
					<g>
						<defs>
							
								<rect id="SVGID_00000034052993399599573740000003928962024953711795_" x="-571.7" y="-88.2" width="1422.3" height="1066.7"/>
						</defs>
						<clipPath id="SVGID_00000144296077587696031620000008557999598398407840_">
							<use xlink:href="#SVGID_00000034052993399599573740000003928962024953711795_"  style="overflow:visible;"/>
						</clipPath>
						<g style="opacity:0.2;clip-path:url(#SVGID_00000144296077587696031620000008557999598398407840_);">
							<path class="st2" d="M539.4,745.1h-800v-600h800V745.1z M534.4,150.1h-790v590h790V150.1z"/>
						</g>
					</g>
				</g>
			</g>
		</g>
	</g>
</g>
<g>
	<g>
		<defs>
			<rect id="SVGID_00000078757008582535947690000011737948808976974233_" x="-6.4" y="875.7" width="266.7" height="266.7"/>
		</defs>
		<clipPath id="SVGID_00000075852214286852690180000006507135194271707023_">
			<use xlink:href="#SVGID_00000078757008582535947690000011737948808976974233_"  style="overflow:visible;"/>
		</clipPath>
		
			<g transform="matrix(1.33333 0 0 -1.33333 0 200)" style="clip-path:url(#SVGID_00000075852214286852690180000006507135194271707023_);">
			<g>
				<g>
					<defs>
						<rect id="SVGID_00000049908584670840057660000009633772439855799192_" x="-571.7" y="-88.2" width="1422.3" height="1066.7"/>
					</defs>
					<clipPath id="SVGID_00000163037908193048039430000013373242633633518013_">
						<use xlink:href="#SVGID_00000049908584670840057660000009633772439855799192_"  style="overflow:visible;"/>
					</clipPath>
					<g style="opacity:0.2;clip-path:url(#SVGID_00000163037908193048039430000013373242633633518013_);">
						<path class="st2" d="M539.4,745.1h-800v-600h800V745.1z M534.4,150.1h-790v590h790V150.1z"/>
					</g>
				</g>
			</g>
		</g>
	</g>
</g>
<linearGradient id="SVGID_00000099644204530255743620000000263199657500986257_" gradientUnits="userSpaceOnUse" x1="-740.2544" y1="336.6767" x2="-739.2543" y2="336.6767" gradientTransform="matrix(0 -799.998 799.998 0 -269240.6562 -591915.3125)">
	<stop  offset="0" style="stop-color:#D887C7"/>
	<stop  offset="0.229" style="stop-color:#D887C7"/>
	<stop  offset="1" style="stop-color:#00E4E4"/>
</linearGradient>
<path style="fill:url(#SVGID_00000099644204530255743620000000263199657500986257_);" d="M0,200h200V0H0V200z"/>
<g>
	<g class="st8">
		<path class="st9" d="M101.1,36.4c5.1,0,10.2,0.5,15.3,1.5c5.1,1,9.6,2.6,13.7,4.9c4,2.3,7.3,5.4,9.8,9.3c2.5,3.9,3.7,8.6,3.7,14.3
			c0,2.7-0.4,5.2-1.3,7.6s-2,4.8-3.5,7c-1.4,2.3-3.1,4.5-4.9,6.6c-1.9,2.1-3.7,4.2-5.5,6.2c-2,2.1-3.9,4.1-5.9,6
			c-2,1.9-3.7,3.8-5.2,5.7c-1.5,1.9-2.7,3.8-3.6,5.6c-0.9,1.8-1.4,3.7-1.4,5.5v4.3c0,1.3-0.2,2-0.5,2.3c-0.3,0.2-1.1,0.3-2.3,0.3
			H85.3c-1.4,0-2.2-0.3-2.4-0.8c-0.2-0.5-0.3-1.3-0.3-2.3v-6.4c0-2.9,0.4-5.6,1.3-8.1c0.9-2.5,2-4.9,3.4-7c1.4-2.1,2.9-4.2,4.7-6.2
			c1.7-2,3.4-3.8,5-5.5c2.5-2.7,4.7-5.3,6.6-7.9c1.8-2.6,2.8-5.3,2.8-8.2c0-2.4-1-4.1-3.1-5.1c-2.1-1-4.1-1.5-6.1-1.5
			c-4.4,0-8.6,0.6-12.7,1.8c-4.1,1.2-8.8,3.3-14,6.2c-1.3,0.7-2.2,1-2.8,1c-0.6,0-1.2-0.6-1.9-1.9l-9.4-17c-0.6-0.9-0.9-1.7-0.9-2.3
			c0-0.6,0.6-1.4,1.9-2.2c6.9-5,14.2-8.5,21.8-10.6C86.8,37.4,94.1,36.4,101.1,36.4z M114.1,146.3c0,4.7-1.7,8.6-5.1,11.6
			c-3.4,3-7.6,4.5-12.6,4.5c-4.9,0-9-1.5-12.5-4.4s-5.2-6.8-5.2-11.7c0-2.3,0.5-4.5,1.4-6.6c0.9-2.1,2.2-3.9,3.8-5.4
			c1.6-1.5,3.5-2.7,5.6-3.6c2.1-0.9,4.4-1.3,6.8-1.3c5,0,9.2,1.6,12.6,4.8C112.4,137.4,114.1,141.5,114.1,146.3z"/>
	</g>
	<g class="st8">
		<path class="st10" d="M101.1,36.4c5.1,0,10.2,0.5,15.3,1.5c5.1,1,9.6,2.6,13.7,4.9c4,2.3,7.3,5.4,9.8,9.3
			c2.5,3.9,3.7,8.6,3.7,14.3c0,2.7-0.4,5.2-1.3,7.6s-2,4.8-3.5,7c-1.4,2.3-3.1,4.5-4.9,6.6c-1.9,2.1-3.7,4.2-5.5,6.2
			c-2,2.1-3.9,4.1-5.9,6c-2,1.9-3.7,3.8-5.2,5.7c-1.5,1.9-2.7,3.8-3.6,5.6c-0.9,1.8-1.4,3.7-1.4,5.5v4.3c0,1.3-0.2,2-0.5,2.3
			c-0.3,0.2-1.1,0.3-2.3,0.3H85.3c-1.4,0-2.2-0.3-2.4-0.8c-0.2-0.5-0.3-1.3-0.3-2.3v-6.4c0-2.9,0.4-5.6,1.3-8.1c0.9-2.5,2-4.9,3.4-7
			c1.4-2.1,2.9-4.2,4.7-6.2c1.7-2,3.4-3.8,5-5.5c2.5-2.7,4.7-5.3,6.6-7.9c1.8-2.6,2.8-5.3,2.8-8.2c0-2.4-1-4.1-3.1-5.1
			c-2.1-1-4.1-1.5-6.1-1.5c-4.4,0-8.6,0.6-12.7,1.8c-4.1,1.2-8.8,3.3-14,6.2c-1.3,0.7-2.2,1-2.8,1c-0.6,0-1.2-0.6-1.9-1.9l-9.4-17
			c-0.6-0.9-0.9-1.7-0.9-2.3c0-0.6,0.6-1.4,1.9-2.2c6.9-5,14.2-8.5,21.8-10.6C86.8,37.4,94.1,36.4,101.1,36.4z M114.1,146.3
			c0,4.7-1.7,8.6-5.1,11.6c-3.4,3-7.6,4.5-12.6,4.5c-4.9,0-9-1.5-12.5-4.4s-5.2-6.8-5.2-11.7c0-2.3,0.5-4.5,1.4-6.6
			c0.9-2.1,2.2-3.9,3.8-5.4c1.6-1.5,3.5-2.7,5.6-3.6c2.1-0.9,4.4-1.3,6.8-1.3c5,0,9.2,1.6,12.6,4.8
			C112.4,137.4,114.1,141.5,114.1,146.3z"/>
	</g>
</g>
<g>
	<path class="st11" d="M98.4,138c3.7,0,7.1,0.8,10.1,2.3c-0.6-1-1.3-1.9-2.2-2.7c-2.7-2.5-6.1-3.8-10.1-3.8c-1.9,0-3.8,0.3-5.5,1
		s-3.2,1.6-4.5,2.8s-2.3,2.6-3.1,4.3c-0.4,0.8-0.6,1.7-0.8,2.5C86.7,140.5,92.5,138,98.4,138z"/>
</g>
<g>
	<g>
		<path class="st11" d="M64.2,60.5c8.1-6.7,28.8-13.7,39.4-13.4c12.1-0.1,20,0.6,34.2,10c-0.5-1.4-1.2-2.6-1.9-3.8
			c-2.2-3.3-5.2-5.9-8.8-7.9c-3.6-2-7.7-3.3-12.2-4.1s-9.1-1.2-13.6-1.2c-6.2,0-12.6,1-19.4,2.8s-13.4,4.3-19.6,8.6
			c-1.1,0.7-2.2,1.6-2.2,1.6L64.2,60.5z"/>
	</g>
</g>
<g class="st12">
	<path class="st13" d="M87.3,161c4.6,1.3,11.1,2,15.9,1.1c12.3-2.2,12.1-14,9.4-23.8c-1,4.1-3.1,7.5-6.3,10.4
		c-4.6,4.1-10.4,6.1-17.1,6.1c-3.4,0-6.6-0.5-9.5-1.6C81.5,156.7,83.6,159.9,87.3,161z"/>
	<path class="st13" d="M144.3,51.3c-2.1-0.4-4.1-0.8-6.2-1.1c-0.7-0.1-1.4-0.2-2.1-0.3c0.9,2.6,1.8,0.2,1.9,2.9
		c0.1,2.7,2.1,9.9,1.3,12.4c-0.5,2.8-4.5,6-6.5,8.6c-2.7,3.4-6,6.9-9.7,10.4c-2.4,2.3-4.9,4.7-7.4,7.3c-2.6,2.6-4.9,5.3-6.9,8.1
		c-2,2.8-3.7,5.9-5,9.2c-1.3,3.3-1.9,6.9-1.9,10.7v3.5c3.6-0.1,7.1-0.4,10.7-0.7c0.7-2.5,2.3-4.9,4.4-6.8c0.1-2.6,0.9-5.1,2.3-7.4
		c0.9-1.2,1.9-2.4,3-3.5c1.1-1.2,1.2-1.2,0.4,0c1.3-1.4,2-3.3,3.2-4.8c1.7-2.2,3.8-4.3,6-6.2c3.5-3.1,7.2-5.9,10.3-9.4
		c0.3-0.3,0.6-0.6,0.9-0.9c0-0.1,0-0.1,0-0.2c0.2-1.6,0.6-3.1,1.2-4.5c0.2-3.7,0.8-7.3,1.2-11C145.8,62.1,145,56.7,144.3,51.3z"/>
</g>
</svg>
