<?xml version="1.0" encoding="utf-8"?>
<!-- Generator: Adobe Illustrator 25.4.1, SVG Export Plug-In . SVG Version: 6.00 Build 0)  -->
<svg version="1.1" id="Layer_1" xmlns="http://www.w3.org/2000/svg" xmlns:xlink="http://www.w3.org/1999/xlink" x="0px" y="0px"
	 viewBox="0 0 200 200" style="enable-background:new 0 0 200 200;" xml:space="preserve">
<style type="text/css">
	.st0{fill:url(#SVGID_1_);}
	.st1{fill:url(#SVGID_00000182512614888068990150000003916100660452846469_);}
	.st2{clip-path:url(#SVGID_00000077318007034990324950000000380213151200532112_);}
	.st3{fill:#8CF7F7;}
	.st4{fill:none;stroke:#303030;stroke-width:5.3333;stroke-linejoin:round;stroke-miterlimit:13.3333;}
	.st5{fill:url(#SVGID_00000058552043677675897220000009333061028596344220_);}
	.st6{clip-path:url(#SVGID_00000003101361381050551220000011316632427196489379_);}
	.st7{fill:#E3A6D6;}
	.st8{fill:url(#SVGID_00000056410627599735457790000008623016139975781554_);}
	.st9{clip-path:url(#SVGID_00000154415196875111068410000006551903574301026715_);}
	.st10{fill:url(#SVGID_00000077316041894844093540000002847868563674151335_);}
	.st11{clip-path:url(#SVGID_00000075856583897902309790000016599695577612111251_);}
	.st12{fill:url(#SVGID_00000083046854808568358130000007515756460934312639_);}
	.st13{clip-path:url(#SVGID_00000075140968631248208650000002059863123583457452_);}
	.st14{fill:none;stroke:#303030;stroke-width:5.3333;stroke-linecap:round;stroke-linejoin:round;stroke-miterlimit:13.3333;}
	.st15{fill:url(#SVGID_00000175305034218288506960000006852608394947298458_);}
	.st16{clip-path:url(#SVGID_00000041257929823866529360000011820172188046360980_);}
	.st17{fill:#00EFEF;}
	.st18{fill:url(#SVGID_00000069372530365286573280000003502592370670144657_);}
	.st19{clip-path:url(#SVGID_00000021798599632717488270000005610689602886508722_);}
	.st20{fill:#00E4E4;}
	.st21{fill:none;stroke:#303030;stroke-width:5.3333;stroke-miterlimit:13.3333;}
	.st22{opacity:0.2;clip-path:url(#SVGID_00000168088420546785735040000016946666932275235490_);}
	.st23{fill:#303030;}
	.st24{fill:url(#SVGID_00000067957530942533652020000017330923466235552930_);}
	.st25{fill:url(#SVGID_00000038393029092506770820000009035181820954183046_);}
	.st26{clip-path:url(#SVGID_00000027604003657385206640000014668670537623777926_);}
	.st27{fill:#CC67B9;}
	.st28{fill:url(#SVGID_00000119816387709900843160000008589602480281549988_);}
	.st29{clip-path:url(#SVGID_00000012433274770825751240000009847432996317793430_);}
	.st30{fill:url(#SVGID_00000121257646527631823020000016587534690240054972_);}
	.st31{clip-path:url(#SVGID_00000181787000660479205630000007563986861976149634_);}
	.st32{fill:#D887C7;}
	.st33{opacity:0.2;clip-path:url(#SVGID_00000167396919535226508850000010717510391845262733_);}
	.st34{fill:url(#SVGID_00000044144582140163571220000006256390947128571026_);}
	.st35{clip-path:url(#SVGID_00000073682846944550752640000009357661056686733216_);}
	.st36{fill:#00E4E4;stroke:#303030;stroke-width:5.3333;stroke-miterlimit:13.3333;}
	.st37{fill:url(#SVGID_00000120559218037653217330000013251020307117327028_);}
	.st38{clip-path:url(#SVGID_00000111184083244027480410000014986310560863025588_);}
	.st39{fill:#75F5F5;}
	.st40{fill:url(#SVGID_00000051385231796705690210000005034448889653427850_);}
	.st41{clip-path:url(#SVGID_00000144321763647481391720000006058063572986761103_);}
	.st42{fill:url(#SVGID_00000180327808866994450000000015253262887255816064_);}
	.st43{clip-path:url(#SVGID_00000031900397991823395380000003621700625693640625_);}
	.st44{fill:url(#SVGID_00000100356034495693175470000015715710924931839640_);}
	.st45{clip-path:url(#SVGID_00000124867496085151046420000002934821895129392513_);}
	.st46{opacity:0.2;clip-path:url(#SVGID_00000088131122984003967210000012734248577181974939_);}
	.st47{fill:url(#SVGID_00000154419066059589197450000005647593021625809313_);}
	.st48{fill:url(#SVGID_00000125582181723748876030000002794232922249056409_);}
	.st49{clip-path:url(#SVGID_00000103260538109177964400000014094468099362071720_);}
	.st50{fill:url(#SVGID_00000043452523810708785580000004520312390250552253_);}
	.st51{clip-path:url(#SVGID_00000124151140921769748130000006831717812397846671_);}
	.st52{fill:url(#SVGID_00000033368388180565994630000013123672640879985029_);}
	.st53{clip-path:url(#SVGID_00000057830400042522182760000014897580815348139404_);}
	.st54{fill:#00E4E4;stroke:#303030;stroke-width:5.3333;stroke-linejoin:round;stroke-miterlimit:13.3333;}
	.st55{fill:url(#SVGID_00000124863918996353890400000015196710828794258071_);}
	.st56{clip-path:url(#SVGID_00000148634308308191834140000008579871431854263457_);}
	.st57{fill:url(#SVGID_00000168804337517467111900000007731865273630902920_);}
	.st58{clip-path:url(#SVGID_00000058582064228860755320000006838152556283930248_);}
	.st59{fill:url(#SVGID_00000096738560369564881550000016305924579268713857_);}
	.st60{clip-path:url(#SVGID_00000044892105526425977100000009293986980634298019_);}
	.st61{opacity:0.2;clip-path:url(#SVGID_00000117678675937792351790000005234084329755709331_);}
	.st62{fill:url(#SVGID_00000001623962433269992210000014646016339864933260_);}
	.st63{fill:url(#SVGID_00000116207715812989064030000016382532017468843698_);}
	.st64{fill:url(#SVGID_00000071550804476804478460000011857872964683961506_);}
	.st65{clip-path:url(#SVGID_00000173129003474244495500000014152033278519164606_);}
	.st66{fill:url(#SVGID_00000158005401342013290490000011259222992509507495_);}
	.st67{fill:url(#SVGID_00000139282996455980457470000009699668953751548814_);}
	.st68{clip-path:url(#SVGID_00000120530001916949811100000012718296155716540803_);}
	.st69{fill:url(#SVGID_00000112631967775576511710000014207982581433492121_);}
	.st70{clip-path:url(#SVGID_00000152961974344422292610000016140653109072080280_);}
	.st71{fill:url(#SVGID_00000129923042184483561320000009977810964732081335_);}
	.st72{clip-path:url(#SVGID_00000124847837961652405830000014661082955846670720_);}
	.st73{opacity:0.2;clip-path:url(#SVGID_00000154404302231898080370000004894359571116120973_);}
	.st74{fill:url(#SVGID_00000009589828863761431840000014957933812816608148_);}
	.st75{fill:url(#SVGID_00000167382974655182962510000001047449817734437527_);}
	.st76{clip-path:url(#SVGID_00000096018767017251785170000007299049934304868231_);}
	.st77{fill:url(#SVGID_00000066516823236035899860000010506620318092204432_);}
	.st78{clip-path:url(#SVGID_00000118380785071043315110000010017983081190405507_);}
	.st79{fill:url(#SVGID_00000058574074555721321930000005270572728024323252_);}
	.st80{clip-path:url(#SVGID_00000078040305919598677680000011651454767960816045_);}
	.st81{fill:url(#SVGID_00000003064760380214089740000004751547238832729239_);}
	.st82{clip-path:url(#SVGID_00000028323256230968724880000015987373033269301685_);}
	.st83{fill:url(#SVGID_00000041292788185004068930000011491788027693782194_);}
	.st84{clip-path:url(#SVGID_00000041991860614254859600000008924509542008537012_);}
	.st85{fill:url(#SVGID_00000116918648289932893370000001262165831496563366_);}
	.st86{clip-path:url(#SVGID_00000089558261368369073760000009311284175053681288_);}
	.st87{fill:url(#SVGID_00000032607816317573973200000001395850793926021253_);}
	.st88{clip-path:url(#SVGID_00000167397004422020217210000011973894718919753370_);}
	.st89{opacity:0.2;clip-path:url(#SVGID_00000096061471985768990260000000313045441507815356_);}
	.st90{fill:url(#SVGID_00000176024599582264495250000017557886158573632427_);}
	.st91{fill:url(#SVGID_00000119085184599689476330000005897200571447033732_);}
	.st92{fill:url(#SVGID_00000134209036753812190550000013520229371224364216_);}
	.st93{fill:url(#SVGID_00000119808146766181460450000007981248870977477305_);}
	.st94{fill:url(#SVGID_00000109722925272941313370000009906174583545419674_);}
	.st95{clip-path:url(#SVGID_00000006669789017561309440000000056165834132663955_);}
	.st96{fill:url(#SVGID_00000023276149995984228850000012237252880187710644_);}
	.st97{clip-path:url(#SVGID_00000044886673506754774890000010767743606242590633_);}
	.st98{fill:url(#SVGID_00000027582149411367039990000003890454798694436270_);}
	.st99{clip-path:url(#SVGID_00000081619965246385886590000005829805163868539014_);}
	.st100{fill:url(#SVGID_00000114061253416222033910000016488134163656174776_);}
	.st101{clip-path:url(#SVGID_00000163765080860274686470000005335290303758011028_);}
	.st102{fill:none;stroke:#E3A6D6;stroke-width:5.3333;stroke-linecap:round;stroke-linejoin:round;stroke-miterlimit:13.3333;}
	.st103{fill:url(#SVGID_00000099645721685286848670000017275820873529865095_);}
	.st104{clip-path:url(#SVGID_00000005249064597835422120000008316905078088101810_);}
	.st105{fill:url(#SVGID_00000034810535015627565660000017751819305785745808_);}
	.st106{clip-path:url(#SVGID_00000031916894900811949270000004046084135501706924_);}
	.st107{fill:#FFFFFF;}
	.st108{opacity:0.2;clip-path:url(#SVGID_00000081605286186629355810000009502833928886217097_);}
	.st109{fill:url(#SVGID_00000093171734856016156780000012043243728082385557_);}
	.st110{fill:url(#SVGID_00000116210547359786003050000011926335553638013614_);}
	.st111{fill:url(#SVGID_00000127733748273791396990000005734431631650540975_);}
	.st112{fill:url(#SVGID_00000132083522419864680370000011424121162498065311_);}
	.st113{clip-path:url(#SVGID_00000130622709796864335430000001460721624456515493_);}
	.st114{fill:#CC67B9;stroke:#303030;stroke-width:5.3333;stroke-linejoin:round;stroke-miterlimit:13.3333;}
	.st115{fill:url(#SVGID_00000003101022437334762750000012961111916299556758_);}
	.st116{clip-path:url(#SVGID_00000114762040552725632500000012861911577671257495_);}
	.st117{fill:url(#SVGID_00000026861465677594826480000011289861720873336735_);}
	.st118{clip-path:url(#SVGID_00000004508878170942756560000017457385877801032370_);}
	.st119{fill:url(#SVGID_00000178889105357175205200000011395023099154961052_);}
	.st120{clip-path:url(#SVGID_00000093891393478666793580000012884575445384718221_);}
	.st121{fill:url(#SVGID_00000109030462050828583350000002289481475391667877_);}
	.st122{clip-path:url(#SVGID_00000001665888123925443520000015618014614054864296_);}
	.st123{fill:url(#SVGID_00000153668432252736613280000015420905756892376963_);}
	.st124{clip-path:url(#SVGID_00000115487723093509961080000006189873820776275379_);}
	.st125{fill:url(#SVGID_00000161627571226747487260000009441881898880218496_);}
	.st126{clip-path:url(#SVGID_00000149363588353150664900000005571218059438489247_);}
	.st127{fill:url(#SVGID_00000111877080497206334820000000372818700293590701_);}
	.st128{clip-path:url(#SVGID_00000088103656874973880220000005860032596632096954_);}
	.st129{fill:url(#SVGID_00000011719531882059051560000003904734445237162425_);}
	.st130{clip-path:url(#SVGID_00000157992792326230819100000006606441432889377212_);}
	.st131{fill:url(#SVGID_00000093886486325177617140000004244729092346590607_);}
	.st132{clip-path:url(#SVGID_00000138550099273392806820000006998670675175681679_);}
	.st133{fill:url(#SVGID_00000021080461982076935170000003468084681416530097_);}
	.st134{clip-path:url(#SVGID_00000147195302635837476770000000444520161159889808_);}
	.st135{fill:url(#SVGID_00000003094631089606968070000002011863935324283325_);}
	.st136{clip-path:url(#SVGID_00000091017140254388767050000011018988123160088463_);}
	.st137{opacity:0.2;clip-path:url(#SVGID_00000025427727565866294920000012930070203186454969_);}
	.st138{fill:url(#SVGID_00000034810289305788296360000013802680988412475532_);}
	.st139{fill:#A796A8;}
	.st140{fill:#D3C2D2;}
	.st141{fill:#EFE8EF;}
	.st142{fill:#5A4D5B;}
	.st143{fill:#716172;}
	.st144{fill:#B0EEFF;}
	.st145{fill:#4A8BF0;}
	.st146{fill:#67C2FF;}
	.st147{fill:#4E886D;}
	.st148{fill:#B0CF43;}
	.st149{fill:#70A950;}
	.st150{fill:#EBE858;}
	.st151{fill:#E53557;}
	.st152{fill:#AF1E4B;}
	.st153{fill:#422F38;}
	.st154{fill:#F99027;}
	.st155{fill:#FFC840;}
	.st156{fill:#DF3359;}
	.st157{fill:#FFC5C5;}
	.st158{fill:#FA5262;}
	.st159{fill:#FF9BB2;}
	.st160{fill:#FF826F;}
	.st161{fill:#FFE783;}
	.st162{fill:#FFD45A;}
	.st163{fill:#F28033;}
	.st164{fill:#D56132;}
	.st165{fill:#FC9A2C;}
	.st166{fill:#E0692B;}
	.st167{fill:#FFDE6F;}
</style>
<g>
	<g>
		<defs>
			<rect id="SVGID_00000170989371683682988770000015598355196305338528_" x="0" y="-271.4" width="200" height="200"/>
		</defs>
		<clipPath id="SVGID_00000159431094904447806300000003585652159038208928_">
			<use xlink:href="#SVGID_00000170989371683682988770000015598355196305338528_"  style="overflow:visible;"/>
		</clipPath>
		
			<g transform="matrix(1.33333 0 0 -1.33333 0 200)" style="clip-path:url(#SVGID_00000159431094904447806300000003585652159038208928_);">
			<g>
				<defs>
					<rect id="SVGID_00000081638236848140600730000009032178164724848795_" x="-390.3" y="38.5" width="1066.7" height="800"/>
				</defs>
				<clipPath id="SVGID_00000044867297012976325060000014734501248949999038_">
					<use xlink:href="#SVGID_00000081638236848140600730000009032178164724848795_"  style="overflow:visible;"/>
				</clipPath>
				<g style="opacity:0.2;clip-path:url(#SVGID_00000044867297012976325060000014734501248949999038_);">
					<path class="st23" d="M543,738.5h-800v-600h800V738.5z M538,143.5h-790v590h790V143.5z"/>
				</g>
			</g>
		</g>
	</g>
</g>
<g>
	<g>
		<defs>
			<rect id="SVGID_00000083078373875298175460000015842316988295345311_" x="-213.3" y="-271.4" width="200" height="200"/>
		</defs>
		<clipPath id="SVGID_00000072240775749013011170000000063798225507377087_">
			<use xlink:href="#SVGID_00000083078373875298175460000015842316988295345311_"  style="overflow:visible;"/>
		</clipPath>
		
			<g transform="matrix(1.33333 0 0 -1.33333 0 200)" style="clip-path:url(#SVGID_00000072240775749013011170000000063798225507377087_);">
			<g>
				<defs>
					<rect id="SVGID_00000174576350498089636860000005339496990090859704_" x="-870.3" y="38.5" width="1066.7" height="800"/>
				</defs>
				<clipPath id="SVGID_00000028300289410155052700000010672432438656111030_">
					<use xlink:href="#SVGID_00000174576350498089636860000005339496990090859704_"  style="overflow:visible;"/>
				</clipPath>
				<g style="opacity:0.2;clip-path:url(#SVGID_00000028300289410155052700000010672432438656111030_);">
					<path class="st23" d="M63,738.5h-800v-600H63V738.5z M58,143.5h-790v590H58V143.5z"/>
				</g>
			</g>
		</g>
	</g>
</g>
<g>
	<g>
		<defs>
			<rect id="SVGID_00000139273239831631920740000014742602880303166374_" x="-213.3" y="-484.7" width="200" height="200"/>
		</defs>
		<clipPath id="SVGID_00000157305470139728506030000016242880379686956717_">
			<use xlink:href="#SVGID_00000139273239831631920740000014742602880303166374_"  style="overflow:visible;"/>
		</clipPath>
		
			<g transform="matrix(1.33333 0 0 -1.33333 0 200)" style="clip-path:url(#SVGID_00000157305470139728506030000016242880379686956717_);">
			<g>
				<defs>
					<rect id="SVGID_00000047032118634331519240000001675057495986150529_" x="-550.3" y="38.5" width="1066.7" height="800"/>
				</defs>
				<clipPath id="SVGID_00000170244877764329789330000015673362422568367760_">
					<use xlink:href="#SVGID_00000047032118634331519240000001675057495986150529_"  style="overflow:visible;"/>
				</clipPath>
				<g style="opacity:0.2;clip-path:url(#SVGID_00000170244877764329789330000015673362422568367760_);">
					<path class="st23" d="M383,738.5h-800v-600h800V738.5z M378,143.5h-790v590h790V143.5z"/>
				</g>
			</g>
		</g>
	</g>
</g>
<g>
	<g>
		<defs>
			<rect id="SVGID_00000034799401707957125630000004042988500854559930_" x="640" y="-484.7" width="200" height="200"/>
		</defs>
		<clipPath id="SVGID_00000114796293373910113470000014180814970257331646_">
			<use xlink:href="#SVGID_00000034799401707957125630000004042988500854559930_"  style="overflow:visible;"/>
		</clipPath>
		
			<g transform="matrix(1.33333 0 0 -1.33333 0 200)" style="clip-path:url(#SVGID_00000114796293373910113470000014180814970257331646_);">
			<g>
				<defs>
					<rect id="SVGID_00000182497815093836617300000013367558114846355387_" x="-230.3" y="-121.5" width="1066.7" height="800"/>
				</defs>
				<clipPath id="SVGID_00000080918455429607722580000015741338431818564029_">
					<use xlink:href="#SVGID_00000182497815093836617300000013367558114846355387_"  style="overflow:visible;"/>
				</clipPath>
				<g style="opacity:0.2;clip-path:url(#SVGID_00000080918455429607722580000015741338431818564029_);">
					<path class="st23" d="M703,578.5H-97v-600h800V578.5z M698-16.5H-92v590h790V-16.5z"/>
				</g>
			</g>
		</g>
	</g>
</g>
<g>
	<g>
		<defs>
			<rect id="SVGID_00000021833921059161629550000003289920829103492788_" x="0" y="-484.7" width="200" height="200"/>
		</defs>
		<clipPath id="SVGID_00000000210632652655303740000004458171728297713049_">
			<use xlink:href="#SVGID_00000021833921059161629550000003289920829103492788_"  style="overflow:visible;"/>
		</clipPath>
		
			<g transform="matrix(1.33333 0 0 -1.33333 0 200)" style="clip-path:url(#SVGID_00000000210632652655303740000004458171728297713049_);">
			<g>
				<defs>
					<rect id="SVGID_00000075133970551309118340000014961583837585197741_" x="-550.3" y="38.5" width="1066.7" height="800"/>
				</defs>
				<clipPath id="SVGID_00000165934825017591423860000013393846000965592998_">
					<use xlink:href="#SVGID_00000075133970551309118340000014961583837585197741_"  style="overflow:visible;"/>
				</clipPath>
				<g style="opacity:0.2;clip-path:url(#SVGID_00000165934825017591423860000013393846000965592998_);">
					<path class="st23" d="M383,738.5h-800v-600h800V738.5z M378,143.5h-790v590h790V143.5z"/>
				</g>
			</g>
		</g>
	</g>
</g>
<g>
	<g>
		<defs>
			<rect id="SVGID_00000008834848901034580640000012575421059861227397_" x="426.7" y="-484.7" width="200" height="200"/>
		</defs>
		<clipPath id="SVGID_00000047760915092751689560000012330744614443848351_">
			<use xlink:href="#SVGID_00000008834848901034580640000012575421059861227397_"  style="overflow:visible;"/>
		</clipPath>
		
			<g transform="matrix(1.33333 0 0 -1.33333 0 200)" style="clip-path:url(#SVGID_00000047760915092751689560000012330744614443848351_);">
			<g>
				<defs>
					<rect id="SVGID_00000065788041412047126820000003376473100845175704_" x="-230.3" y="-121.5" width="1066.7" height="800"/>
				</defs>
				<clipPath id="SVGID_00000036939659101670229980000015858398455660916632_">
					<use xlink:href="#SVGID_00000065788041412047126820000003376473100845175704_"  style="overflow:visible;"/>
				</clipPath>
				<g style="opacity:0.2;clip-path:url(#SVGID_00000036939659101670229980000015858398455660916632_);">
					<path class="st23" d="M703,578.5H-97v-600h800V578.5z M698-16.5H-92v590h790V-16.5z"/>
				</g>
			</g>
		</g>
	</g>
</g>
<g>
	<defs>
		<rect id="SVGID_00000016787841418382530310000009307713459809755806_" x="213.3" y="-484.7" width="200" height="200"/>
	</defs>
	<clipPath id="SVGID_00000145740953580819333750000007673269680603026849_">
		<use xlink:href="#SVGID_00000016787841418382530310000009307713459809755806_"  style="overflow:visible;"/>
	</clipPath>
	
		<g transform="matrix(1.33333 0 0 -1.33333 0 200)" style="clip-path:url(#SVGID_00000145740953580819333750000007673269680603026849_);">
		<g>
			<defs>
				<rect id="SVGID_00000124850796226300506600000001989068797170845108_" x="-230.3" y="-121.5" width="1066.7" height="800"/>
			</defs>
			<clipPath id="SVGID_00000151529778696200632850000017179263362523461015_">
				<use xlink:href="#SVGID_00000124850796226300506600000001989068797170845108_"  style="overflow:visible;"/>
			</clipPath>
			<g style="opacity:0.2;clip-path:url(#SVGID_00000151529778696200632850000017179263362523461015_);">
				<path class="st23" d="M703,578.5H-97v-600h800V578.5z M698-16.5H-92v590h790V-16.5z"/>
			</g>
		</g>
	</g>
</g>
<linearGradient id="SVGID_1_" gradientUnits="userSpaceOnUse" x1="276.7064" y1="86.7523" x2="277.7064" y2="86.7523" gradientTransform="matrix(0 -799.998 -799.998 0 69501.6875 221651.2031)">
	<stop  offset="0" style="stop-color:#D887C7"/>
	<stop  offset="0.2285" style="stop-color:#D887C7"/>
	<stop  offset="1" style="stop-color:#00E4E4"/>
</linearGradient>
<path class="st0" d="M0,200h200V0H0V200z"/>
<g>
	<g>
		<g>
			<path class="st156" d="M142.7,36.1c-0.8,0-1.6,0.5-2.1,1.1c-0.8,1.1-2,2-3.6,2.8c-2.2,1-4.4,1.5-6.6,1.5c-2.4,0-5.2-0.4-8.3-1.1
				c-3.1-0.7-6.3-1.5-9.6-2.4c-3.3-0.9-6.8-1.7-10.4-2.5c-3.6-0.8-7.4-1.2-11.3-1.2c-6.7,0-11.7,1-15.2,3.1
				c-2.3,1.3-4.1,2.8-5.6,4.3c-0.8,0.8-2.1,0.3-2.1-0.8v-2c0-1.5-1.2-2.8-2.8-2.8H39c-1.5,0-2.8,1.2-2.8,2.8v46
				c0,1.5,1.2,2.8,2.8,2.8h26c1.5,0,2.7-1.2,2.8-2.7c0.1-2.7,0.4-4.9,1-6.7c0.7-2.3,1.6-4,2.8-5.2c1.2-1.2,2.5-2,3.9-2.2
				c1.4-0.3,2.8-0.4,4.2-0.4c0.8,0,2.3,0.2,4.3,0.7c2.1,0.5,4.4,1,7.1,1.7c2.6,0.7,5.3,1.2,8.1,1.7c2.7,0.5,5.2,0.7,7.4,0.7
				c3.3,0,6.5-0.7,9.6-2l0.1,0c1.4-0.6,2.6,1.2,1.5,2.3c-2.8,2.5-5.5,5-8.4,7.2C103.9,86.8,98.7,91,93.8,95c-5,4-9.6,8.2-13.8,12.5
				c-4.2,4.3-7.9,9.2-11,14.7c-3.1,5.5-5.5,11.7-7.2,18.7c-1.6,6.3-2.4,13.6-2.6,21.9c0,1.6,1.2,2.8,2.8,2.8h51
				c1.5,0,2.8-1.2,2.8-2.7c0.2-10.3,1.4-19.5,3.5-27.5c2.4-8.7,5.3-16.5,8.9-23.5c3.5-7,7.4-13.3,11.6-19.2
				c4.2-5.8,8-11.6,11.6-17.4c3.5-5.8,6.5-11.8,8.9-18c2.1-5.5,3.3-11.6,3.5-18.5c0.1-1.6-1.2-2.9-2.8-2.9H142.7z"/>
		</g>
	</g>
	<g>
		<g>
			<g>
				<path class="st152" d="M90.7,42.9c3.3,0,6.5,0.3,9.4,1c3.5,0.8,6.9,1.6,10,2.4c3.4,0.9,6.7,1.7,9.8,2.5
					c3.7,0.9,7.2,1.3,10.3,1.3c3.5,0,7-0.8,10.3-2.4c1.7-0.8,3.1-1.7,4.4-2.8c0.2-0.2,0.5-0.3,0.8-0.3h7.3c0.7,0,1.3,0.7,1.2,1.4
					c-0.5,3-1.2,5.7-2.2,8.3c-2.2,5.7-4.9,11.3-8.2,16.6c-3.4,5.5-7.2,11.2-11.2,16.9c-4.4,6.2-8.5,13-12.2,20.3
					c-3.8,7.4-7,15.9-9.5,25.1c-1.9,6.8-3.1,14.4-3.6,22.7c0,0.7-0.6,1.2-1.2,1.2H69.5c-0.7,0-1.3-0.6-1.2-1.3c0.4-4.7,1-9,2-12.7
					c1.5-6.2,3.7-11.8,6.3-16.6c2.7-4.8,5.9-9.1,9.6-12.8c4-4.1,8.4-8,13.1-11.8c4.9-4,10.1-8.1,15.5-12.2c2.7-2.1,5.4-4.4,8.9-7.6
					c3.1-2.8,4.1-7.1,2.5-11c-1.5-3.9-5.2-6.4-9.3-6.4c-1.4,0-2.7,0.3-4,0.8l-0.1,0c-2,0.9-4,1.3-6.1,1.3c-1.7,0-3.7-0.2-6-0.6
					c-2.5-0.4-5-1-7.4-1.6c-2.7-0.7-5.2-1.3-7.3-1.8c-2.8-0.6-4.7-0.9-6.2-0.9c-2,0-4,0.2-6,0.6c-3.1,0.7-5.9,2.2-8.2,4.6
					c-2.2,2.2-3.9,5.2-4.9,8.8c-0.2,0.6-0.4,1.3-0.5,2c-0.1,0.7-0.7,1.1-1.4,1.1H46.4c-0.8,0-1.5-0.7-1.5-1.5V45.6
					c0-0.5,0.4-0.9,0.9-0.9h13.4c0.4,0,0.7,0.2,0.8,0.5c1.6,3.2,5,5.5,8.8,5.5c2.7,0,5.2-1.1,7.1-3c1-1,2.3-2,3.9-2.9
					C81.1,44.1,84.1,42.9,90.7,42.9L90.7,42.9z M90.7,34.3c-6.7,0-11.7,1-15.2,3.1c-2.3,1.3-4.1,2.8-5.6,4.3
					c-0.3,0.3-0.6,0.4-0.9,0.4c-0.6,0-1.2-0.5-1.2-1.2v-2c0-1.5-1.2-2.8-2.8-2.8H39c-1.5,0-2.8,1.2-2.8,2.8v46
					c0,1.5,1.2,2.8,2.8,2.8h26c1.5,0,2.7-1.2,2.8-2.7c0.1-2.7,0.4-4.9,1-6.7c0.7-2.3,1.6-4,2.8-5.2c1.2-1.2,2.5-2,3.9-2.2
					c1.4-0.3,2.8-0.4,4.2-0.4c0.8,0,2.3,0.2,4.3,0.7c2.1,0.5,4.4,1,7.1,1.7c2.6,0.7,5.3,1.2,8.1,1.7c2.7,0.5,5.2,0.7,7.4,0.7
					c3.3,0,6.5-0.7,9.6-2l0.1,0c0.2-0.1,0.4-0.1,0.6-0.1c1.1,0,1.9,1.5,0.9,2.4c-2.8,2.5-5.5,5-8.4,7.2C103.9,86.8,98.7,91,93.8,95
					c-5,4-9.6,8.2-13.8,12.5c-4.2,4.3-7.9,9.2-11,14.7c-3.1,5.5-5.5,11.7-7.2,18.7c-1.6,6.3-2.4,13.6-2.6,21.9
					c0,1.6,1.2,2.8,2.8,2.8h51c1.5,0,2.8-1.2,2.8-2.7c0.2-10.3,1.4-19.5,3.5-27.5c2.4-8.7,5.3-16.5,8.9-23.5
					c3.5-7,7.4-13.3,11.6-19.2c4.2-5.8,8-11.6,11.6-17.4c3.5-5.8,6.5-11.8,8.9-18c2.1-5.5,3.3-11.6,3.5-18.5
					c0.1-1.6-1.2-2.9-2.8-2.9h-18.2c-0.8,0-1.6,0.5-2.1,1.1c-0.8,1.1-2,2-3.6,2.8c-2.2,1-4.4,1.5-6.6,1.5c-2.4,0-5.2-0.4-8.3-1.1
					c-3.1-0.7-6.3-1.5-9.6-2.4c-3.3-0.9-6.8-1.7-10.4-2.5C98.4,34.7,94.6,34.3,90.7,34.3L90.7,34.3z"/>
			</g>
		</g>
	</g>
	<g>
		<g>
			<path class="st157" d="M153.1,44.7c0.7,0,1.3,0.7,1.2,1.4c-0.5,3-1.2,5.7-2.2,8.3c-2.2,5.7-4.9,11.3-8.2,16.6
				c-3.4,5.5-7.2,11.2-11.2,16.9c-4.4,6.2-8.5,13-12.2,20.3c-0.9,1.8-1.8,3.7-2.7,5.7c-2.1,4.8-6.8,7.9-12.1,7.9H80.3l19-19.9
				c4.9-4,10.1-8.1,15.5-12.2c2.7-2.1,5.4-4.4,8.9-7.6c3.1-2.8,4.1-7.1,2.6-11c-1.5-3.9-5.2-6.4-9.3-6.4c-1.4,0-2.7,0.3-4,0.8
				l-0.1,0c-2,0.9-4,1.3-6.1,1.3c-1.7,0-3.7-0.2-6-0.6c-2.5-0.4-5-1-7.4-1.6c-2.7-0.7-5.2-1.3-7.3-1.8c-2.8-0.6-4.7-0.9-6.2-0.9
				c-2,0-4,0.2-6,0.6c-3.1,0.6-5.9,2.2-8.2,4.6c-2.2,2.2-3.9,5.2-4.9,8.8c-0.2,0.6-0.4,1.3-0.5,2c-0.1,0.7-0.7,1.1-1.4,1.1H46.4
				c-0.8,0-1.5-0.7-1.5-1.5V45.6c0-0.5,0.4-0.9,0.9-0.9l13.4,0c0.4,0,0.7,0.2,0.8,0.5c2.1,4.2,7.2,6.7,12.6,4.8
				c1.3-0.5,2.4-1.4,3.4-2.4c1-1,2.3-1.9,3.8-2.9c1.2-0.7,4.1-1.9,10.7-1.9c3.3,0,6.5,0.3,9.5,1c3.5,0.8,6.9,1.6,10,2.4
				c3.4,0.9,6.7,1.7,9.8,2.5c3.7,0.9,7.2,1.3,10.3,1.3c3.5,0,7-0.8,10.3-2.4c1.7-0.8,3.1-1.7,4.4-2.8c0.2-0.2,0.5-0.3,0.8-0.3H153.1
				z"/>
		</g>
	</g>
	<g>
		<g>
			<g>
				<path class="st158" d="M146.1,52.5c-0.4,0-0.8,0.1-1.2,0.3c-0.5,0.3-1,0.5-1.5,0.8c-4.2,2-8.6,3-13.1,3c-3.6,0-7.6-0.5-11.8-1.5
					c-3.2-0.7-6.5-1.6-10-2.5c-3.1-0.8-6.4-1.6-9.8-2.4c-2.5-0.5-5.2-0.8-8.1-0.8c-5.6,0-7.4,1-7.4,1c-1.4,0.8-2.1,1.5-2.5,1.9
					c-3.1,3.2-7.3,4.9-11.7,4.9c-4.4,0-8.4-1.7-11.4-4.6c-0.9-0.9-2.2-1.4-3.4-1.4h-9.2v26.4c0,0.8,0.7,1.5,1.5,1.5l12.1,0
					c0.7,0,1.3-0.5,1.4-1.2c0.2-0.7,0.3-1.4,0.5-2c1.1-3.6,2.7-6.6,4.9-8.8c2.4-2.4,5.2-4,8.2-4.6c2-0.4,4-0.6,6-0.6
					c1.5,0,3.4,0.3,6.2,0.9c2.1,0.5,4.6,1.1,7.3,1.8c2.4,0.6,4.9,1.1,7.4,1.6c2.2,0.4,4.2,0.6,6,0.6c2.2,0,4.2-0.4,6.1-1.3l0.1,0
					c1.3-0.5,2.6-0.8,4-0.8c4.1,0,7.8,2.5,9.3,6.4c1.5,3.8,0.5,8.1-2.6,11c-3.5,3.2-6.2,5.6-8.9,7.6c-5.4,4.1-10.6,8.3-15.5,12.2
					l-19,19.9h25.5c5.2,0,10-3.1,12.1-7.9c0.9-1.9,1.7-3.8,2.7-5.6c3.7-7.3,7.8-14.1,12.2-20.3c4-5.7,7.8-11.3,11.2-16.9
					c3.2-5.3,6-10.8,8.2-16.6l0.7-1.8H146.1z"/>
			</g>
		</g>
	</g>
	<g>
		<g>
			<path class="st159" d="M126.7,76.3c-0.2,1.3-0.7,2.5-1.5,3.7C126,78.8,126.4,77.6,126.7,76.3L126.7,76.3z"/>
		</g>
	</g>
	<g>
		<g>
			<path class="st157" d="M130.2,79.7C130.2,79.8,130.2,79.8,130.2,79.7c0,3.2-1.5,6.2-3.8,8.3c-1.8,1.6-4.1,3.6-5.6,4.8
				c-0.7,0.6-1.4,1.1-2.1,1.7c-5.3,4.1-10.5,8.2-15.4,12.1c-4.5,3.7-8.7,7.5-12.5,11.4c-3.3,3.3-6.1,7.2-8.5,11.5
				c-2.4,4.3-4.3,9.4-5.7,15c-0.5,1.9-2.6,10.4-2.9,12.5h-4.1c-0.7,0-1.3-0.6-1.2-1.3c0.4-4.7,1-9,2-12.7c1.5-6.2,3.7-11.8,6.3-16.6
				c2.7-4.8,5.9-9.1,9.6-12.8c4-4.1,8.4-8,13.1-11.8c3.7-3,7.6-6.1,11.5-9.2c0.6-0.5,1.3-1,2-1.5c0.7-0.5,1.3-1,2-1.6
				c2.7-2.1,5.4-4.4,8.9-7.6c0.2-0.2,0.4-0.4,0.6-0.6c0.2-0.2,0.3-0.4,0.5-0.6c0,0,0,0,0,0c0.2-0.2,0.3-0.4,0.5-0.7
				c0.8-1.1,1.3-2.4,1.5-3.7c0.3-1.8,0.2-3.7-0.5-5.4c-0.2-0.6-0.6-1.2-0.9-1.7c2.3,2,4,4.7,4.7,7.8
				C130.1,77.8,130.2,78.8,130.2,79.7z"/>
		</g>
	</g>
	<g>
		<g>
			<path class="st160" d="M76.5,144.5c0.3-1,0.5-2,0.8-3c0.5-1.6-0.4-3.3-1.9-3.9l-0.1,0c-1.8-0.7-3.7,0.2-4.2,2
				c-0.3,1.1-0.6,2.2-0.9,3.4c-0.9,3.8-1.6,8-2,12.7c-0.1,0.7,0.5,1.3,1.2,1.3h36.7c0.7,0,1.2-0.5,1.2-1.2c0-0.8,0.1-1.6,0.2-2.3
				c0.1-1.6-1.1-3-2.7-3H77.1c-0.9,0-1.6-0.8-1.4-1.7C75.9,147.4,76.2,145.9,76.5,144.5z"/>
		</g>
	</g>
</g>
</svg>
