<?xml version="1.0" encoding="utf-8"?>
<!-- Generator: Adobe Illustrator 25.4.1, SVG Export Plug-In . SVG Version: 6.00 Build 0)  -->
<svg version="1.1" id="Layer_1" xmlns="http://www.w3.org/2000/svg" xmlns:xlink="http://www.w3.org/1999/xlink" x="0px" y="0px"
	 viewBox="0 0 200 200" style="enable-background:new 0 0 200 200;" xml:space="preserve">
<style type="text/css">
	.st0{fill:url(#SVGID_1_);}
	.st1{fill:url(#SVGID_00000158745435735884817900000008644813503888277400_);}
	.st2{clip-path:url(#SVGID_00000183219399721919853760000001640196490059887028_);}
	.st3{fill:#8CF7F7;}
	.st4{fill:none;stroke:#303030;stroke-width:5.3333;stroke-linejoin:round;stroke-miterlimit:13.3333;}
	.st5{fill:url(#SVGID_00000055675068814549081160000012720247323490021040_);}
	.st6{clip-path:url(#SVGID_00000117644764447590281330000012740618276519149193_);}
	.st7{fill:#E3A6D6;}
	.st8{fill:url(#SVGID_00000118370720834502489240000005552760824937787538_);}
	.st9{clip-path:url(#SVGID_00000122678326259791937080000001168618066464460467_);}
	.st10{fill:url(#SVGID_00000000922272048515618240000006999784394678115482_);}
	.st11{clip-path:url(#SVGID_00000001641030604914179110000000452933169767094970_);}
	.st12{fill:url(#SVGID_00000163055124556220594530000016474501221275873675_);}
	.st13{clip-path:url(#SVGID_00000101812923847906588530000001271538121720527016_);}
	.st14{fill:none;stroke:#303030;stroke-width:5.3333;stroke-linecap:round;stroke-linejoin:round;stroke-miterlimit:13.3333;}
	.st15{fill:url(#SVGID_00000036955136562422870500000004890617833658728322_);}
	.st16{clip-path:url(#SVGID_00000165204416742985417250000001708497186423623065_);}
	.st17{fill:#00EFEF;}
	.st18{fill:url(#SVGID_00000137102724670143464590000008024456603763157903_);}
	.st19{clip-path:url(#SVGID_00000037669940402872771330000012279229718945998493_);}
	.st20{fill:#00E4E4;}
	.st21{fill:none;stroke:#303030;stroke-width:5.3333;stroke-miterlimit:13.3333;}
	.st22{opacity:0.2;clip-path:url(#SVGID_00000116933473056761504210000000275403779224310703_);}
	.st23{fill:#303030;}
	.st24{fill:url(#SVGID_00000070101684641170772190000004091181042103301785_);}
	.st25{fill:url(#SVGID_00000023966663101703391880000007141864902951652238_);}
	.st26{clip-path:url(#SVGID_00000174564459571856363880000000270462201030576556_);}
	.st27{fill:#CC67B9;}
	.st28{fill:url(#SVGID_00000176035963597867697940000001076760215342900143_);}
	.st29{clip-path:url(#SVGID_00000139991736064635967540000009982533290274662056_);}
	.st30{fill:url(#SVGID_00000113354567675718731980000013368566497504132510_);}
	.st31{clip-path:url(#SVGID_00000023246001617252644200000009328522351367906187_);}
	.st32{fill:#D887C7;}
	.st33{opacity:0.2;clip-path:url(#SVGID_00000084529976342217969190000005017182747864034692_);}
	.st34{fill:url(#SVGID_00000074400367913598858650000008376840817512758944_);}
	.st35{clip-path:url(#SVGID_00000077321741810150006200000002535012237284013469_);}
	.st36{fill:#00E4E4;stroke:#303030;stroke-width:5.3333;stroke-miterlimit:13.3333;}
	.st37{fill:url(#SVGID_00000131364167624415822970000015575008416509414529_);}
	.st38{clip-path:url(#SVGID_00000177477629610223511440000016530187037858026125_);}
	.st39{fill:#75F5F5;}
	.st40{fill:url(#SVGID_00000098938277909748740220000013978104023448031924_);}
	.st41{clip-path:url(#SVGID_00000098914412532700989910000016711684724731298720_);}
	.st42{fill:url(#SVGID_00000122000052920037945640000006522758481409468802_);}
	.st43{clip-path:url(#SVGID_00000018925608060397428040000010462139519528153018_);}
	.st44{fill:url(#SVGID_00000036958793529820871870000005585972882848840594_);}
	.st45{clip-path:url(#SVGID_00000043416753523862330800000006298009594845540007_);}
	.st46{opacity:0.2;clip-path:url(#SVGID_00000011718409480322145370000004985326380754587324_);}
	.st47{fill:url(#SVGID_00000160901204557399447030000002606086399298748840_);}
	.st48{fill:url(#SVGID_00000072267763646556140150000016567659426083907003_);}
	.st49{clip-path:url(#SVGID_00000153678959434149509520000003763438464068143000_);}
	.st50{fill:url(#SVGID_00000032647139300483647650000017917339305568831904_);}
	.st51{clip-path:url(#SVGID_00000008113365483569906100000007941990221608377740_);}
	.st52{fill:url(#SVGID_00000074414938335538147350000010319743843225317031_);}
	.st53{clip-path:url(#SVGID_00000039102605863693649550000004984454185659700150_);}
	.st54{fill:#00E4E4;stroke:#303030;stroke-width:5.3333;stroke-linejoin:round;stroke-miterlimit:13.3333;}
	.st55{fill:url(#SVGID_00000107580916986221975800000015919466808548320427_);}
	.st56{clip-path:url(#SVGID_00000003090869729746962750000000990589515092471218_);}
	.st57{fill:url(#SVGID_00000007387620970043295250000017364770368055397019_);}
	.st58{clip-path:url(#SVGID_00000096782081981491336670000002991726530776571833_);}
	.st59{fill:url(#SVGID_00000049938933807775357220000015605637715790377869_);}
	.st60{clip-path:url(#SVGID_00000158720445340316341290000000706946664057284229_);}
	.st61{opacity:0.2;clip-path:url(#SVGID_00000059302240843770840070000004014196688366481599_);}
	.st62{fill:url(#SVGID_00000165217654128745632770000008099057772880252859_);}
	.st63{fill:url(#SVGID_00000045612083442712136170000002731361972270163328_);}
	.st64{fill:url(#SVGID_00000149356903464166631030000006734601584899595699_);}
	.st65{clip-path:url(#SVGID_00000052798933142550247110000002961962290657641385_);}
	.st66{fill:url(#SVGID_00000041275264044700160550000015221969515057092261_);}
	.st67{fill:url(#SVGID_00000111896941141203080750000008861267055253434295_);}
	.st68{clip-path:url(#SVGID_00000044860317170210470330000009581923209530038685_);}
	.st69{fill:url(#SVGID_00000005237344291266566090000005243019682805901981_);}
	.st70{clip-path:url(#SVGID_00000021106064794310621320000016402102492294792075_);}
	.st71{fill:url(#SVGID_00000158733381755252676710000015947281599574089351_);}
	.st72{clip-path:url(#SVGID_00000129171274266414471670000011686604843261115035_);}
	.st73{opacity:0.2;clip-path:url(#SVGID_00000007430574678288894290000001151001759201732484_);}
	.st74{fill:url(#SVGID_00000036936065379433903850000017377919786749281178_);}
	.st75{fill:url(#SVGID_00000137091075698204993490000010740786531287358385_);}
	.st76{clip-path:url(#SVGID_00000038414216870069428830000006323789195858217901_);}
	.st77{fill:url(#SVGID_00000116957289230422398910000017861969364721187209_);}
	.st78{clip-path:url(#SVGID_00000049931847938255510030000001397869996876090527_);}
	.st79{fill:url(#SVGID_00000158720732062549008580000015662816895565235841_);}
	.st80{clip-path:url(#SVGID_00000119102663780624222100000002996095121845068951_);}
	.st81{fill:url(#SVGID_00000102529859457167084790000009356250992548553126_);}
	.st82{clip-path:url(#SVGID_00000038375466301218287450000004286877897737524412_);}
	.st83{fill:url(#SVGID_00000008126372008293655690000003187302653422126756_);}
	.st84{clip-path:url(#SVGID_00000125597776652503428390000016940017885115757720_);}
	.st85{fill:url(#SVGID_00000181046634524353376520000001555498420071492492_);}
	.st86{clip-path:url(#SVGID_00000098906831254641776440000004382967156339467413_);}
	.st87{fill:url(#SVGID_00000060025424484565793810000012653438412501369788_);}
	.st88{clip-path:url(#SVGID_00000061429884181493427830000015237397049469927861_);}
	.st89{opacity:0.2;clip-path:url(#SVGID_00000100375330037716262960000009266704138447647400_);}
	.st90{fill:url(#SVGID_00000076570419715092978630000006585336968282095290_);}
	.st91{fill:url(#SVGID_00000039855597447698729200000007859987747827703197_);}
	.st92{fill:url(#SVGID_00000060745358680867434610000012578933460647144632_);}
	.st93{fill:url(#SVGID_00000177472338647525327600000002467563917387511936_);}
	.st94{fill:url(#SVGID_00000057863116472701005590000004476165057666313124_);}
	.st95{clip-path:url(#SVGID_00000052082257509116375790000017017383703460680609_);}
	.st96{fill:url(#SVGID_00000069373634236228510370000015230644101540563865_);}
	.st97{clip-path:url(#SVGID_00000041289297499454767480000014497487328492473237_);}
	.st98{fill:url(#SVGID_00000007414951902897232650000007017173201100352689_);}
	.st99{clip-path:url(#SVGID_00000060018700525724320670000013613037372503058569_);}
	.st100{fill:url(#SVGID_00000131369775140030646350000001794655973151221658_);}
	.st101{clip-path:url(#SVGID_00000030480328274649929840000008520108112574874253_);}
	.st102{fill:none;stroke:#E3A6D6;stroke-width:5.3333;stroke-linecap:round;stroke-linejoin:round;stroke-miterlimit:13.3333;}
	.st103{fill:url(#SVGID_00000036245954122458015730000001305537589117893252_);}
	.st104{clip-path:url(#SVGID_00000176745226211436170960000006346557594513881742_);}
	.st105{fill:url(#SVGID_00000158749033243750317730000005229819268866760864_);}
	.st106{clip-path:url(#SVGID_00000141419007628629789840000005827619403895382181_);}
	.st107{fill:#FFFFFF;}
	.st108{opacity:0.2;clip-path:url(#SVGID_00000040544623873089413000000009036250680679464381_);}
	.st109{fill:url(#SVGID_00000039133393875710916770000000613536636947946664_);}
	.st110{fill:url(#SVGID_00000016035317434032635410000000435883377949901735_);}
	.st111{fill:url(#SVGID_00000011010380620322087080000012923134676327373712_);}
	.st112{fill:url(#SVGID_00000016766548573656477000000015688590001901497269_);}
	.st113{clip-path:url(#SVGID_00000160192273722235604420000018227303252590185654_);}
	.st114{fill:#CC67B9;stroke:#303030;stroke-width:5.3333;stroke-linejoin:round;stroke-miterlimit:13.3333;}
	.st115{fill:url(#SVGID_00000048499093380568004420000009436820535053746077_);}
	.st116{clip-path:url(#SVGID_00000101817159959936724930000014424655058994727573_);}
	.st117{fill:url(#SVGID_00000132791825695037481500000006620202062366416048_);}
	.st118{clip-path:url(#SVGID_00000109730731393084906630000015711756773866085807_);}
	.st119{fill:url(#SVGID_00000086687120938796858630000002732436787646187392_);}
	.st120{clip-path:url(#SVGID_00000123438358901318264030000017228983988107951510_);}
	.st121{fill:url(#SVGID_00000168108810473930221290000004772555572427546762_);}
	.st122{clip-path:url(#SVGID_00000155129863425290870060000011472628365663836307_);}
	.st123{fill:url(#SVGID_00000090985134823452462320000016963257549743298447_);}
	.st124{clip-path:url(#SVGID_00000045584157494974812580000005516589919999103371_);}
	.st125{fill:url(#SVGID_00000075854071552909936060000005413110240851604139_);}
	.st126{clip-path:url(#SVGID_00000141447518936615772540000015621475974006130324_);}
	.st127{fill:url(#SVGID_00000056401523912136408090000016614945901530902458_);}
	.st128{clip-path:url(#SVGID_00000153692232132812022080000006732937273578474937_);}
	.st129{fill:url(#SVGID_00000067197944933787164640000011835044939302558342_);}
	.st130{clip-path:url(#SVGID_00000165923752168228072980000002896939719091193477_);}
	.st131{fill:url(#SVGID_00000056402743756225164970000006955380685019335562_);}
	.st132{clip-path:url(#SVGID_00000017475388304592751530000001403016458671689382_);}
	.st133{fill:url(#SVGID_00000010302110929917237520000006394593105641942668_);}
	.st134{clip-path:url(#SVGID_00000057149485799442285960000015028430353316265858_);}
	.st135{fill:url(#SVGID_00000060712438830624025000000014825169228781707698_);}
	.st136{clip-path:url(#SVGID_00000144298387261107992230000017247892465941529734_);}
	.st137{opacity:0.2;clip-path:url(#SVGID_00000152977363971023849360000010401358781296115604_);}
	.st138{fill:url(#SVGID_00000050652067588114011850000001840081928248939438_);}
	.st139{fill:#A796A8;}
	.st140{fill:#D3C2D2;}
	.st141{fill:#EFE8EF;}
	.st142{fill:#5A4D5B;}
	.st143{fill:#716172;}
	.st144{fill:#B0EEFF;}
	.st145{fill:#4A8BF0;}
	.st146{fill:#67C2FF;}
	.st147{fill:#4E886D;}
	.st148{fill:#B0CF43;}
	.st149{fill:#70A950;}
	.st150{fill:#EBE858;}
	.st151{fill:#E53557;}
	.st152{fill:#AF1E4B;}
	.st153{fill:#422F38;}
	.st154{fill:#F99027;}
	.st155{fill:#FFC840;}
	.st156{fill:#DF3359;}
	.st157{fill:#FFC5C5;}
	.st158{fill:#FA5262;}
	.st159{fill:#FF9BB2;}
	.st160{fill:#FF826F;}
	.st161{fill:#FFE783;}
	.st162{fill:#FFD45A;}
	.st163{fill:#F28033;}
	.st164{fill:#D56132;}
	.st165{fill:#FC9A2C;}
	.st166{fill:#E0692B;}
	.st167{fill:#FFDE6F;}
</style>
<g>
	<g>
		<defs>
			<rect id="SVGID_00000034799401707957125630000004042988500854559930_" x="640" y="-706.8" width="200" height="200"/>
		</defs>
		<clipPath id="SVGID_00000091706087106648688670000006659743898439690393_">
			<use xlink:href="#SVGID_00000034799401707957125630000004042988500854559930_"  style="overflow:visible;"/>
		</clipPath>
		
			<g transform="matrix(1.33333 0 0 -1.33333 0 200)" style="clip-path:url(#SVGID_00000091706087106648688670000006659743898439690393_);">
			<g>
				<defs>
					<rect id="SVGID_00000182497815093836617300000013367558114846355387_" x="-230.3" y="45.1" width="1066.7" height="800"/>
				</defs>
				<clipPath id="SVGID_00000107581588344836162720000017103423971393930384_">
					<use xlink:href="#SVGID_00000182497815093836617300000013367558114846355387_"  style="overflow:visible;"/>
				</clipPath>
				<g style="opacity:0.2;clip-path:url(#SVGID_00000107581588344836162720000017103423971393930384_);">
					<path class="st23" d="M703,745.1H-97v-600h800V745.1z M698,150.1H-92v590h790V150.1z"/>
				</g>
			</g>
		</g>
	</g>
</g>
<g>
	<g>
		<defs>
			<rect id="SVGID_00000008834848901034580640000012575421059861227397_" x="426.7" y="-706.8" width="200" height="200"/>
		</defs>
		<clipPath id="SVGID_00000049195166094886554150000009849626592753361086_">
			<use xlink:href="#SVGID_00000008834848901034580640000012575421059861227397_"  style="overflow:visible;"/>
		</clipPath>
		
			<g transform="matrix(1.33333 0 0 -1.33333 0 200)" style="clip-path:url(#SVGID_00000049195166094886554150000009849626592753361086_);">
			<g>
				<defs>
					<rect id="SVGID_00000065788041412047126820000003376473100845175704_" x="-230.3" y="45.1" width="1066.7" height="800"/>
				</defs>
				<clipPath id="SVGID_00000173847704246633060310000005676819842173810593_">
					<use xlink:href="#SVGID_00000065788041412047126820000003376473100845175704_"  style="overflow:visible;"/>
				</clipPath>
				<g style="opacity:0.2;clip-path:url(#SVGID_00000173847704246633060310000005676819842173810593_);">
					<path class="st23" d="M703,745.1H-97v-600h800V745.1z M698,150.1H-92v590h790V150.1z"/>
				</g>
			</g>
		</g>
	</g>
</g>
<linearGradient id="SVGID_1_" gradientUnits="userSpaceOnUse" x1="276.4287" y1="-135.3868" x2="277.4287" y2="-135.3868" gradientTransform="matrix(0 -799.998 -799.998 0 -108209.1484 221855.7344)">
	<stop  offset="0" style="stop-color:#D887C7"/>
	<stop  offset="0.2285" style="stop-color:#D887C7"/>
	<stop  offset="1" style="stop-color:#00E4E4"/>
</linearGradient>
<path class="st0" d="M0,200h200V0H0V200z"/>
<g>
	<defs>
		<rect id="SVGID_00000016787841418382530310000009307713459809755806_" x="213.3" y="-706.8" width="200" height="200"/>
	</defs>
	<clipPath id="SVGID_00000124865055105556883080000013632121293900979870_">
		<use xlink:href="#SVGID_00000016787841418382530310000009307713459809755806_"  style="overflow:visible;"/>
	</clipPath>
	
		<g transform="matrix(1.33333 0 0 -1.33333 0 200)" style="clip-path:url(#SVGID_00000124865055105556883080000013632121293900979870_);">
		<g>
			<defs>
				<rect id="SVGID_00000124850796226300506600000001989068797170845108_" x="-230.3" y="45.1" width="1066.7" height="800"/>
			</defs>
			<clipPath id="SVGID_00000092424527101081317620000000749650728640838808_">
				<use xlink:href="#SVGID_00000124850796226300506600000001989068797170845108_"  style="overflow:visible;"/>
			</clipPath>
			<g style="opacity:0.2;clip-path:url(#SVGID_00000092424527101081317620000000749650728640838808_);">
				<path class="st23" d="M703,745.1H-97v-600h800V745.1z M698,150.1H-92v590h790V150.1z"/>
			</g>
		</g>
	</g>
</g>
<g>
	<g>
		<g>
			<path class="st165" d="M108.3,33.6l13.8,33.2c1.3,3.1,4.2,5.3,7.6,5.5l36,2.8c8,0.6,11.2,10.6,5.1,15.7l-27.5,23.3
				c-2.6,2.2-3.7,5.6-2.9,8.9l8.5,35c1.9,7.8-6.6,13.9-13.4,9.7l-30.8-18.8c-2.9-1.8-6.5-1.8-9.4,0l-30.8,18.8
				c-6.8,4.2-15.3-2-13.4-9.7l8.5-35c0.8-3.3-0.3-6.7-2.9-8.9L29.2,90.8c-6.1-5.2-2.9-15.1,5.1-15.7l36-2.8c3.4-0.3,6.3-2.4,7.6-5.5
				l13.8-33.2C94.7,26.2,105.3,26.2,108.3,33.6z"/>
		</g>
	</g>
	<g>
		<g>
			<path class="st166" d="M148.9,158c1.9,7.8-6.6,13.9-13.4,9.7l-30.8-18.8c-2.9-1.8-6.5-1.8-9.4,0l-16.2,9.9
				c-4.7,2.9-10.6-1.2-9.5-6.6l1.5-7.5l21.5-15.6l26.1-1.2l3.9-20.5l24.2-17.5l7.8,0.3c5.7,0.3,8.2,7.4,3.8,11.1l-15.1,12.8
				c-2.6,2.2-3.7,5.6-2.9,8.9L148.9,158z"/>
		</g>
	</g>
	<g>
		<g>
			<g>
				<path class="st164" d="M100,79.3c5,9.5,14,16,24.6,17.8c-7.5,7.6-10.9,18.2-9.4,28.8c-4.7-2.3-9.9-3.5-15.2-3.5
					c-5.3,0-10.5,1.2-15.2,3.5c1.6-10.6-1.9-21.1-9.4-28.8C86,95.3,95,88.8,100,79.3L100,79.3z M100,56l-7,17
					c-3.7,8.8-11.9,14.8-21.4,15.5l-18.4,1.4l14,11.9c7.3,6.2,10.4,15.8,8.2,25.1l-4.3,17.8l15.7-9.6c4-2.4,8.6-3.7,13.2-3.7
					c4.7,0,9.3,1.3,13.2,3.7l15.7,9.6l-4.3-17.8c-2.3-9.3,0.9-18.9,8.2-25.1l14-11.9l-18.4-1.4c-9.6-0.7-17.8-6.7-21.4-15.5L100,56
					L100,56z"/>
			</g>
		</g>
	</g>
	<g>
		<g>
			<path class="st155" d="M67.2,101.8l-14-11.9l18.4-1.4C81.1,87.8,89.3,81.8,93,73l7-17l7,17c0,0,0,0.1,0.1,0.1
				c2.7,6.4,11.5,7.3,15.6,1.7l2.8-3.9c-1.5-1-2.7-2.4-3.4-4.1l-13.8-33.2c-1.5-3.7-4.9-5.5-8.3-5.5c-3.4,0-6.8,1.8-8.3,5.5
				L77.9,66.8c-1.3,3.1-4.2,5.3-7.6,5.5l-36,2.8c-8,0.6-11.2,10.6-5.1,15.7l27.5,23.3c0.9,0.7,1.6,1.6,2.1,2.6l6.1-2.2
				C70.3,112.7,71.7,105.6,67.2,101.8C67.3,101.8,67.2,101.8,67.2,101.8z"/>
		</g>
	</g>
	<g>
		<g>
			<path class="st167" d="M109.7,90.7L109.7,90.7c4.3,3.2,9.4,5.4,14.8,6.4c-7.5,7.6-10.9,18.2-9.4,28.8c-4.7-2.3-9.9-3.5-15.2-3.5
				c-5.3,0-10.5,1.2-15.2,3.5c0.8-5.6,0.2-11.2-1.6-16.4l0,0c-4.4,1.6-7.3,5.8-7.1,10.4c0.1,2.3-0.1,4.7-0.7,7l-4.3,17.8l15.7-9.6
				c4-2.4,8.6-3.7,13.2-3.7c4.7,0,9.3,1.3,13.2,3.7l15.7,9.6l-4.3-17.8c-2.2-9.2,0.9-18.9,8.2-25.1l14-11.9l-18.4-1.4
				c-2.3-0.2-4.4-0.6-6.5-1.4C117.5,85.6,112.6,87,109.7,90.7z"/>
		</g>
	</g>
</g>
</svg>
